Laila_0.ufo
<glyph name="quotedbl" format="1">
  <advance width="263"/>
  <unicode hex="0022"/>
  <outline>
    <contour>
      <point x="94" y="843" type="curve" smooth="yes"/>
      <point x="94" y="873"/>
      <point x="87" y="897"/>
      <point x="62" y="897" type="curve" smooth="yes"/>
      <point x="38" y="897"/>
      <point x="32" y="873"/>
      <point x="32" y="844" type="curve" smooth="yes"/>
      <point x="32" y="746"/>
      <point x="41" y="595"/>
      <point x="63" y="595" type="curve" smooth="yes"/>
      <point x="86" y="595"/>
      <point x="94" y="745"/>
    </contour>
    <contour>
      <point x="231" y="843" type="curve" smooth="yes"/>
      <point x="231" y="873"/>
      <point x="223" y="897"/>
      <point x="199" y="897" type="curve" smooth="yes"/>
      <point x="175" y="897"/>
      <point x="169" y="873"/>
      <point x="169" y="844" type="curve" smooth="yes"/>
      <point x="169" y="746"/>
      <point x="178" y="595"/>
      <point x="200" y="595" type="curve" smooth="yes"/>
      <point x="223" y="595"/>
      <point x="231" y="745"/>
    </contour>
  </outline>
</glyph>
<glyph name="percent" format="1">
  <advance width="823"/>
  <unicode hex="0025"/>
  <outline>
    <contour>
      <point x="211" y="331" type="curve" smooth="yes"/>
      <point x="304" y="331"/>
      <point x="365" y="434"/>
      <point x="365" y="541" type="curve" smooth="yes"/>
      <point x="365" y="634"/>
      <point x="319" y="720"/>
      <point x="235" y="720" type="curve" smooth="yes"/>
      <point x="141" y="720"/>
      <point x="86" y="615"/>
      <point x="86" y="511" type="curve" smooth="yes"/>
      <point x="86" y="416"/>
      <point x="132" y="331"/>
    </contour>
    <contour>
      <point x="228" y="668" type="curve" smooth="yes"/>
      <point x="289" y="668"/>
      <point x="320" y="604"/>
      <point x="320" y="535" type="curve" smooth="yes"/>
      <point x="320" y="454"/>
      <point x="280" y="384"/>
      <point x="227" y="384" type="curve" smooth="yes"/>
      <point x="167" y="384"/>
      <point x="132" y="445"/>
      <point x="132" y="519" type="curve" smooth="yes"/>
      <point x="132" y="599"/>
      <point x="172" y="668"/>
    </contour>
    <contour>
      <point x="155" y="30" type="line"/>
      <point x="149" y="21"/>
      <point x="140" y="10"/>
      <point x="135" y="6" type="curve"/>
      <point x="146" y="-7"/>
      <point x="159" y="-8"/>
      <point x="167" y="-8" type="curve" smooth="yes"/>
      <point x="184" y="-8"/>
      <point x="191" y="1"/>
      <point x="202" y="17" type="curve" smooth="yes"/>
      <point x="668" y="682" type="line" smooth="yes"/>
      <point x="675" y="691"/>
      <point x="682" y="702"/>
      <point x="689" y="706" type="curve"/>
      <point x="678" y="718"/>
      <point x="665" y="720"/>
      <point x="658" y="720" type="curve" smooth="yes"/>
      <point x="639" y="720"/>
      <point x="627" y="703"/>
      <point x="621" y="696" type="curve" smooth="yes"/>
    </contour>
    <contour>
      <point x="583" y="-8" type="curve" smooth="yes"/>
      <point x="676" y="-8"/>
      <point x="736" y="95"/>
      <point x="736" y="202" type="curve" smooth="yes"/>
      <point x="736" y="294"/>
      <point x="690" y="381"/>
      <point x="607" y="381" type="curve" smooth="yes"/>
      <point x="513" y="381"/>
      <point x="458" y="274"/>
      <point x="458" y="172" type="curve" smooth="yes"/>
      <point x="458" y="77"/>
      <point x="503" y="-8"/>
    </contour>
    <contour>
      <point x="600" y="328" type="curve" smooth="yes"/>
      <point x="660" y="328"/>
      <point x="691" y="265"/>
      <point x="691" y="194" type="curve" smooth="yes"/>
      <point x="691" y="113"/>
      <point x="652" y="44"/>
      <point x="599" y="44" type="curve" smooth="yes"/>
      <point x="539" y="44"/>
      <point x="503" y="105"/>
      <point x="503" y="179" type="curve" smooth="yes"/>
      <point x="503" y="259"/>
      <point x="544" y="328"/>
    </contour>
  </outline>
</glyph>
<glyph name="ampersand" format="1">
  <advance width="714"/>
  <unicode hex="0026"/>
  <outline>
    <contour>
      <point x="308" y="422" type="curve"/>
      <point x="214" y="422"/>
      <point x="165" y="467"/>
      <point x="165" y="551" type="curve" smooth="yes"/>
      <point x="165" y="623"/>
      <point x="210" y="678"/>
      <point x="270" y="678" type="curve" smooth="yes"/>
      <point x="327" y="678"/>
      <point x="355" y="656"/>
      <point x="361" y="598" type="curve"/>
      <point x="394" y="589"/>
      <point x="421" y="600"/>
      <point x="421" y="629" type="curve" smooth="yes"/>
      <point x="421" y="684"/>
      <point x="375" y="719"/>
      <point x="295" y="719" type="curve" smooth="yes"/>
      <point x="194" y="719"/>
      <point x="103" y="648"/>
      <point x="103" y="530" type="curve" smooth="yes"/>
      <point x="103" y="437"/>
      <point x="166" y="376"/>
      <point x="257" y="376" type="curve" smooth="yes"/>
      <point x="299" y="376"/>
      <point x="322" y="398"/>
    </contour>
    <contour>
      <point x="212" y="404" type="line"/>
      <point x="144" y="370"/>
      <point x="75" y="305"/>
      <point x="75" y="205" type="curve" smooth="yes"/>
      <point x="75" y="85"/>
      <point x="169" y="-8"/>
      <point x="336" y="-8" type="curve" smooth="yes"/>
      <point x="481" y="-8"/>
      <point x="589" y="95"/>
      <point x="589" y="224" type="curve" smooth="yes"/>
      <point x="589" y="282"/>
      <point x="577" y="327"/>
      <point x="547" y="365" type="curve"/>
      <point x="520" y="348" type="line"/>
      <point x="551" y="348" type="line" smooth="yes"/>
      <point x="661" y="348"/>
      <point x="708" y="394"/>
      <point x="708" y="452" type="curve" smooth="yes"/>
      <point x="708" y="491"/>
      <point x="676" y="525"/>
      <point x="625" y="497" type="curve"/>
      <point x="638" y="434"/>
      <point x="619" y="391"/>
      <point x="497" y="391" type="curve" smooth="yes"/>
      <point x="456" y="391"/>
      <point x="428" y="385"/>
      <point x="441" y="349" type="curve"/>
      <point x="518" y="349"/>
      <point x="544" y="291"/>
      <point x="544" y="220" type="curve" smooth="yes"/>
      <point x="544" y="115"/>
      <point x="442" y="47"/>
      <point x="340" y="47" type="curve" smooth="yes"/>
      <point x="211" y="47"/>
      <point x="141" y="108"/>
      <point x="141" y="214" type="curve" smooth="yes"/>
      <point x="141" y="291"/>
      <point x="190" y="368"/>
      <point x="257" y="393" type="curve"/>
    </contour>
  </outline>
</glyph>
<glyph name="parenleft" format="1">
  <advance width="431"/>
  <unicode hex="0028"/>
  <outline>
    <contour>
      <point x="406" y="714" type="curve"/>
      <point x="402" y="722"/>
      <point x="394" y="726"/>
      <point x="386" y="726" type="curve" smooth="yes"/>
      <point x="319" y="726"/>
      <point x="116" y="500"/>
      <point x="116" y="227" type="curve" smooth="yes"/>
      <point x="116" y="-63"/>
      <point x="324" y="-273"/>
      <point x="386" y="-273" type="curve" smooth="yes"/>
      <point x="396" y="-273"/>
      <point x="402" y="-268"/>
      <point x="406" y="-259" type="curve"/>
      <point x="300" y="-165"/>
      <point x="176" y="-15"/>
      <point x="176" y="228" type="curve" smooth="yes"/>
      <point x="176" y="470"/>
      <point x="300" y="619"/>
    </contour>
  </outline>
</glyph>
<glyph name="parenright" format="1">
  <advance width="431"/>
  <unicode hex="0029"/>
  <outline>
    <contour>
      <point x="313" y="227" type="curve" smooth="yes"/>
      <point x="313" y="500"/>
      <point x="110" y="726"/>
      <point x="43" y="726" type="curve" smooth="yes"/>
      <point x="34" y="726"/>
      <point x="27" y="722"/>
      <point x="23" y="714" type="curve"/>
      <point x="128" y="619"/>
      <point x="254" y="470"/>
      <point x="254" y="228" type="curve" smooth="yes"/>
      <point x="254" y="-15"/>
      <point x="128" y="-165"/>
      <point x="23" y="-259" type="curve"/>
      <point x="27" y="-268"/>
      <point x="32" y="-273"/>
      <point x="43" y="-273" type="curve" smooth="yes"/>
      <point x="105" y="-273"/>
      <point x="313" y="-63"/>
    </contour>
  </outline>
</glyph>
<glyph name="plus" format="1">
  <advance width="659"/>
  <unicode hex="002B"/>
  <outline>
    <contour>
      <point x="355" y="641" type="curve"/>
      <point x="352" y="425" type="line"/>
      <point x="582" y="428" type="line"/>
      <point x="584" y="426"/>
      <point x="585" y="418"/>
      <point x="585" y="415" type="curve" smooth="yes"/>
      <point x="585" y="375"/>
      <point x="543" y="375"/>
      <point x="526" y="375" type="curve" smooth="yes"/>
      <point x="465" y="377"/>
      <point x="403" y="379"/>
      <point x="352" y="379" type="curve"/>
      <point x="353" y="324"/>
      <point x="354" y="264"/>
      <point x="355" y="201" type="curve"/>
      <point x="355" y="186"/>
      <point x="357" y="143"/>
      <point x="317" y="143" type="curve" smooth="yes"/>
      <point x="312" y="143"/>
      <point x="306" y="143"/>
      <point x="302" y="145" type="curve"/>
      <point x="306" y="379" type="line"/>
      <point x="78" y="375" type="line"/>
      <point x="76" y="379"/>
      <point x="74" y="385"/>
      <point x="74" y="391" type="curve" smooth="yes"/>
      <point x="74" y="429"/>
      <point x="116" y="428"/>
      <point x="133" y="428" type="curve" smooth="yes"/>
      <point x="194" y="427"/>
      <point x="256" y="426"/>
      <point x="307" y="425" type="curve"/>
      <point x="306" y="474"/>
      <point x="305" y="528"/>
      <point x="303" y="586" type="curve" smooth="yes"/>
      <point x="303" y="602"/>
      <point x="301" y="645"/>
      <point x="341" y="645" type="curve" smooth="yes"/>
      <point x="347" y="645"/>
      <point x="353" y="642"/>
    </contour>
  </outline>
</glyph>
<glyph name="hyphen" format="1">
  <advance width="481"/>
  <unicode hex="002D"/>
  <outline>
    <contour>
      <point x="421" y="355" type="curve" smooth="yes"/>
      <point x="421" y="316"/>
      <point x="381" y="316"/>
      <point x="364" y="316" type="curve" smooth="yes"/>
      <point x="64" y="316" type="line"/>
      <point x="62" y="320"/>
      <point x="60" y="326"/>
      <point x="60" y="331" type="curve" smooth="yes"/>
      <point x="60" y="369"/>
      <point x="100" y="369"/>
      <point x="117" y="369" type="curve" smooth="yes"/>
      <point x="419" y="369" type="line"/>
      <point x="420" y="366"/>
      <point x="421" y="359"/>
    </contour>
  </outline>
</glyph>
<glyph name="period" format="1">
  <advance width="345"/>
  <unicode hex="002E"/>
  <outline>
    <contour>
      <point x="228" y="67" type="curve" smooth="yes"/>
      <point x="228" y="93"/>
      <point x="209" y="114"/>
      <point x="181" y="114" type="curve" smooth="yes"/>
      <point x="148" y="114"/>
      <point x="115" y="82"/>
      <point x="115" y="48" type="curve" smooth="yes"/>
      <point x="115" y="22"/>
      <point x="134" y="1"/>
      <point x="162" y="1" type="curve" smooth="yes"/>
      <point x="196" y="1"/>
      <point x="228" y="33"/>
    </contour>
  </outline>
</glyph>
<glyph name="slash" format="1">
  <advance width="544"/>
  <unicode hex="002F"/>
  <outline>
    <contour>
      <point x="472" y="919" type="curve"/>
      <point x="462" y="912"/>
      <point x="455" y="892"/>
      <point x="450" y="879" type="curve" smooth="yes"/>
      <point x="118" y="-71" type="line" smooth="yes"/>
      <point x="115" y="-86"/>
      <point x="102" y="-119"/>
      <point x="71" y="-119" type="curve" smooth="yes"/>
      <point x="65" y="-119"/>
      <point x="54" y="-118"/>
      <point x="40" y="-107" type="curve"/>
      <point x="46" y="-101"/>
      <point x="56" y="-82"/>
      <point x="61" y="-67" type="curve" smooth="yes"/>
      <point x="393" y="881" type="line" smooth="yes"/>
      <point x="398" y="896"/>
      <point x="409" y="930"/>
      <point x="439" y="930" type="curve" smooth="yes"/>
      <point x="451" y="930"/>
      <point x="460" y="926"/>
    </contour>
  </outline>
</glyph>
<glyph name="zero" format="1">
  <advance width="643"/>
  <unicode hex="0030"/>
  <outline>
    <contour>
      <point x="61" y="357" type="curve" smooth="yes"/>
      <point x="61" y="145"/>
      <point x="177" y="-8"/>
      <point x="322" y="-8" type="curve" smooth="yes"/>
      <point x="467" y="-8"/>
      <point x="582" y="145"/>
      <point x="582" y="357" type="curve" smooth="yes"/>
      <point x="582" y="582"/>
      <point x="467" y="720"/>
      <point x="322" y="720" type="curve" smooth="yes"/>
      <point x="177" y="720"/>
      <point x="61" y="582"/>
    </contour>
    <contour>
      <point x="313" y="669" type="curve" smooth="yes"/>
      <point x="400" y="669"/>
      <point x="506" y="581"/>
      <point x="512" y="375" type="curve" smooth="yes"/>
      <point x="520" y="170"/>
      <point x="418" y="44"/>
      <point x="329" y="44" type="curve" smooth="yes"/>
      <point x="243" y="44"/>
      <point x="139" y="131"/>
      <point x="131" y="335" type="curve" smooth="yes"/>
      <point x="123" y="541"/>
      <point x="226" y="669"/>
    </contour>
  </outline>
</glyph>
<glyph name="one" format="1">
  <advance width="339"/>
  <unicode hex="0031"/>
  <outline>
    <contour>
      <point x="218" y="51" type="curve"/>
      <point x="218" y="635" type="line" smooth="yes"/>
      <point x="218" y="687"/>
      <point x="191" y="720"/>
      <point x="141" y="720" type="curve" smooth="yes"/>
      <point x="83" y="720"/>
      <point x="24" y="676"/>
      <point x="24" y="650" type="curve" smooth="yes"/>
      <point x="24" y="642"/>
      <point x="29" y="636"/>
      <point x="36" y="634" type="curve"/>
      <point x="64" y="651"/>
      <point x="93" y="662"/>
      <point x="117" y="662" type="curve" smooth="yes"/>
      <point x="145" y="662"/>
      <point x="154" y="647"/>
      <point x="154" y="626" type="curve" smooth="yes"/>
      <point x="154" y="49" type="line" smooth="yes"/>
      <point x="154" y="12"/>
      <point x="170" y="-8"/>
      <point x="199" y="-8" type="curve" smooth="yes"/>
      <point x="217" y="-8"/>
      <point x="233" y="5"/>
      <point x="241" y="21" type="curve"/>
      <point x="226" y="26"/>
      <point x="218" y="33"/>
    </contour>
  </outline>
</glyph>
<glyph name="four" format="1">
  <advance width="568"/>
  <unicode hex="0034"/>
  <outline>
    <contour>
      <point x="426" y="672" type="line" smooth="yes"/>
      <point x="426" y="707"/>
      <point x="413" y="720"/>
      <point x="388" y="720" type="curve" smooth="yes"/>
      <point x="286" y="720"/>
      <point x="55" y="365"/>
      <point x="55" y="232" type="curve" smooth="yes"/>
      <point x="55" y="180"/>
      <point x="89" y="165"/>
      <point x="137" y="165" type="curve" smooth="yes"/>
      <point x="462" y="165" type="line" smooth="yes"/>
      <point x="515" y="165"/>
      <point x="551" y="176"/>
      <point x="551" y="206" type="curve" smooth="yes"/>
      <point x="551" y="218"/>
      <point x="546" y="228"/>
      <point x="542" y="233" type="curve"/>
      <point x="524" y="217"/>
      <point x="492" y="215"/>
      <point x="472" y="215" type="curve" smooth="yes"/>
      <point x="133" y="215" type="line" smooth="yes"/>
      <point x="114" y="215"/>
      <point x="106" y="220"/>
      <point x="106" y="237" type="curve" smooth="yes"/>
      <point x="106" y="343"/>
      <point x="311" y="631"/>
      <point x="351" y="631" type="curve" smooth="yes"/>
      <point x="359" y="631"/>
      <point x="363" y="629"/>
      <point x="363" y="615" type="curve" smooth="yes"/>
      <point x="363" y="49" type="line" smooth="yes"/>
      <point x="363" y="12"/>
      <point x="379" y="-8"/>
      <point x="408" y="-8" type="curve" smooth="yes"/>
      <point x="426" y="-8"/>
      <point x="442" y="5"/>
      <point x="450" y="21" type="curve"/>
      <point x="435" y="26"/>
      <point x="426" y="33"/>
      <point x="426" y="51" type="curve" smooth="yes"/>
    </contour>
  </outline>
</glyph>
<glyph name="five" format="1">
  <advance width="543"/>
  <unicode hex="0035"/>
  <outline>
    <contour>
      <point x="362" y="712" type="line"/>
      <point x="385" y="712"/>
      <point x="417" y="716"/>
      <point x="437" y="731" type="curve"/>
      <point x="448" y="722"/>
      <point x="453" y="711"/>
      <point x="453" y="700" type="curve" smooth="yes"/>
      <point x="453" y="651"/>
      <point x="379" y="651"/>
      <point x="355" y="651" type="curve" smooth="yes"/>
      <point x="198" y="651" type="line"/>
      <point x="143" y="389" type="line"/>
      <point x="113" y="403" type="line"/>
      <point x="156" y="424"/>
      <point x="214" y="433"/>
      <point x="263" y="433" type="curve" smooth="yes"/>
      <point x="391" y="433"/>
      <point x="475" y="343"/>
      <point x="475" y="225" type="curve" smooth="yes"/>
      <point x="475" y="107"/>
      <point x="385" y="-8"/>
      <point x="254" y="-8" type="curve" smooth="yes"/>
      <point x="172" y="-8"/>
      <point x="79" y="41"/>
      <point x="79" y="113" type="curve" smooth="yes"/>
      <point x="79" y="132"/>
      <point x="99" y="152"/>
      <point x="117" y="152" type="curve"/>
      <point x="143" y="84"/>
      <point x="200" y="47"/>
      <point x="273" y="47" type="curve" smooth="yes"/>
      <point x="364" y="47"/>
      <point x="421" y="123"/>
      <point x="421" y="206" type="curve" smooth="yes"/>
      <point x="421" y="324"/>
      <point x="329" y="385"/>
      <point x="229" y="385" type="curve" smooth="yes"/>
      <point x="177" y="385"/>
      <point x="136" y="371"/>
      <point x="126" y="368" type="curve"/>
      <point x="110" y="369"/>
      <point x="93" y="379"/>
      <point x="93" y="406" type="curve" smooth="yes"/>
      <point x="93" y="431"/>
      <point x="112" y="526"/>
      <point x="137" y="635" type="curve" smooth="yes"/>
      <point x="149" y="694"/>
      <point x="186" y="712"/>
      <point x="255" y="712" type="curve" smooth="yes"/>
    </contour>
  </outline>
</glyph>
<glyph name="six" format="1">
  <advance width="591"/>
  <unicode hex="0036"/>
  <outline>
    <contour>
      <point x="64" y="297" type="curve" smooth="yes"/>
      <point x="64" y="124"/>
      <point x="150" y="-8"/>
      <point x="312" y="-8" type="curve" smooth="yes"/>
      <point x="427" y="-8"/>
      <point x="533" y="71"/>
      <point x="533" y="221" type="curve" smooth="yes"/>
      <point x="533" y="344"/>
      <point x="437" y="432"/>
      <point x="316" y="432" type="curve" smooth="yes"/>
      <point x="280" y="432"/>
      <point x="241" y="419"/>
      <point x="241" y="379" type="curve"/>
      <point x="375" y="393"/>
      <point x="468" y="324"/>
      <point x="468" y="201" type="curve" smooth="yes"/>
      <point x="468" y="94"/>
      <point x="403" y="43"/>
      <point x="327" y="43" type="curve" smooth="yes"/>
      <point x="187" y="43"/>
      <point x="131" y="177"/>
      <point x="131" y="302" type="curve" smooth="yes"/>
      <point x="131" y="540"/>
      <point x="309" y="674"/>
      <point x="488" y="691" type="curve"/>
      <point x="489" y="693"/>
      <point x="489" y="696"/>
      <point x="489" y="698" type="curve" smooth="yes"/>
      <point x="489" y="714"/>
      <point x="471" y="720"/>
      <point x="450" y="720" type="curve" smooth="yes"/>
      <point x="259" y="720"/>
      <point x="64" y="537"/>
    </contour>
  </outline>
</glyph>
<glyph name="eight" format="1">
  <advance width="554"/>
  <unicode hex="0038"/>
  <outline>
    <contour>
      <point x="125" y="192" type="curve" smooth="yes"/>
      <point x="125" y="276"/>
      <point x="165" y="331"/>
      <point x="208" y="368" type="curve"/>
      <point x="310" y="306"/>
      <point x="435" y="264"/>
      <point x="435" y="156" type="curve" smooth="yes"/>
      <point x="435" y="81"/>
      <point x="368" y="37"/>
      <point x="300" y="37" type="curve" smooth="yes"/>
      <point x="187" y="37"/>
      <point x="125" y="118"/>
    </contour>
    <contour>
      <point x="415" y="519" type="curve" smooth="yes"/>
      <point x="415" y="440"/>
      <point x="383" y="391"/>
      <point x="348" y="356" type="curve"/>
      <point x="248" y="413"/>
      <point x="136" y="453"/>
      <point x="136" y="557" type="curve" smooth="yes"/>
      <point x="136" y="630"/>
      <point x="200" y="677"/>
      <point x="269" y="677" type="curve" smooth="yes"/>
      <point x="364" y="677"/>
      <point x="415" y="593"/>
    </contour>
    <contour>
      <point x="480" y="527" type="curve" smooth="yes"/>
      <point x="480" y="647"/>
      <point x="371" y="720"/>
      <point x="277" y="720" type="curve" smooth="yes"/>
      <point x="147" y="720"/>
      <point x="73" y="617"/>
      <point x="73" y="544" type="curve" smooth="yes"/>
      <point x="73" y="467"/>
      <point x="122" y="421"/>
      <point x="184" y="382" type="curve"/>
      <point x="116" y="347"/>
      <point x="60" y="270"/>
      <point x="60" y="183" type="curve" smooth="yes"/>
      <point x="60" y="62"/>
      <point x="186" y="-8"/>
      <point x="292" y="-8" type="curve" smooth="yes"/>
      <point x="424" y="-8"/>
      <point x="494" y="95"/>
      <point x="494" y="174" type="curve" smooth="yes"/>
      <point x="494" y="253"/>
      <point x="440" y="302"/>
      <point x="372" y="343" type="curve"/>
      <point x="429" y="376"/>
      <point x="480" y="442"/>
    </contour>
  </outline>
</glyph>
<glyph name="colon" format="1">
  <advance width="296"/>
  <unicode hex="003A"/>
  <outline>
    <contour>
      <point x="209" y="449" type="curve" smooth="yes"/>
      <point x="209" y="477"/>
      <point x="190" y="497"/>
      <point x="162" y="497" type="curve" smooth="yes"/>
      <point x="129" y="497"/>
      <point x="96" y="465"/>
      <point x="96" y="431" type="curve" smooth="yes"/>
      <point x="96" y="404"/>
      <point x="116" y="384"/>
      <point x="144" y="384" type="curve" smooth="yes"/>
      <point x="178" y="384"/>
      <point x="209" y="416"/>
    </contour>
    <contour>
      <point x="209" y="70" type="curve" smooth="yes"/>
      <point x="209" y="98"/>
      <point x="190" y="118"/>
      <point x="162" y="118" type="curve" smooth="yes"/>
      <point x="129" y="118"/>
      <point x="96" y="86"/>
      <point x="96" y="52" type="curve" smooth="yes"/>
      <point x="96" y="25"/>
      <point x="116" y="6"/>
      <point x="144" y="6" type="curve" smooth="yes"/>
      <point x="178" y="6"/>
      <point x="209" y="37"/>
    </contour>
  </outline>
</glyph>
<glyph name="semicolon" format="1">
  <advance width="296"/>
  <unicode hex="003B"/>
  <outline>
    <contour>
      <point x="209" y="449" type="curve" smooth="yes"/>
      <point x="209" y="477"/>
      <point x="190" y="497"/>
      <point x="162" y="497" type="curve" smooth="yes"/>
      <point x="129" y="497"/>
      <point x="96" y="465"/>
      <point x="96" y="431" type="curve" smooth="yes"/>
      <point x="96" y="404"/>
      <point x="116" y="384"/>
      <point x="144" y="384" type="curve" smooth="yes"/>
      <point x="178" y="384"/>
      <point x="209" y="416"/>
    </contour>
    <contour>
      <point x="167" y="-28" type="curve" smooth="yes"/>
      <point x="167" y="-68"/>
      <point x="151" y="-109"/>
      <point x="116" y="-132" type="curve"/>
      <point x="118" y="-144"/>
      <point x="128" y="-150"/>
      <point x="139" y="-150" type="curve" smooth="yes"/>
      <point x="179" y="-150"/>
      <point x="224" y="-86"/>
      <point x="224" y="7" type="curve" smooth="yes"/>
      <point x="224" y="56"/>
      <point x="200" y="114"/>
      <point x="151" y="114" type="curve" smooth="yes"/>
      <point x="121" y="114"/>
      <point x="97" y="91"/>
      <point x="98" y="64" type="curve"/>
      <point x="140" y="57"/>
      <point x="167" y="17"/>
    </contour>
  </outline>
</glyph>
<glyph name="equal" format="1">
  <advance width="689"/>
  <unicode hex="003D"/>
  <outline>
    <contour>
      <point x="148" y="538" type="line"/>
      <point x="131" y="538"/>
      <point x="91" y="538"/>
      <point x="91" y="500" type="curve" smooth="yes"/>
      <point x="91" y="495"/>
      <point x="93" y="489"/>
      <point x="94" y="486" type="curve"/>
      <point x="540" y="486" type="line" smooth="yes"/>
      <point x="558" y="486"/>
      <point x="597" y="486"/>
      <point x="597" y="526" type="curve" smooth="yes"/>
      <point x="597" y="530"/>
      <point x="597" y="535"/>
      <point x="596" y="538" type="curve"/>
    </contour>
    <contour>
      <point x="148" y="309" type="line"/>
      <point x="131" y="309"/>
      <point x="91" y="309"/>
      <point x="91" y="270" type="curve" smooth="yes"/>
      <point x="91" y="265"/>
      <point x="93" y="260"/>
      <point x="94" y="256" type="curve"/>
      <point x="540" y="256" type="line" smooth="yes"/>
      <point x="558" y="256"/>
      <point x="597" y="256"/>
      <point x="597" y="297" type="curve" smooth="yes"/>
      <point x="597" y="300"/>
      <point x="597" y="305"/>
      <point x="596" y="309" type="curve"/>
    </contour>
  </outline>
</glyph>
<glyph name="greater" format="1">
  <advance width="634"/>
  <unicode hex="003E"/>
  <outline>
    <contour>
      <point x="142" y="68" type="curve" smooth="yes"/>
      <point x="215" y="68"/>
      <point x="569" y="213"/>
      <point x="569" y="282" type="curve" smooth="yes"/>
      <point x="569" y="358"/>
      <point x="181" y="515"/>
      <point x="121" y="515" type="curve" smooth="yes"/>
      <point x="112" y="515"/>
      <point x="97" y="512"/>
      <point x="97" y="492" type="curve"/>
      <point x="219" y="455"/>
      <point x="497" y="334"/>
      <point x="497" y="289" type="curve" smooth="yes"/>
      <point x="497" y="263"/>
      <point x="255" y="149"/>
      <point x="90" y="116" type="curve"/>
      <point x="90" y="83"/>
      <point x="111" y="68"/>
    </contour>
  </outline>
</glyph>
<glyph name="A" format="1">
  <advance width="632"/>
  <unicode hex="0041"/>
  <outline>
    <contour>
      <point x="500" y="177" type="line"/>
      <point x="483" y="228" type="line"/>
      <point x="153" y="228" type="line"/>
      <point x="133" y="177" type="line"/>
    </contour>
    <contour>
      <point x="349" y="672" type="line" smooth="yes"/>
      <point x="337" y="704"/>
      <point x="322" y="719"/>
      <point x="299" y="719" type="curve" smooth="yes"/>
      <point x="283" y="719"/>
      <point x="270" y="712"/>
      <point x="259" y="700" type="curve"/>
      <point x="271" y="691"/>
      <point x="278" y="677"/>
      <point x="285" y="660" type="curve"/>
      <point x="47" y="52" type="line" smooth="yes"/>
      <point x="40" y="34"/>
      <point x="33" y="24"/>
      <point x="18" y="19" type="curve"/>
      <point x="22" y="3"/>
      <point x="38" y="-7"/>
      <point x="57" y="-7" type="curve" smooth="yes"/>
      <point x="84" y="-7"/>
      <point x="98" y="8"/>
      <point x="112" y="46" type="curve" smooth="yes"/>
      <point x="328" y="640" type="line"/>
      <point x="300" y="619" type="line"/>
      <point x="517" y="45" type="line" smooth="yes"/>
      <point x="531" y="8"/>
      <point x="545" y="-7"/>
      <point x="571" y="-7" type="curve" smooth="yes"/>
      <point x="590" y="-7"/>
      <point x="607" y="4"/>
      <point x="614" y="19" type="curve"/>
      <point x="600" y="23"/>
      <point x="591" y="33"/>
      <point x="582" y="56" type="curve" smooth="yes"/>
    </contour>
    <contour>
      <point x="604" y="10" type="move" name="ogonek"/>
    </contour>
    <contour>
      <point x="319" y="712" type="move" name="top"/>
    </contour>
  </outline>
</glyph>
<glyph name="D" format="1">
  <advance width="700"/>
  <unicode hex="0044"/>
  <outline>
    <contour>
      <point x="163" y="651" type="line"/>
      <point x="213" y="665"/>
      <point x="243" y="666"/>
      <point x="290" y="666" type="curve" smooth="yes"/>
      <point x="441" y="666"/>
      <point x="593" y="574"/>
      <point x="593" y="355" type="curve" smooth="yes"/>
      <point x="593" y="134"/>
      <point x="441" y="42"/>
      <point x="290" y="42" type="curve" smooth="yes"/>
      <point x="162" y="42"/>
      <point x="160" y="63"/>
      <point x="160" y="105" type="curve" smooth="yes"/>
    </contour>
    <contour>
      <point x="664" y="355" type="curve" smooth="yes"/>
      <point x="664" y="617"/>
      <point x="466" y="720"/>
      <point x="290" y="720" type="curve" smooth="yes"/>
      <point x="215" y="720"/>
      <point x="148" y="711"/>
      <point x="85" y="689" type="curve"/>
      <point x="94" y="679"/>
      <point x="97" y="666"/>
      <point x="97" y="647" type="curve" smooth="yes"/>
      <point x="95" y="102" type="line" smooth="yes"/>
      <point x="95" y="40"/>
      <point x="118" y="-8"/>
      <point x="290" y="-8" type="curve" smooth="yes"/>
      <point x="466" y="-8"/>
      <point x="664" y="94"/>
    </contour>
    <contour>
      <point x="350" y="700" type="move" name="top"/>
    </contour>
  </outline>
</glyph>
<glyph name="E" format="1">
  <advance width="620"/>
  <unicode hex="0045"/>
  <outline>
    <contour>
      <point x="534" y="28" type="move" name="ogonek"/>
    </contour>
    <contour>
      <point x="310" y="0" type="move" name="bottom"/>
    </contour>
    <contour>
      <point x="307" y="712" type="move" name="top"/>
    </contour>
    <contour>
      <point x="472" y="712" type="curve"/>
      <point x="161" y="712" type="line" smooth="yes"/>
      <point x="118" y="712"/>
      <point x="99" y="702"/>
      <point x="84" y="678" type="curve"/>
      <point x="99" y="672"/>
      <point x="107" y="666"/>
      <point x="107" y="646" type="curve" smooth="yes"/>
      <point x="107" y="120" type="line" smooth="yes"/>
      <point x="107" y="32"/>
      <point x="154" y="0"/>
      <point x="247" y="0" type="curve" smooth="yes"/>
      <point x="454" y="0" type="line" smooth="yes"/>
      <point x="532" y="0"/>
      <point x="560" y="24"/>
      <point x="560" y="58" type="curve" smooth="yes"/>
      <point x="560" y="72"/>
      <point x="548" y="89"/>
      <point x="531" y="93" type="curve"/>
      <point x="517" y="64"/>
      <point x="495" y="51"/>
      <point x="458" y="51" type="curve" smooth="yes"/>
      <point x="245" y="51" type="line" smooth="yes"/>
      <point x="191" y="51"/>
      <point x="171" y="70"/>
      <point x="171" y="118" type="curve" smooth="yes"/>
      <point x="171" y="660" type="line"/>
      <point x="458" y="660" type="line" smooth="yes"/>
      <point x="495" y="660"/>
      <point x="515" y="653"/>
      <point x="531" y="633" type="curve"/>
      <point x="548" y="637"/>
      <point x="560" y="650"/>
      <point x="560" y="668" type="curve" smooth="yes"/>
      <point x="560" y="695"/>
      <point x="532" y="712"/>
    </contour>
    <contour>
      <point x="402" y="391" type="curve"/>
      <point x="151" y="391" type="line"/>
      <point x="151" y="339" type="line"/>
      <point x="395" y="339" type="line" smooth="yes"/>
      <point x="430" y="339"/>
      <point x="452" y="335"/>
      <point x="468" y="324" type="curve"/>
      <point x="481" y="330"/>
      <point x="491" y="341"/>
      <point x="491" y="359" type="curve" smooth="yes"/>
      <point x="491" y="385"/>
      <point x="463" y="391"/>
    </contour>
  </outline>
</glyph>
<glyph name="I" format="1">
  <advance width="253"/>
  <unicode hex="0049"/>
  <outline>
    <contour>
      <point x="189" y="12" type="move" name="ogonek"/>
    </contour>
    <contour>
      <point x="126" y="712" type="move" name="top"/>
    </contour>
    <contour>
      <point x="156" y="51" type="curve"/>
      <point x="156" y="663" type="line" smooth="yes"/>
      <point x="156" y="700"/>
      <point x="140" y="720"/>
      <point x="111" y="720" type="curve" smooth="yes"/>
      <point x="93" y="720"/>
      <point x="77" y="707"/>
      <point x="69" y="691" type="curve"/>
      <point x="84" y="686"/>
      <point x="92" y="679"/>
      <point x="92" y="660" type="curve" smooth="yes"/>
      <point x="92" y="49" type="line" smooth="yes"/>
      <point x="92" y="12"/>
      <point x="107" y="-8"/>
      <point x="136" y="-8" type="curve" smooth="yes"/>
      <point x="154" y="-8"/>
      <point x="170" y="5"/>
      <point x="179" y="21" type="curve"/>
      <point x="164" y="26"/>
      <point x="156" y="33"/>
    </contour>
  </outline>
</glyph>
<glyph name="J" format="1">
  <advance width="377"/>
  <unicode hex="004A"/>
  <outline>
    <contour>
      <point x="150" y="-7" type="curve" smooth="yes"/>
      <point x="71" y="-7"/>
      <point x="30" y="22"/>
      <point x="30" y="52" type="curve" smooth="yes"/>
      <point x="30" y="62"/>
      <point x="32" y="70"/>
      <point x="38" y="77" type="curve"/>
      <point x="66" y="59"/>
      <point x="98" y="48"/>
      <point x="143" y="48" type="curve" smooth="yes"/>
      <point x="199" y="48"/>
      <point x="227" y="73"/>
      <point x="227" y="133" type="curve" smooth="yes"/>
      <point x="227" y="660" type="line" smooth="yes"/>
      <point x="227" y="679"/>
      <point x="220" y="686"/>
      <point x="204" y="691" type="curve"/>
      <point x="213" y="707"/>
      <point x="229" y="720"/>
      <point x="247" y="720" type="curve" smooth="yes"/>
      <point x="275" y="720"/>
      <point x="291" y="700"/>
      <point x="291" y="663" type="curve" smooth="yes"/>
      <point x="291" y="134" type="line" smooth="yes"/>
      <point x="291" y="43"/>
      <point x="235" y="-7"/>
    </contour>
  </outline>
</glyph>
<glyph name="K" format="1">
  <advance width="610"/>
  <unicode hex="004B"/>
  <outline>
    <contour>
      <point x="156" y="51" type="curve" smooth="yes"/>
      <point x="156" y="663" type="line" smooth="yes"/>
      <point x="156" y="700"/>
      <point x="140" y="720"/>
      <point x="111" y="720" type="curve" smooth="yes"/>
      <point x="93" y="720"/>
      <point x="77" y="707"/>
      <point x="69" y="691" type="curve"/>
      <point x="84" y="686"/>
      <point x="92" y="679"/>
      <point x="92" y="660" type="curve" smooth="yes"/>
      <point x="92" y="49" type="line" smooth="yes"/>
      <point x="92" y="12"/>
      <point x="107" y="-8"/>
      <point x="136" y="-8" type="curve" smooth="yes"/>
      <point x="154" y="-8"/>
      <point x="170" y="5"/>
      <point x="179" y="21" type="curve"/>
      <point x="164" y="26"/>
      <point x="156" y="33"/>
    </contour>
    <contour>
      <point x="566" y="673" type="curve"/>
      <point x="562" y="701"/>
      <point x="545" y="719"/>
      <point x="516" y="719" type="curve" smooth="yes"/>
      <point x="490" y="719"/>
      <point x="470" y="707"/>
      <point x="438" y="672" type="curve" smooth="yes"/>
      <point x="148" y="354" type="line"/>
      <point x="148" y="342" type="line"/>
      <point x="395" y="76" type="line" smooth="yes"/>
      <point x="457" y="9"/>
      <point x="476" y="-8"/>
      <point x="514" y="-7" type="curve" smooth="yes"/>
      <point x="542" y="-6"/>
      <point x="559" y="22"/>
      <point x="559" y="51" type="curve"/>
      <point x="517" y="46"/>
      <point x="499" y="61"/>
      <point x="446" y="114" type="curve" smooth="yes"/>
      <point x="187" y="371" type="line"/>
      <point x="187" y="338" type="line"/>
      <point x="486" y="630" type="line" smooth="yes"/>
      <point x="514" y="658"/>
      <point x="539" y="673"/>
    </contour>
    <contour>
      <point x="305" y="700" type="move" name="top"/>
    </contour>
    <contour>
      <point x="314" y="0" type="move" name="bottom"/>
    </contour>
  </outline>
</glyph>
<glyph name="M" format="1">
  <advance width="952"/>
  <unicode hex="004D"/>
  <outline>
    <contour>
      <point x="806" y="661" type="line"/>
      <point x="805" y="680"/>
      <point x="810" y="696"/>
      <point x="821" y="704" type="curve"/>
      <point x="807" y="713"/>
      <point x="797" y="720"/>
      <point x="779" y="720" type="curve" smooth="yes"/>
      <point x="753" y="720"/>
      <point x="726" y="701"/>
      <point x="708" y="661" type="curve" smooth="yes"/>
      <point x="451" y="58" type="line"/>
      <point x="494" y="58" type="line"/>
      <point x="247" y="661" type="line" smooth="yes"/>
      <point x="231" y="699"/>
      <point x="202" y="720"/>
      <point x="173" y="720" type="curve" smooth="yes"/>
      <point x="155" y="720"/>
      <point x="148" y="713"/>
      <point x="136" y="704" type="curve"/>
      <point x="144" y="696"/>
      <point x="150" y="680"/>
      <point x="149" y="660" type="curve" smooth="yes"/>
      <point x="104" y="54" type="line" smooth="yes"/>
      <point x="102" y="33"/>
      <point x="100" y="16"/>
      <point x="89" y="8" type="curve"/>
      <point x="98" y="0"/>
      <point x="110" y="-8"/>
      <point x="125" y="-8" type="curve" smooth="yes"/>
      <point x="154" y="-8"/>
      <point x="166" y="11"/>
      <point x="170" y="54" type="curve" smooth="yes"/>
      <point x="213" y="654" type="line"/>
      <point x="190" y="651" type="line"/>
      <point x="441" y="33" type="line" smooth="yes"/>
      <point x="446" y="18"/>
      <point x="457" y="12"/>
      <point x="472" y="12" type="curve" smooth="yes"/>
      <point x="488" y="12"/>
      <point x="498" y="19"/>
      <point x="503" y="33" type="curve" smooth="yes"/>
      <point x="764" y="650" type="line"/>
      <point x="740" y="655" type="line"/>
      <point x="784" y="51" type="line" smooth="yes"/>
      <point x="790" y="11"/>
      <point x="800" y="-8"/>
      <point x="829" y="-8" type="curve" smooth="yes"/>
      <point x="844" y="-8"/>
      <point x="856" y="-1"/>
      <point x="866" y="8" type="curve"/>
      <point x="855" y="17"/>
      <point x="853" y="34"/>
      <point x="852" y="54" type="curve" smooth="yes"/>
    </contour>
  </outline>
</glyph>
<glyph name="N" format="1">
  <advance width="745"/>
  <unicode hex="004E"/>
  <outline>
    <contour>
      <point x="373" y="712" type="move" name="top"/>
    </contour>
    <contour>
      <point x="383" y="0" type="move" name="bottom"/>
    </contour>
    <contour>
      <point x="211" y="658" type="curve" smooth="yes"/>
      <point x="572" y="94" type="line"/>
      <point x="572" y="660" type="line" smooth="yes"/>
      <point x="572" y="679"/>
      <point x="563" y="686"/>
      <point x="549" y="691" type="curve"/>
      <point x="557" y="707"/>
      <point x="573" y="720"/>
      <point x="592" y="720" type="curve" smooth="yes"/>
      <point x="620" y="720"/>
      <point x="636" y="700"/>
      <point x="636" y="663" type="curve" smooth="yes"/>
      <point x="636" y="51" type="line" smooth="yes"/>
      <point x="636" y="33"/>
      <point x="644" y="27"/>
      <point x="660" y="22" type="curve"/>
      <point x="651" y="5"/>
      <point x="638" y="-8"/>
      <point x="616" y="-8" type="curve" smooth="yes"/>
      <point x="587" y="-8"/>
      <point x="563" y="14"/>
      <point x="534" y="56" type="curve" smooth="yes"/>
      <point x="171" y="611" type="line"/>
      <point x="171" y="51" type="line" smooth="yes"/>
      <point x="171" y="33"/>
      <point x="179" y="26"/>
      <point x="194" y="21" type="curve"/>
      <point x="186" y="5"/>
      <point x="171" y="-8"/>
      <point x="152" y="-8" type="curve" smooth="yes"/>
      <point x="124" y="-8"/>
      <point x="108" y="12"/>
      <point x="108" y="49" type="curve" smooth="yes"/>
      <point x="108" y="660" type="line" smooth="yes"/>
      <point x="108" y="679"/>
      <point x="100" y="686"/>
      <point x="85" y="691" type="curve"/>
      <point x="94" y="707"/>
      <point x="108" y="720"/>
      <point x="126" y="720" type="curve" smooth="yes"/>
      <point x="165" y="720"/>
      <point x="185" y="698"/>
    </contour>
  </outline>
</glyph>
<glyph name="O" format="1">
  <advance width="761"/>
  <unicode hex="004F"/>
  <outline>
    <contour>
      <point x="382" y="712" type="move" name="top"/>
    </contour>
    <contour>
      <point x="687" y="357" type="curve" smooth="yes"/>
      <point x="687" y="132"/>
      <point x="557" y="-8"/>
      <point x="382" y="-8" type="curve" smooth="yes"/>
      <point x="204" y="-8"/>
      <point x="74" y="128"/>
      <point x="74" y="357" type="curve" smooth="yes"/>
      <point x="74" y="582"/>
      <point x="204" y="720"/>
      <point x="382" y="720" type="curve" smooth="yes"/>
      <point x="557" y="720"/>
      <point x="687" y="587"/>
    </contour>
    <contour>
      <point x="403" y="47" type="curve" smooth="yes"/>
      <point x="533" y="47"/>
      <point x="639" y="173"/>
      <point x="622" y="375" type="curve" smooth="yes"/>
      <point x="607" y="578"/>
      <point x="488" y="666"/>
      <point x="358" y="666" type="curve" smooth="yes"/>
      <point x="229" y="666"/>
      <point x="122" y="539"/>
      <point x="140" y="335" type="curve" smooth="yes"/>
      <point x="158" y="133"/>
      <point x="275" y="47"/>
    </contour>
  </outline>
</glyph>
<glyph name="Q" format="1">
  <advance width="756"/>
  <unicode hex="0051"/>
  <outline>
    <contour>
      <point x="696" y="401" type="curve" smooth="yes"/>
      <point x="696" y="138"/>
      <point x="522" y="15"/>
      <point x="336" y="-25" type="curve"/>
      <point x="405" y="-109"/>
      <point x="517" y="-156"/>
      <point x="589" y="-156" type="curve" smooth="yes"/>
      <point x="634" y="-156"/>
      <point x="673" y="-141"/>
      <point x="702" y="-113" type="curve"/>
      <point x="726" y="-146"/>
      <point x="700" y="-222"/>
      <point x="584" y="-222" type="curve" smooth="yes"/>
      <point x="450" y="-222"/>
      <point x="282" y="-80"/>
      <point x="282" y="-9" type="curve" smooth="yes"/>
      <point x="282" y="7"/>
      <point x="296" y="18"/>
      <point x="360" y="34" type="curve" smooth="yes"/>
      <point x="498" y="67"/>
      <point x="622" y="175"/>
      <point x="622" y="395" type="curve" smooth="yes"/>
      <point x="622" y="572"/>
      <point x="519" y="669"/>
      <point x="377" y="669" type="curve" smooth="yes"/>
      <point x="255" y="669"/>
      <point x="162" y="560"/>
      <point x="162" y="401" type="curve" smooth="yes"/>
      <point x="162" y="260"/>
      <point x="227" y="168"/>
      <point x="318" y="168" type="curve" smooth="yes"/>
      <point x="324" y="168"/>
      <point x="329" y="168"/>
      <point x="335" y="169" type="curve"/>
      <point x="335" y="167"/>
      <point x="335" y="165"/>
      <point x="335" y="162" type="curve" smooth="yes"/>
      <point x="335" y="135"/>
      <point x="318" y="114"/>
      <point x="281" y="114" type="curve" smooth="yes"/>
      <point x="181" y="114"/>
      <point x="90" y="230"/>
      <point x="90" y="374" type="curve" smooth="yes"/>
      <point x="90" y="574"/>
      <point x="227" y="720"/>
      <point x="391" y="720" type="curve" smooth="yes"/>
      <point x="567" y="720"/>
      <point x="696" y="589"/>
    </contour>
  </outline>
</glyph>
<glyph name="R" format="1">
  <advance width="618"/>
  <unicode hex="0052"/>
  <outline>
    <contour>
      <point x="309" y="700" type="move" name="top"/>
    </contour>
    <contour>
      <point x="325" y="0" type="move" name="bottom"/>
    </contour>
    <contour>
      <point x="531" y="66" type="line" smooth="yes"/>
      <point x="547" y="45"/>
      <point x="560" y="36"/>
      <point x="584" y="37" type="curve"/>
      <point x="574" y="10"/>
      <point x="555" y="-7"/>
      <point x="533" y="-7" type="curve" smooth="yes"/>
      <point x="500" y="-7"/>
      <point x="486" y="10"/>
      <point x="452" y="55" type="curve" smooth="yes"/>
      <point x="250" y="333" type="line"/>
      <point x="329" y="332" type="line"/>
    </contour>
    <contour>
      <point x="569" y="506" type="curve" smooth="yes"/>
      <point x="569" y="376"/>
      <point x="475" y="300"/>
      <point x="321" y="300" type="curve" smooth="yes"/>
      <point x="175" y="300" type="line"/>
      <point x="175" y="51" type="line" smooth="yes"/>
      <point x="175" y="33"/>
      <point x="182" y="26"/>
      <point x="198" y="21" type="curve"/>
      <point x="189" y="5"/>
      <point x="174" y="-8"/>
      <point x="155" y="-8" type="curve" smooth="yes"/>
      <point x="127" y="-8"/>
      <point x="111" y="12"/>
      <point x="111" y="49" type="curve" smooth="yes"/>
      <point x="111" y="646" type="line" smooth="yes"/>
      <point x="111" y="666"/>
      <point x="103" y="672"/>
      <point x="88" y="678" type="curve"/>
      <point x="103" y="702"/>
      <point x="122" y="712"/>
      <point x="165" y="712" type="curve" smooth="yes"/>
      <point x="321" y="712" type="line" smooth="yes"/>
      <point x="475" y="712"/>
      <point x="569" y="636"/>
    </contour>
    <contour>
      <point x="174" y="658" type="line"/>
      <point x="174" y="353" type="line"/>
      <point x="322" y="353" type="line" smooth="yes"/>
      <point x="443" y="353"/>
      <point x="499" y="412"/>
      <point x="499" y="505" type="curve" smooth="yes"/>
      <point x="499" y="597"/>
      <point x="443" y="658"/>
      <point x="322" y="658" type="curve" smooth="yes"/>
    </contour>
  </outline>
</glyph>
<glyph name="S" format="1">
  <advance width="628"/>
  <unicode hex="0053"/>
  <outline>
    <contour>
      <point x="315" y="712" type="move" name="top"/>
    </contour>
    <contour>
      <point x="315" y="0" type="move" name="bottom"/>
    </contour>
    <contour>
      <point x="534" y="586" type="curve" smooth="yes"/>
      <point x="534" y="658"/>
      <point x="450" y="725"/>
      <point x="311" y="725" type="curve" smooth="yes"/>
      <point x="201" y="725"/>
      <point x="86" y="652"/>
      <point x="86" y="544" type="curve" smooth="yes"/>
      <point x="86" y="327"/>
      <point x="495" y="338"/>
      <point x="495" y="186" type="curve" smooth="yes"/>
      <point x="495" y="108"/>
      <point x="401" y="46"/>
      <point x="304" y="46" type="curve" smooth="yes"/>
      <point x="194" y="46"/>
      <point x="137" y="98"/>
      <point x="137" y="158" type="curve" smooth="yes"/>
      <point x="137" y="182"/>
      <point x="147" y="199"/>
      <point x="160" y="211" type="curve"/>
      <point x="152" y="226"/>
      <point x="139" y="232"/>
      <point x="120" y="232" type="curve" smooth="yes"/>
      <point x="88" y="232"/>
      <point x="65" y="204"/>
      <point x="65" y="165" type="curve" smooth="yes"/>
      <point x="65" y="65"/>
      <point x="166" y="-8"/>
      <point x="304" y="-8" type="curve" smooth="yes"/>
      <point x="443" y="-8"/>
      <point x="560" y="80"/>
      <point x="560" y="197" type="curve" smooth="yes"/>
      <point x="560" y="381"/>
      <point x="151" y="377"/>
      <point x="151" y="552" type="curve" smooth="yes"/>
      <point x="151" y="630"/>
      <point x="214" y="672"/>
      <point x="307" y="672" type="curve" smooth="yes"/>
      <point x="415" y="672"/>
      <point x="462" y="607"/>
      <point x="462" y="563" type="curve" smooth="yes"/>
      <point x="462" y="555"/>
      <point x="461" y="546"/>
      <point x="459" y="535" type="curve"/>
      <point x="467" y="534"/>
      <point x="476" y="531"/>
      <point x="486" y="531" type="curve" smooth="yes"/>
      <point x="516" y="531"/>
      <point x="534" y="552"/>
    </contour>
  </outline>
</glyph>
<glyph name="T" format="1">
  <advance width="523"/>
  <unicode hex="0054"/>
  <outline>
    <contour>
      <point x="269" y="0" type="move" name="bottom"/>
    </contour>
    <contour>
      <point x="262" y="700" type="move" name="top"/>
    </contour>
    <contour>
      <point x="292" y="683" type="line"/>
      <point x="292" y="51" type="line" smooth="yes"/>
      <point x="292" y="33"/>
      <point x="301" y="26"/>
      <point x="315" y="21" type="curve"/>
      <point x="307" y="5"/>
      <point x="292" y="-8"/>
      <point x="274" y="-8" type="curve" smooth="yes"/>
      <point x="244" y="-8"/>
      <point x="228" y="12"/>
      <point x="228" y="49" type="curve" smooth="yes"/>
      <point x="228" y="683" type="line"/>
    </contour>
    <contour>
      <point x="467" y="712" type="line"/>
      <point x="503" y="712"/>
      <point x="512" y="695"/>
      <point x="512" y="676" type="curve" smooth="yes"/>
      <point x="512" y="664"/>
      <point x="505" y="651"/>
      <point x="499" y="645" type="curve"/>
      <point x="490" y="651"/>
      <point x="469" y="658"/>
      <point x="446" y="658" type="curve" smooth="yes"/>
      <point x="55" y="658" type="line" smooth="yes"/>
      <point x="21" y="658"/>
      <point x="11" y="674"/>
      <point x="11" y="694" type="curve" smooth="yes"/>
      <point x="11" y="705"/>
      <point x="17" y="718"/>
      <point x="24" y="724" type="curve"/>
      <point x="39" y="716"/>
      <point x="55" y="712"/>
      <point x="77" y="712" type="curve" smooth="yes"/>
    </contour>
  </outline>
</glyph>
<glyph name="W" format="1">
  <advance width="953"/>
  <unicode hex="0057"/>
  <outline>
    <contour>
      <point x="118" y="659" type="curve" smooth="yes"/>
      <point x="303" y="15" type="line"/>
      <point x="278" y="25" type="line"/>
      <point x="362" y="146"/>
      <point x="434" y="368"/>
      <point x="475" y="577" type="curve"/>
      <point x="513" y="530" type="line"/>
      <point x="492" y="358"/>
      <point x="353" y="-7"/>
      <point x="287" y="-7" type="curve" smooth="yes"/>
      <point x="261" y="-7"/>
      <point x="247" y="2"/>
      <point x="237" y="34" type="curve" smooth="yes"/>
      <point x="57" y="639" type="line" smooth="yes"/>
      <point x="49" y="666"/>
      <point x="38" y="677"/>
      <point x="20" y="683" type="curve"/>
      <point x="28" y="707"/>
      <point x="48" y="720"/>
      <point x="68" y="720" type="curve" smooth="yes"/>
      <point x="90" y="720"/>
      <point x="104" y="706"/>
    </contour>
    <contour>
      <point x="485" y="660" type="curve" smooth="yes"/>
      <point x="663" y="14" type="line"/>
      <point x="638" y="29" type="line"/>
      <point x="763" y="129"/>
      <point x="826" y="395"/>
      <point x="826" y="532" type="curve" smooth="yes"/>
      <point x="826" y="618"/>
      <point x="804" y="692"/>
      <point x="787" y="701" type="curve"/>
      <point x="798" y="713"/>
      <point x="815" y="720"/>
      <point x="830" y="720" type="curve" smooth="yes"/>
      <point x="874" y="720"/>
      <point x="893" y="651"/>
      <point x="893" y="562" type="curve" smooth="yes"/>
      <point x="893" y="337"/>
      <point x="737" y="-7"/>
      <point x="645" y="-7" type="curve" smooth="yes"/>
      <point x="619" y="-7"/>
      <point x="606" y="3"/>
      <point x="597" y="34" type="curve" smooth="yes"/>
      <point x="425" y="639" type="line" smooth="yes"/>
      <point x="417" y="666"/>
      <point x="406" y="677"/>
      <point x="388" y="683" type="curve"/>
      <point x="396" y="707"/>
      <point x="416" y="720"/>
      <point x="436" y="720" type="curve" smooth="yes"/>
      <point x="458" y="720"/>
      <point x="472" y="707"/>
    </contour>
  </outline>
</glyph>
<glyph name="Y" format="1">
  <advance width="580"/>
  <unicode hex="0059"/>
  <outline>
    <contour>
      <point x="310" y="712" type="move" name="top"/>
    </contour>
    <contour>
      <point x="129" y="680" type="line" smooth="yes"/>
      <point x="114" y="707"/>
      <point x="94" y="720"/>
      <point x="69" y="720" type="curve" smooth="yes"/>
      <point x="48" y="720"/>
      <point x="25" y="705"/>
      <point x="18" y="679" type="curve"/>
      <point x="43" y="678"/>
      <point x="63" y="663"/>
      <point x="77" y="642" type="curve" smooth="yes"/>
      <point x="259" y="317" type="line"/>
      <point x="258" y="54" type="line" smooth="yes"/>
      <point x="258" y="11"/>
      <point x="275" y="-8"/>
      <point x="302" y="-8" type="curve" smooth="yes"/>
      <point x="319" y="-8"/>
      <point x="331" y="-1"/>
      <point x="340" y="8" type="curve"/>
      <point x="329" y="17"/>
      <point x="322" y="32"/>
      <point x="322" y="51" type="curve" smooth="yes"/>
      <point x="323" y="320" type="line"/>
      <point x="540" y="650" type="line" smooth="yes"/>
      <point x="546" y="663"/>
      <point x="551" y="675"/>
      <point x="551" y="686" type="curve" smooth="yes"/>
      <point x="551" y="706"/>
      <point x="540" y="720"/>
      <point x="518" y="720" type="curve" smooth="yes"/>
      <point x="499" y="720"/>
      <point x="485" y="717"/>
      <point x="475" y="711" type="curve"/>
      <point x="487" y="699"/>
      <point x="486" y="681"/>
      <point x="470" y="657" type="curve" smooth="yes"/>
      <point x="279" y="349" type="line"/>
      <point x="310" y="349" type="line"/>
    </contour>
  </outline>
</glyph>
<glyph name="Z" format="1">
  <advance width="592"/>
  <unicode hex="005A"/>
  <outline>
    <contour>
      <point x="490" y="712" type="curve"/>
      <point x="183" y="712" type="line" smooth="yes"/>
      <point x="137" y="712"/>
      <point x="107" y="717"/>
      <point x="85" y="726" type="curve"/>
      <point x="76" y="720"/>
      <point x="70" y="710"/>
      <point x="70" y="700" type="curve" smooth="yes"/>
      <point x="70" y="683"/>
      <point x="83" y="654"/>
      <point x="189" y="654" type="curve" smooth="yes"/>
      <point x="274" y="654"/>
      <point x="386" y="660"/>
      <point x="495" y="669" type="curve"/>
      <point x="484" y="684" type="line"/>
      <point x="82" y="92" type="line" smooth="yes"/>
      <point x="66" y="68"/>
      <point x="56" y="53"/>
      <point x="56" y="42" type="curve" smooth="yes"/>
      <point x="56" y="20"/>
      <point x="71" y="0"/>
      <point x="104" y="0" type="curve" smooth="yes"/>
      <point x="419" y="0" type="line" smooth="yes"/>
      <point x="523" y="0"/>
      <point x="537" y="30"/>
      <point x="537" y="47" type="curve" smooth="yes"/>
      <point x="537" y="58"/>
      <point x="531" y="70"/>
      <point x="521" y="79" type="curve"/>
      <point x="501" y="65"/>
      <point x="468" y="57"/>
      <point x="424" y="56" type="curve" smooth="yes"/>
      <point x="68" y="43" type="line"/>
      <point x="104" y="18" type="line"/>
      <point x="511" y="618" type="line" smooth="yes"/>
      <point x="527" y="642"/>
      <point x="537" y="659"/>
      <point x="537" y="670" type="curve" smooth="yes"/>
      <point x="537" y="692"/>
      <point x="522" y="712"/>
    </contour>
    <contour>
      <point x="296" y="712" type="move" name="top"/>
    </contour>
  </outline>
</glyph>
<glyph name="asciicircum" format="1">
  <advance width="527"/>
  <unicode hex="005E"/>
  <outline>
    <contour>
      <point x="281" y="631" type="line" smooth="yes"/>
      <point x="275" y="645"/>
      <point x="265" y="650"/>
      <point x="253" y="650" type="curve" smooth="yes"/>
      <point x="242" y="650"/>
      <point x="229" y="643"/>
      <point x="219" y="626" type="curve" smooth="yes"/>
      <point x="62" y="341" type="line" smooth="yes"/>
      <point x="49" y="317"/>
      <point x="44" y="297"/>
      <point x="44" y="280" type="curve" smooth="yes"/>
      <point x="44" y="252"/>
      <point x="61" y="238"/>
      <point x="81" y="238" type="curve"/>
      <point x="278" y="616" type="line"/>
      <point x="229" y="618" type="line"/>
      <point x="412" y="277" type="line" smooth="yes"/>
      <point x="424" y="253"/>
      <point x="439" y="241"/>
      <point x="456" y="241" type="curve" smooth="yes"/>
      <point x="464" y="241"/>
      <point x="474" y="244"/>
      <point x="483" y="253" type="curve"/>
    </contour>
  </outline>
</glyph>
<glyph name="underscore" format="1">
  <advance width="566"/>
  <unicode hex="005F"/>
  <outline>
    <contour>
      <point x="54" y="-90" type="line"/>
      <point x="37" y="-90"/>
      <point x="-2" y="-90"/>
      <point x="-2" y="-129" type="curve" smooth="yes"/>
      <point x="-2" y="-134"/>
      <point x="-1" y="-139"/>
      <point x="0" y="-143" type="curve"/>
      <point x="509" y="-143" type="line" smooth="yes"/>
      <point x="527" y="-143"/>
      <point x="566" y="-143"/>
      <point x="566" y="-103" type="curve" smooth="yes"/>
      <point x="566" y="-98"/>
      <point x="565" y="-93"/>
      <point x="565" y="-90" type="curve"/>
    </contour>
  </outline>
</glyph>
<glyph name="grave" format="1">
  <advance width="223"/>
  <unicode hex="0060"/>
  <outline>
    <contour>
      <point x="184" y="503" type="move" name="_top"/>
    </contour>
    <contour>
      <point x="67" y="686" type="curve" smooth="yes"/>
      <point x="166" y="584" type="line" smooth="yes"/>
      <point x="190" y="557"/>
      <point x="207" y="569"/>
      <point x="211" y="580" type="curve"/>
      <point x="117" y="719" type="line" smooth="yes"/>
      <point x="97" y="749"/>
      <point x="81" y="760"/>
      <point x="60" y="760" type="curve" smooth="yes"/>
      <point x="28" y="760"/>
      <point x="9" y="738"/>
      <point x="12" y="701" type="curve"/>
      <point x="32" y="707"/>
      <point x="48" y="705"/>
    </contour>
  </outline>
</glyph>
<glyph name="b" format="1">
  <advance width="568"/>
  <unicode hex="0062"/>
  <outline>
    <contour>
      <point x="155" y="698" type="line" smooth="yes"/>
      <point x="155" y="735"/>
      <point x="139" y="754"/>
      <point x="111" y="754" type="curve" smooth="yes"/>
      <point x="92" y="754"/>
      <point x="77" y="742"/>
      <point x="68" y="726" type="curve"/>
      <point x="84" y="720"/>
      <point x="91" y="714"/>
      <point x="91" y="694" type="curve" smooth="yes"/>
      <point x="89" y="156" type="line" smooth="yes"/>
      <point x="89" y="45"/>
      <point x="165" y="-7"/>
      <point x="285" y="-7" type="curve" smooth="yes"/>
      <point x="411" y="-7"/>
      <point x="524" y="107"/>
      <point x="524" y="258" type="curve" smooth="yes"/>
      <point x="524" y="429"/>
      <point x="431" y="512"/>
      <point x="313" y="512" type="curve" smooth="yes"/>
      <point x="241" y="512"/>
      <point x="180" y="471"/>
      <point x="145" y="414" type="curve"/>
      <point x="154" y="357" type="line"/>
      <point x="193" y="429"/>
      <point x="249" y="453"/>
      <point x="309" y="453" type="curve" smooth="yes"/>
      <point x="404" y="453"/>
      <point x="460" y="388"/>
      <point x="460" y="260" type="curve" smooth="yes"/>
      <point x="460" y="120"/>
      <point x="392" y="43"/>
      <point x="284" y="43" type="curve" smooth="yes"/>
      <point x="200" y="43"/>
      <point x="153" y="81"/>
      <point x="153" y="155" type="curve" smooth="yes"/>
    </contour>
  </outline>
</glyph>
<glyph name="c" format="1">
  <advance width="482"/>
  <unicode hex="0063"/>
  <outline>
    <contour>
      <point x="242" y="503" type="move" name="top"/>
    </contour>
    <contour>
      <point x="242" y="0" type="move" name="bottom"/>
    </contour>
    <contour>
      <point x="433" y="423" type="curve" smooth="yes"/>
      <point x="433" y="393"/>
      <point x="413" y="378"/>
      <point x="393" y="378" type="curve" smooth="yes"/>
      <point x="385" y="378"/>
      <point x="376" y="379"/>
      <point x="370" y="381" type="curve"/>
      <point x="373" y="388"/>
      <point x="373" y="395"/>
      <point x="373" y="402" type="curve" smooth="yes"/>
      <point x="373" y="438"/>
      <point x="349" y="464"/>
      <point x="290" y="464" type="curve" smooth="yes"/>
      <point x="211" y="464"/>
      <point x="117" y="398"/>
      <point x="117" y="246" type="curve" smooth="yes"/>
      <point x="117" y="111"/>
      <point x="197" y="51"/>
      <point x="278" y="51" type="curve" smooth="yes"/>
      <point x="331" y="51"/>
      <point x="384" y="71"/>
      <point x="416" y="101" type="curve"/>
      <point x="421" y="96"/>
      <point x="426" y="86"/>
      <point x="426" y="76" type="curve" smooth="yes"/>
      <point x="426" y="42"/>
      <point x="354" y="-8"/>
      <point x="270" y="-8" type="curve" smooth="yes"/>
      <point x="163" y="-8"/>
      <point x="50" y="72"/>
      <point x="50" y="229" type="curve" smooth="yes"/>
      <point x="50" y="404"/>
      <point x="170" y="512"/>
      <point x="303" y="512" type="curve" smooth="yes"/>
      <point x="389" y="512"/>
      <point x="433" y="468"/>
    </contour>
  </outline>
</glyph>
<glyph name="e" format="1">
  <advance width="477"/>
  <unicode hex="0065"/>
  <outline>
    <contour>
      <point x="367" y="23" type="move" name="ogonek"/>
    </contour>
    <contour>
      <point x="238" y="0" type="move" name="bottom"/>
    </contour>
    <contour>
      <point x="275" y="503" type="move" name="top"/>
    </contour>
    <contour>
      <point x="440" y="349" type="curve" smooth="yes"/>
      <point x="440" y="429"/>
      <point x="381" y="512"/>
      <point x="281" y="512" type="curve" smooth="yes"/>
      <point x="170" y="512"/>
      <point x="50" y="403"/>
      <point x="50" y="234" type="curve" smooth="yes"/>
      <point x="50" y="79"/>
      <point x="153" y="-8"/>
      <point x="281" y="-8" type="curve" smooth="yes"/>
      <point x="369" y="-8"/>
      <point x="435" y="38"/>
      <point x="435" y="74" type="curve" smooth="yes"/>
      <point x="435" y="85"/>
      <point x="431" y="92"/>
      <point x="423" y="97" type="curve"/>
      <point x="391" y="67"/>
      <point x="342" y="47"/>
      <point x="289" y="47" type="curve" smooth="yes"/>
      <point x="187" y="47"/>
      <point x="118" y="107"/>
      <point x="119" y="250" type="curve" smooth="yes"/>
      <point x="119" y="383"/>
      <point x="187" y="461"/>
      <point x="272" y="461" type="curve" smooth="yes"/>
      <point x="332" y="461"/>
      <point x="372" y="412"/>
      <point x="372" y="351" type="curve" smooth="yes"/>
      <point x="372" y="316"/>
      <point x="356" y="304"/>
      <point x="330" y="302" type="curve" smooth="yes"/>
      <point x="111" y="286" type="line"/>
      <point x="111" y="252" type="line"/>
      <point x="333" y="259" type="line" smooth="yes"/>
      <point x="409" y="261"/>
      <point x="440" y="291"/>
    </contour>
  </outline>
</glyph>
<glyph name="i" format="1">
  <advance width="254"/>
  <unicode hex="0069"/>
  <outline>
    <contour>
      <point x="192" y="12" type="move" name="ogonek"/>
    </contour>
    <contour>
      <point x="159" y="51" type="curve"/>
      <point x="159" y="455" type="line" smooth="yes"/>
      <point x="159" y="492"/>
      <point x="144" y="512"/>
      <point x="114" y="512" type="curve" smooth="yes"/>
      <point x="96" y="512"/>
      <point x="80" y="498"/>
      <point x="73" y="483" type="curve"/>
      <point x="87" y="478"/>
      <point x="96" y="470"/>
      <point x="96" y="452" type="curve" smooth="yes"/>
      <point x="96" y="49" type="line" smooth="yes"/>
      <point x="96" y="12"/>
      <point x="110" y="-8"/>
      <point x="140" y="-8" type="curve" smooth="yes"/>
      <point x="158" y="-8"/>
      <point x="173" y="5"/>
      <point x="182" y="21" type="curve"/>
      <point x="167" y="26"/>
      <point x="159" y="33"/>
    </contour>
    <contour>
      <point x="179" y="670" type="curve" smooth="yes"/>
      <point x="179" y="698"/>
      <point x="157" y="716"/>
      <point x="130" y="716" type="curve" smooth="yes"/>
      <point x="103" y="716"/>
      <point x="67" y="696"/>
      <point x="67" y="659" type="curve" smooth="yes"/>
      <point x="67" y="634"/>
      <point x="89" y="613"/>
      <point x="117" y="613" type="curve" smooth="yes"/>
      <point x="151" y="613"/>
      <point x="179" y="640"/>
    </contour>
  </outline>
</glyph>
<glyph name="j" format="1">
  <advance width="255"/>
  <unicode hex="006A"/>
  <outline>
    <contour>
      <point x="179" y="670" type="curve" smooth="yes"/>
      <point x="179" y="698"/>
      <point x="157" y="716"/>
      <point x="130" y="716" type="curve" smooth="yes"/>
      <point x="103" y="716"/>
      <point x="67" y="696"/>
      <point x="67" y="659" type="curve" smooth="yes"/>
      <point x="67" y="634"/>
      <point x="89" y="613"/>
      <point x="117" y="613" type="curve" smooth="yes"/>
      <point x="151" y="613"/>
      <point x="179" y="640"/>
    </contour>
    <contour>
      <point x="159" y="-137" type="curve"/>
      <point x="159" y="455" type="line"/>
      <point x="159" y="492"/>
      <point x="144" y="512"/>
      <point x="114" y="512" type="curve" smooth="yes"/>
      <point x="96" y="512"/>
      <point x="80" y="498"/>
      <point x="73" y="483" type="curve"/>
      <point x="87" y="478"/>
      <point x="96" y="470"/>
      <point x="96" y="452" type="curve"/>
      <point x="96" y="-120" type="line" smooth="yes"/>
      <point x="96" y="-178"/>
      <point x="76" y="-202"/>
      <point x="18" y="-202" type="curve"/>
      <point x="34" y="-230"/>
      <point x="59" y="-243"/>
      <point x="83" y="-243" type="curve" smooth="yes"/>
      <point x="124" y="-243"/>
      <point x="159" y="-209"/>
    </contour>
  </outline>
</glyph>
<glyph name="l" format="1">
  <advance width="254"/>
  <unicode hex="006C"/>
  <outline>
    <contour>
      <point x="159" y="51" type="curve"/>
      <point x="159" y="698" type="line" smooth="yes"/>
      <point x="159" y="735"/>
      <point x="144" y="754"/>
      <point x="114" y="754" type="curve" smooth="yes"/>
      <point x="96" y="754"/>
      <point x="80" y="742"/>
      <point x="73" y="726" type="curve"/>
      <point x="87" y="720"/>
      <point x="96" y="714"/>
      <point x="96" y="694" type="curve" smooth="yes"/>
      <point x="96" y="49" type="line" smooth="yes"/>
      <point x="96" y="12"/>
      <point x="110" y="-8"/>
      <point x="140" y="-8" type="curve" smooth="yes"/>
      <point x="158" y="-8"/>
      <point x="173" y="5"/>
      <point x="182" y="21" type="curve"/>
      <point x="167" y="26"/>
      <point x="159" y="33"/>
    </contour>
    <contour>
      <point x="127" y="734" type="move" name="top"/>
    </contour>
    <contour>
      <point x="138" y="0" type="move" name="bottom"/>
    </contour>
    <contour>
      <point x="214" y="700" type="move" name="topright"/>
    </contour>
  </outline>
</glyph>
<glyph name="o" format="1">
  <advance width="565"/>
  <unicode hex="006F"/>
  <outline>
    <contour>
      <point x="282" y="503" type="move" name="top"/>
    </contour>
    <contour>
      <point x="516" y="252" type="curve" smooth="yes"/>
      <point x="516" y="424"/>
      <point x="401" y="512"/>
      <point x="284" y="512" type="curve" smooth="yes"/>
      <point x="167" y="512"/>
      <point x="50" y="427"/>
      <point x="50" y="252" type="curve" smooth="yes"/>
      <point x="50" y="78"/>
      <point x="167" y="-8"/>
      <point x="284" y="-8" type="curve" smooth="yes"/>
      <point x="401" y="-8"/>
      <point x="516" y="78"/>
    </contour>
    <contour>
      <point x="121" y="252" type="curve" smooth="yes"/>
      <point x="116" y="402"/>
      <point x="184" y="461"/>
      <point x="277" y="461" type="curve" smooth="yes"/>
      <point x="369" y="461"/>
      <point x="440" y="402"/>
      <point x="445" y="252" type="curve" smooth="yes"/>
      <point x="450" y="103"/>
      <point x="384" y="42"/>
      <point x="291" y="42" type="curve" smooth="yes"/>
      <point x="199" y="42"/>
      <point x="126" y="103"/>
    </contour>
  </outline>
</glyph>
<glyph name="p" format="1">
  <advance width="572"/>
  <unicode hex="0070"/>
  <outline>
    <contour>
      <point x="524" y="252" type="curve" smooth="yes"/>
      <point x="524" y="423"/>
      <point x="425" y="512"/>
      <point x="310" y="512" type="curve" smooth="yes"/>
      <point x="233" y="512"/>
      <point x="187" y="475"/>
      <point x="145" y="416" type="curve"/>
      <point x="154" y="359" type="line"/>
      <point x="191" y="424"/>
      <point x="236" y="455"/>
      <point x="298" y="455" type="curve" smooth="yes"/>
      <point x="395" y="455"/>
      <point x="457" y="380"/>
      <point x="457" y="252" type="curve" smooth="yes"/>
      <point x="457" y="125"/>
      <point x="384" y="43"/>
      <point x="290" y="43" type="curve" smooth="yes"/>
      <point x="232" y="43"/>
      <point x="192" y="59"/>
      <point x="154" y="111" type="curve"/>
      <point x="145" y="59" type="line"/>
      <point x="187" y="10"/>
      <point x="236" y="-7"/>
      <point x="300" y="-7" type="curve" smooth="yes"/>
      <point x="411" y="-7"/>
      <point x="524" y="92"/>
    </contour>
    <contour>
      <point x="159" y="455" type="line" smooth="yes"/>
      <point x="159" y="492"/>
      <point x="144" y="512"/>
      <point x="114" y="512" type="curve" smooth="yes"/>
      <point x="96" y="512"/>
      <point x="80" y="498"/>
      <point x="73" y="483" type="curve"/>
      <point x="87" y="478"/>
      <point x="96" y="470"/>
      <point x="96" y="452" type="curve" smooth="yes"/>
      <point x="96" y="-185" type="line" smooth="yes"/>
      <point x="96" y="-222"/>
      <point x="110" y="-243"/>
      <point x="140" y="-243" type="curve" smooth="yes"/>
      <point x="158" y="-243"/>
      <point x="173" y="-230"/>
      <point x="182" y="-214" type="curve"/>
      <point x="167" y="-209"/>
      <point x="159" y="-201"/>
      <point x="159" y="-183" type="curve" smooth="yes"/>
    </contour>
  </outline>
</glyph>
<glyph name="r" format="1">
  <advance width="402"/>
  <unicode hex="0072"/>
  <outline>
    <contour>
      <point x="201" y="500" type="move" name="top"/>
    </contour>
    <contour>
      <point x="145" y="0" type="move" name="bottom"/>
    </contour>
    <contour>
      <point x="159" y="455" type="line" smooth="yes"/>
      <point x="159" y="492"/>
      <point x="144" y="512"/>
      <point x="114" y="512" type="curve" smooth="yes"/>
      <point x="96" y="512"/>
      <point x="80" y="498"/>
      <point x="73" y="483" type="curve"/>
      <point x="87" y="478"/>
      <point x="96" y="470"/>
      <point x="96" y="452" type="curve" smooth="yes"/>
      <point x="96" y="49" type="line" smooth="yes"/>
      <point x="96" y="12"/>
      <point x="110" y="-8"/>
      <point x="140" y="-8" type="curve" smooth="yes"/>
      <point x="158" y="-8"/>
      <point x="173" y="5"/>
      <point x="182" y="21" type="curve"/>
      <point x="167" y="26"/>
      <point x="159" y="33"/>
      <point x="159" y="51" type="curve" smooth="yes"/>
    </contour>
    <contour>
      <point x="397" y="438" type="curve" smooth="yes"/>
      <point x="397" y="472"/>
      <point x="369" y="512"/>
      <point x="300" y="512" type="curve" smooth="yes"/>
      <point x="211" y="512"/>
      <point x="143" y="431"/>
      <point x="138" y="298" type="curve"/>
      <point x="153" y="275" type="line"/>
      <point x="165" y="419"/>
      <point x="235" y="465"/>
      <point x="279" y="465" type="curve" smooth="yes"/>
      <point x="312" y="465"/>
      <point x="329" y="447"/>
      <point x="329" y="416" type="curve" smooth="yes"/>
      <point x="329" y="408"/>
      <point x="329" y="399"/>
      <point x="327" y="389" type="curve"/>
      <point x="333" y="387"/>
      <point x="343" y="385"/>
      <point x="351" y="385" type="curve" smooth="yes"/>
      <point x="371" y="385"/>
      <point x="397" y="400"/>
    </contour>
  </outline>
</glyph>
<glyph name="s" format="1">
  <advance width="496"/>
  <unicode hex="0073"/>
  <outline>
    <contour>
      <point x="249" y="503" type="move" name="top"/>
    </contour>
    <contour>
      <point x="251" y="0" type="move" name="bottom"/>
    </contour>
    <contour>
      <point x="429" y="415" type="curve" smooth="yes"/>
      <point x="429" y="385"/>
      <point x="403" y="370"/>
      <point x="378" y="370" type="curve" smooth="yes"/>
      <point x="367" y="370"/>
      <point x="355" y="373"/>
      <point x="347" y="378" type="curve"/>
      <point x="351" y="385"/>
      <point x="353" y="394"/>
      <point x="353" y="402" type="curve" smooth="yes"/>
      <point x="354" y="431"/>
      <point x="324" y="465"/>
      <point x="254" y="465" type="curve" smooth="yes"/>
      <point x="181" y="465"/>
      <point x="142" y="429"/>
      <point x="142" y="386" type="curve" smooth="yes"/>
      <point x="142" y="293"/>
      <point x="434" y="272"/>
      <point x="434" y="131" type="curve" smooth="yes"/>
      <point x="434" y="62"/>
      <point x="364" y="-8"/>
      <point x="240" y="-8" type="curve" smooth="yes"/>
      <point x="138" y="-8"/>
      <point x="60" y="38"/>
      <point x="60" y="108" type="curve" smooth="yes"/>
      <point x="60" y="151"/>
      <point x="87" y="170"/>
      <point x="112" y="170" type="curve" smooth="yes"/>
      <point x="123" y="170"/>
      <point x="133" y="166"/>
      <point x="141" y="158" type="curve"/>
      <point x="133" y="145"/>
      <point x="128" y="132"/>
      <point x="128" y="116" type="curve" smooth="yes"/>
      <point x="128" y="72"/>
      <point x="163" y="39"/>
      <point x="243" y="39" type="curve" smooth="yes"/>
      <point x="318" y="39"/>
      <point x="367" y="75"/>
      <point x="367" y="127" type="curve" smooth="yes"/>
      <point x="367" y="242"/>
      <point x="79" y="240"/>
      <point x="79" y="377" type="curve" smooth="yes"/>
      <point x="79" y="455"/>
      <point x="151" y="512"/>
      <point x="254" y="512" type="curve" smooth="yes"/>
      <point x="337" y="512"/>
      <point x="429" y="478"/>
    </contour>
  </outline>
</glyph>
<glyph name="u" format="1">
  <advance width="583"/>
  <unicode hex="0075"/>
  <outline>
    <contour>
      <point x="491" y="455" type="line" smooth="yes"/>
      <point x="491" y="492"/>
      <point x="476" y="512"/>
      <point x="448" y="512" type="curve" smooth="yes"/>
      <point x="428" y="512"/>
      <point x="414" y="498"/>
      <point x="405" y="483" type="curve"/>
      <point x="420" y="478"/>
      <point x="428" y="470"/>
      <point x="428" y="452" type="curve" smooth="yes"/>
      <point x="428" y="49" type="line" smooth="yes"/>
      <point x="428" y="12"/>
      <point x="444" y="-8"/>
      <point x="472" y="-8" type="curve" smooth="yes"/>
      <point x="491" y="-8"/>
      <point x="506" y="5"/>
      <point x="515" y="21" type="curve"/>
      <point x="499" y="26"/>
      <point x="491" y="33"/>
      <point x="491" y="51" type="curve" smooth="yes"/>
    </contour>
    <contour>
      <point x="159" y="455" type="line" smooth="yes"/>
      <point x="159" y="492"/>
      <point x="144" y="512"/>
      <point x="114" y="512" type="curve" smooth="yes"/>
      <point x="96" y="512"/>
      <point x="80" y="498"/>
      <point x="73" y="483" type="curve"/>
      <point x="87" y="478"/>
      <point x="96" y="470"/>
      <point x="96" y="452" type="curve" smooth="yes"/>
      <point x="96" y="161" type="line" smooth="yes"/>
      <point x="96" y="46"/>
      <point x="155" y="-8"/>
      <point x="260" y="-8" type="curve" smooth="yes"/>
      <point x="349" y="-8"/>
      <point x="408" y="47"/>
      <point x="437" y="107" type="curve"/>
      <point x="436" y="193" type="line"/>
      <point x="411" y="103"/>
      <point x="346" y="50"/>
      <point x="270" y="50" type="curve" smooth="yes"/>
      <point x="184" y="50"/>
      <point x="159" y="96"/>
      <point x="159" y="164" type="curve" smooth="yes"/>
    </contour>
    <contour>
      <point x="525" y="12" type="move" name="ogonek"/>
    </contour>
    <contour>
      <point x="292" y="503" type="move" name="top"/>
    </contour>
  </outline>
</glyph>
<glyph name="v" format="1">
  <advance width="531"/>
  <unicode hex="0076"/>
  <outline>
    <contour>
      <point x="115" y="454" type="line"/>
      <point x="104" y="493"/>
      <point x="82" y="512"/>
      <point x="55" y="512" type="curve" smooth="yes"/>
      <point x="31" y="512"/>
      <point x="8" y="495"/>
      <point x="11" y="468" type="curve"/>
      <point x="35" y="470"/>
      <point x="47" y="458"/>
      <point x="51" y="441" type="curve"/>
      <point x="180" y="48" type="line" smooth="yes"/>
      <point x="193" y="9"/>
      <point x="211" y="-8"/>
      <point x="241" y="-8" type="curve" smooth="yes"/>
      <point x="296" y="-8"/>
      <point x="476" y="219"/>
      <point x="476" y="434" type="curve" smooth="yes"/>
      <point x="476" y="489"/>
      <point x="453" y="512"/>
      <point x="430" y="512" type="curve" smooth="yes"/>
      <point x="416" y="512"/>
      <point x="405" y="507"/>
      <point x="394" y="500" type="curve"/>
      <point x="442" y="330"/>
      <point x="330" y="146"/>
      <point x="233" y="23" type="curve"/>
      <point x="245" y="23" type="line"/>
    </contour>
  </outline>
</glyph>
<glyph name="y" format="1">
  <advance width="535"/>
  <unicode hex="0079"/>
  <outline>
    <contour>
      <point x="264" y="503" type="move" name="top"/>
    </contour>
    <contour>
      <point x="475" y="428" type="curve" smooth="yes"/>
      <point x="250" y="-150" type="line" smooth="yes"/>
      <point x="224" y="-217"/>
      <point x="190" y="-243"/>
      <point x="145" y="-243" type="curve" smooth="yes"/>
      <point x="100" y="-243"/>
      <point x="82" y="-215"/>
      <point x="82" y="-191" type="curve" smooth="yes"/>
      <point x="82" y="-179"/>
      <point x="87" y="-169"/>
      <point x="95" y="-160" type="curve"/>
      <point x="106" y="-174"/>
      <point x="122" y="-179"/>
      <point x="142" y="-179" type="curve" smooth="yes"/>
      <point x="167" y="-179"/>
      <point x="186" y="-164"/>
      <point x="201" y="-124" type="curve" smooth="yes"/>
      <point x="407" y="432" type="line" smooth="yes"/>
      <point x="419" y="464"/>
      <point x="412" y="484"/>
      <point x="399" y="498" type="curve"/>
      <point x="411" y="507"/>
      <point x="424" y="512"/>
      <point x="440" y="512" type="curve" smooth="yes"/>
      <point x="468" y="512"/>
      <point x="497" y="481"/>
    </contour>
    <contour>
      <point x="113" y="460" type="curve" smooth="yes"/>
      <point x="273" y="-1" type="line"/>
      <point x="241" y="-18"/>
      <point x="208" y="-5"/>
      <point x="197" y="27" type="curve" smooth="yes"/>
      <point x="48" y="452" type="line" smooth="yes"/>
      <point x="43" y="468"/>
      <point x="36" y="483"/>
      <point x="20" y="490" type="curve"/>
      <point x="27" y="504"/>
      <point x="42" y="512"/>
      <point x="61" y="512" type="curve" smooth="yes"/>
      <point x="85" y="512"/>
      <point x="101" y="496"/>
    </contour>
  </outline>
</glyph>
<glyph name="z" format="1">
  <advance width="509"/>
  <unicode hex="007A"/>
  <outline>
    <contour>
      <point x="254" y="503" type="move" name="top"/>
    </contour>
    <contour>
      <point x="404" y="503" type="line" smooth="yes"/>
      <point x="435" y="503"/>
      <point x="454" y="483"/>
      <point x="454" y="459" type="curve" smooth="yes"/>
      <point x="454" y="446"/>
      <point x="449" y="427"/>
      <point x="426" y="403" type="curve" smooth="yes"/>
      <point x="110" y="84" type="line"/>
      <point x="110" y="97" type="line"/>
      <point x="159" y="68"/>
      <point x="221" y="53"/>
      <point x="297" y="53" type="curve" smooth="yes"/>
      <point x="358" y="53"/>
      <point x="405" y="75"/>
      <point x="438" y="111" type="curve"/>
      <point x="449" y="103"/>
      <point x="455" y="91"/>
      <point x="455" y="74" type="curve" smooth="yes"/>
      <point x="455" y="36"/>
      <point x="405" y="-8"/>
      <point x="298" y="-8" type="curve" smooth="yes"/>
      <point x="181" y="-8"/>
      <point x="71" y="48"/>
      <point x="71" y="105" type="curve" smooth="yes"/>
      <point x="71" y="126"/>
      <point x="80" y="146"/>
      <point x="108" y="174" type="curve" smooth="yes"/>
      <point x="410" y="476" type="line"/>
      <point x="442" y="465" type="line"/>
      <point x="340" y="453"/>
      <point x="269" y="438"/>
      <point x="197" y="438" type="curve" smooth="yes"/>
      <point x="118" y="438"/>
      <point x="78" y="459"/>
      <point x="78" y="491" type="curve" smooth="yes"/>
      <point x="78" y="503"/>
      <point x="85" y="512"/>
      <point x="94" y="519" type="curve"/>
      <point x="118" y="508"/>
      <point x="149" y="503"/>
      <point x="196" y="503" type="curve" smooth="yes"/>
    </contour>
  </outline>
</glyph>
<glyph name="braceright" format="1">
  <advance width="330"/>
  <unicode hex="007D"/>
  <outline>
    <contour>
      <point x="228" y="625" type="curve" smooth="yes"/>
      <point x="228" y="579"/>
      <point x="215" y="484"/>
      <point x="215" y="417" type="curve" smooth="yes"/>
      <point x="215" y="318"/>
      <point x="279" y="314"/>
      <point x="279" y="293" type="curve" smooth="yes"/>
      <point x="279" y="272"/>
      <point x="215" y="266"/>
      <point x="215" y="168" type="curve" smooth="yes"/>
      <point x="215" y="98"/>
      <point x="228" y="-2"/>
      <point x="228" y="-55" type="curve" smooth="yes"/>
      <point x="228" y="-187"/>
      <point x="153" y="-234"/>
      <point x="102" y="-234" type="curve" smooth="yes"/>
      <point x="79" y="-234"/>
      <point x="66" y="-227"/>
      <point x="54" y="-214" type="curve"/>
      <point x="116" y="-209"/>
      <point x="166" y="-167"/>
      <point x="166" y="-87" type="curve" smooth="yes"/>
      <point x="166" y="-27"/>
      <point x="152" y="116"/>
      <point x="152" y="177" type="curve" smooth="yes"/>
      <point x="152" y="257"/>
      <point x="226" y="289"/>
      <point x="231" y="292" type="curve"/>
      <point x="229" y="293"/>
      <point x="152" y="327"/>
      <point x="152" y="409" type="curve" smooth="yes"/>
      <point x="152" y="467"/>
      <point x="166" y="601"/>
      <point x="166" y="657" type="curve" smooth="yes"/>
      <point x="166" y="738"/>
      <point x="116" y="781"/>
      <point x="54" y="785" type="curve"/>
      <point x="66" y="797"/>
      <point x="79" y="805"/>
      <point x="102" y="805" type="curve" smooth="yes"/>
      <point x="153" y="805"/>
      <point x="228" y="759"/>
    </contour>
  </outline>
</glyph>
<glyph name="asciitilde" format="1">
  <advance width="706"/>
  <unicode hex="007E"/>
  <outline>
    <contour>
      <point x="575" y="426" type="curve"/>
      <point x="586" y="421"/>
      <point x="596" y="409"/>
      <point x="596" y="388" type="curve" smooth="yes"/>
      <point x="596" y="353"/>
      <point x="565" y="317"/>
      <point x="503" y="317" type="curve" smooth="yes"/>
      <point x="451" y="317"/>
      <point x="244" y="369"/>
      <point x="196" y="369" type="curve" smooth="yes"/>
      <point x="157" y="369"/>
      <point x="134" y="349"/>
      <point x="131" y="316" type="curve"/>
      <point x="120" y="319"/>
      <point x="110" y="332"/>
      <point x="110" y="352" type="curve" smooth="yes"/>
      <point x="110" y="389"/>
      <point x="141" y="424"/>
      <point x="203" y="424" type="curve" smooth="yes"/>
      <point x="264" y="424"/>
      <point x="471" y="372"/>
      <point x="510" y="372" type="curve" smooth="yes"/>
      <point x="549" y="372"/>
      <point x="572" y="392"/>
    </contour>
  </outline>
</glyph>
<glyph name="exclamdown" format="1">
  <advance width="323"/>
  <unicode hex="00A1"/>
  <outline>
    <contour>
      <point x="109" y="488" type="curve" smooth="yes"/>
      <point x="109" y="520"/>
      <point x="139" y="548"/>
      <point x="170" y="548" type="curve" smooth="yes"/>
      <point x="195" y="548"/>
      <point x="212" y="530"/>
      <point x="212" y="504" type="curve" smooth="yes"/>
      <point x="212" y="471"/>
      <point x="183" y="445"/>
      <point x="153" y="445" type="curve" smooth="yes"/>
      <point x="127" y="445"/>
      <point x="109" y="463"/>
    </contour>
    <contour>
      <point x="155" y="-243" type="curve" smooth="yes"/>
      <point x="136" y="-243"/>
      <point x="122" y="-224"/>
      <point x="122" y="-179" type="curve" smooth="yes"/>
      <point x="129" y="304" type="line" smooth="yes"/>
      <point x="131" y="346"/>
      <point x="143" y="363"/>
      <point x="164" y="363" type="curve" smooth="yes"/>
      <point x="176" y="363"/>
      <point x="183" y="357"/>
      <point x="189" y="348" type="curve"/>
      <point x="181" y="332"/>
      <point x="176" y="317"/>
      <point x="178" y="264" type="curve" smooth="yes"/>
      <point x="191" y="-179" type="line" smooth="yes"/>
      <point x="191" y="-224"/>
      <point x="175" y="-243"/>
    </contour>
  </outline>
</glyph>
<glyph name="cent" format="1">
  <advance width="482"/>
  <unicode hex="00A2"/>
  <outline>
    <contour>
      <point x="230" y="484" type="line"/>
      <point x="293" y="484" type="line"/>
      <point x="293" y="585" type="line" smooth="yes"/>
      <point x="293" y="622"/>
      <point x="279" y="643"/>
      <point x="249" y="643" type="curve" smooth="yes"/>
      <point x="231" y="643"/>
      <point x="216" y="629"/>
      <point x="207" y="614" type="curve"/>
      <point x="222" y="609"/>
      <point x="230" y="601"/>
      <point x="230" y="583" type="curve" smooth="yes"/>
    </contour>
    <contour>
      <point x="277" y="19" type="line"/>
      <point x="213" y="19" type="line"/>
      <point x="213" y="-82" type="line" smooth="yes"/>
      <point x="213" y="-119"/>
      <point x="229" y="-139"/>
      <point x="258" y="-139" type="curve" smooth="yes"/>
      <point x="276" y="-139"/>
      <point x="292" y="-126"/>
      <point x="300" y="-110" type="curve"/>
      <point x="286" y="-104"/>
      <point x="277" y="-98"/>
      <point x="277" y="-80" type="curve" smooth="yes"/>
    </contour>
    <component base="c"/>
  </outline>
</glyph>
<glyph name="sterling" format="1">
  <advance width="588"/>
  <unicode hex="00A3"/>
  <outline>
    <contour>
      <point x="502" y="609" type="curve" smooth="yes"/>
      <point x="502" y="658"/>
      <point x="453" y="720"/>
      <point x="361" y="720" type="curve" smooth="yes"/>
      <point x="296" y="720"/>
      <point x="197" y="650"/>
      <point x="197" y="519" type="curve" smooth="yes"/>
      <point x="197" y="461"/>
      <point x="200" y="426"/>
      <point x="202" y="392" type="curve"/>
      <point x="107" y="392" type="line" smooth="yes"/>
      <point x="89" y="392"/>
      <point x="45" y="392"/>
      <point x="45" y="349" type="curve" smooth="yes"/>
      <point x="45" y="343"/>
      <point x="48" y="337"/>
      <point x="49" y="334" type="curve"/>
      <point x="203" y="334" type="line"/>
      <point x="206" y="316"/>
      <point x="205" y="294"/>
      <point x="205" y="268" type="curve" smooth="yes"/>
      <point x="205" y="138"/>
      <point x="174" y="107"/>
      <point x="143" y="84" type="curve"/>
      <point x="85" y="76"/>
      <point x="59" y="39"/>
      <point x="59" y="13" type="curve" smooth="yes"/>
      <point x="59" y="4"/>
      <point x="60" y="-1"/>
      <point x="65" y="-7" type="curve"/>
      <point x="94" y="16"/>
      <point x="124" y="25"/>
      <point x="155" y="25" type="curve" smooth="yes"/>
      <point x="259" y="25"/>
      <point x="366" y="-8"/>
      <point x="464" y="-8" type="curve" smooth="yes"/>
      <point x="541" y="-8"/>
      <point x="577" y="35"/>
      <point x="577" y="66" type="curve" smooth="yes"/>
      <point x="577" y="74"/>
      <point x="575" y="82"/>
      <point x="571" y="85" type="curve"/>
      <point x="539" y="59"/>
      <point x="507" y="49"/>
      <point x="476" y="49" type="curve" smooth="yes"/>
      <point x="388" y="49"/>
      <point x="296" y="78"/>
      <point x="207" y="85" type="curve"/>
      <point x="260" y="117"/>
      <point x="265" y="258"/>
      <point x="265" y="295" type="curve" smooth="yes"/>
      <point x="265" y="334" type="line"/>
      <point x="388" y="334" type="line" smooth="yes"/>
      <point x="406" y="334"/>
      <point x="451" y="334"/>
      <point x="451" y="378" type="curve" smooth="yes"/>
      <point x="451" y="383"/>
      <point x="450" y="388"/>
      <point x="449" y="392" type="curve"/>
      <point x="263" y="392" type="line"/>
      <point x="261" y="443"/>
      <point x="258" y="483"/>
      <point x="258" y="541" type="curve" smooth="yes"/>
      <point x="258" y="625"/>
      <point x="293" y="672"/>
      <point x="356" y="672" type="curve" smooth="yes"/>
      <point x="424" y="672"/>
      <point x="455" y="604"/>
      <point x="465" y="558" type="curve"/>
      <point x="490" y="565"/>
      <point x="502" y="584"/>
    </contour>
  </outline>
</glyph>
<glyph name="currency" format="1">
  <advance width="607"/>
  <unicode hex="00A4"/>
  <outline>
    <contour>
      <point x="305" y="576" type="curve" smooth="yes"/>
      <point x="400" y="576"/>
      <point x="493" y="511"/>
      <point x="493" y="379" type="curve" smooth="yes"/>
      <point x="493" y="246"/>
      <point x="400" y="181"/>
      <point x="305" y="181" type="curve" smooth="yes"/>
      <point x="209" y="181"/>
      <point x="113" y="246"/>
      <point x="113" y="379" type="curve" smooth="yes"/>
      <point x="113" y="513"/>
      <point x="209" y="576"/>
    </contour>
    <contour>
      <point x="293" y="534" type="curve" smooth="yes"/>
      <point x="220" y="534"/>
      <point x="163" y="491"/>
      <point x="172" y="379" type="curve" smooth="yes"/>
      <point x="181" y="266"/>
      <point x="242" y="223"/>
      <point x="315" y="223" type="curve" smooth="yes"/>
      <point x="387" y="223"/>
      <point x="445" y="266"/>
      <point x="437" y="379" type="curve" smooth="yes"/>
      <point x="427" y="491"/>
      <point x="365" y="534"/>
    </contour>
    <contour>
      <point x="162" y="468" type="line"/>
      <point x="74" y="557" type="line"/>
      <point x="75" y="556"/>
      <point x="77" y="562"/>
      <point x="78" y="567" type="curve" smooth="yes"/>
      <point x="97" y="589"/>
      <point x="124" y="583"/>
      <point x="153" y="554" type="curve" smooth="yes"/>
      <point x="200" y="505" type="line"/>
    </contour>
    <contour>
      <point x="453" y="554" type="line"/>
      <point x="482" y="583"/>
      <point x="510" y="589"/>
      <point x="529" y="567" type="curve" smooth="yes"/>
      <point x="530" y="562"/>
      <point x="531" y="556"/>
      <point x="533" y="557" type="curve"/>
      <point x="444" y="468" type="line"/>
      <point x="407" y="505" type="line"/>
    </contour>
    <contour>
      <point x="152" y="186" type="line"/>
      <point x="122" y="158"/>
      <point x="97" y="153"/>
      <point x="78" y="175" type="curve" smooth="yes"/>
      <point x="76" y="179"/>
      <point x="74" y="185"/>
      <point x="74" y="184" type="curve"/>
      <point x="157" y="265" type="line"/>
      <point x="194" y="227" type="line"/>
    </contour>
    <contour>
      <point x="449" y="265" type="line"/>
      <point x="533" y="184" type="line"/>
      <point x="533" y="185"/>
      <point x="531" y="179"/>
      <point x="529" y="175" type="curve" smooth="yes"/>
      <point x="510" y="153"/>
      <point x="483" y="158"/>
      <point x="455" y="186" type="curve" smooth="yes"/>
      <point x="411" y="227" type="line"/>
    </contour>
  </outline>
</glyph>
<glyph name="dieresis" format="1">
  <advance width="253"/>
  <unicode hex="00A8"/>
  <outline>
    <contour>
      <point x="127" y="503" type="move" name="_top"/>
    </contour>
    <contour>
      <point x="103" y="634" type="curve" smooth="yes"/>
      <point x="103" y="606"/>
      <point x="78" y="580"/>
      <point x="50" y="580" type="curve" smooth="yes"/>
      <point x="28" y="580"/>
      <point x="12" y="597"/>
      <point x="12" y="619" type="curve" smooth="yes"/>
      <point x="12" y="647"/>
      <point x="39" y="672"/>
      <point x="66" y="672" type="curve" smooth="yes"/>
      <point x="88" y="672"/>
      <point x="103" y="656"/>
    </contour>
    <contour>
      <point x="241" y="634" type="curve" smooth="yes"/>
      <point x="241" y="606"/>
      <point x="216" y="580"/>
      <point x="188" y="580" type="curve" smooth="yes"/>
      <point x="166" y="580"/>
      <point x="150" y="597"/>
      <point x="150" y="619" type="curve" smooth="yes"/>
      <point x="150" y="647"/>
      <point x="177" y="672"/>
      <point x="204" y="672" type="curve" smooth="yes"/>
      <point x="226" y="672"/>
      <point x="241" y="655"/>
    </contour>
  </outline>
</glyph>
<glyph name="copyright" format="1">
  <advance width="869"/>
  <unicode hex="00A9"/>
  <outline>
    <contour>
      <point x="797" y="353" type="curve" smooth="yes"/>
      <point x="797" y="142"/>
      <point x="642" y="-8"/>
      <point x="434" y="-8" type="curve" smooth="yes"/>
      <point x="227" y="-8"/>
      <point x="72" y="142"/>
      <point x="72" y="353" type="curve" smooth="yes"/>
      <point x="72" y="563"/>
      <point x="227" y="719"/>
      <point x="434" y="719" type="curve" smooth="yes"/>
      <point x="642" y="719"/>
      <point x="797" y="563"/>
    </contour>
    <contour>
      <point x="125" y="353" type="curve" smooth="yes"/>
      <point x="125" y="179"/>
      <point x="241" y="35"/>
      <point x="434" y="35" type="curve" smooth="yes"/>
      <point x="625" y="35"/>
      <point x="744" y="179"/>
      <point x="744" y="353" type="curve" smooth="yes"/>
      <point x="744" y="527"/>
      <point x="628" y="676"/>
      <point x="434" y="676" type="curve" smooth="yes"/>
      <point x="242" y="676"/>
      <point x="125" y="527"/>
    </contour>
    <contour>
      <point x="588" y="504" type="curve" smooth="yes"/>
      <point x="588" y="482"/>
      <point x="571" y="467"/>
      <point x="549" y="467" type="curve" smooth="yes"/>
      <point x="544" y="467"/>
      <point x="537" y="468"/>
      <point x="529" y="469" type="curve"/>
      <point x="529" y="473"/>
      <point x="531" y="476"/>
      <point x="531" y="480" type="curve" smooth="yes"/>
      <point x="531" y="519"/>
      <point x="502" y="553"/>
      <point x="443" y="553" type="curve" smooth="yes"/>
      <point x="343" y="553"/>
      <point x="293" y="459"/>
      <point x="293" y="352" type="curve" smooth="yes"/>
      <point x="293" y="231"/>
      <point x="362" y="171"/>
      <point x="444" y="171" type="curve" smooth="yes"/>
      <point x="495" y="171"/>
      <point x="540" y="195"/>
      <point x="574" y="240" type="curve"/>
      <point x="579" y="238"/>
      <point x="587" y="232"/>
      <point x="587" y="218" type="curve" smooth="yes"/>
      <point x="587" y="185"/>
      <point x="521" y="120"/>
      <point x="429" y="120" type="curve" smooth="yes"/>
      <point x="321" y="120"/>
      <point x="233" y="214"/>
      <point x="233" y="341" type="curve" smooth="yes"/>
      <point x="233" y="480"/>
      <point x="330" y="600"/>
      <point x="453" y="600" type="curve" smooth="yes"/>
      <point x="534" y="600"/>
      <point x="588" y="555"/>
    </contour>
  </outline>
</glyph>
<glyph name="ordfeminine" format="1">
  <advance width="406"/>
  <unicode hex="00AA"/>
  <outline>
    <contour>
      <point x="335" y="596" type="curve" smooth="yes"/>
      <point x="335" y="375" type="line" smooth="yes"/>
      <point x="335" y="341"/>
      <point x="351" y="333"/>
      <point x="373" y="332" type="curve"/>
      <point x="366" y="315"/>
      <point x="354" y="305"/>
      <point x="334" y="305" type="curve" smooth="yes"/>
      <point x="305" y="305"/>
      <point x="284" y="326"/>
      <point x="284" y="373" type="curve" smooth="yes"/>
      <point x="284" y="582" type="line" smooth="yes"/>
      <point x="284" y="644"/>
      <point x="262" y="683"/>
      <point x="198" y="683" type="curve" smooth="yes"/>
      <point x="148" y="683"/>
      <point x="118" y="661"/>
      <point x="118" y="633" type="curve" smooth="yes"/>
      <point x="118" y="623"/>
      <point x="120" y="613"/>
      <point x="128" y="605" type="curve"/>
      <point x="119" y="600"/>
      <point x="107" y="597"/>
      <point x="100" y="597" type="curve" smooth="yes"/>
      <point x="80" y="597"/>
      <point x="62" y="609"/>
      <point x="62" y="633" type="curve" smooth="yes"/>
      <point x="62" y="681"/>
      <point x="122" y="721"/>
      <point x="200" y="721" type="curve" smooth="yes"/>
      <point x="286" y="721"/>
      <point x="335" y="670"/>
    </contour>
    <contour>
      <point x="290" y="510" type="line"/>
      <point x="154" y="505"/>
      <point x="101" y="461"/>
      <point x="101" y="411" type="curve" smooth="yes"/>
      <point x="101" y="366"/>
      <point x="130" y="349"/>
      <point x="170" y="349" type="curve" smooth="yes"/>
      <point x="218" y="349"/>
      <point x="262" y="375"/>
      <point x="292" y="422" type="curve"/>
      <point x="298" y="396" type="line"/>
      <point x="268" y="338"/>
      <point x="219" y="305"/>
      <point x="158" y="305" type="curve" smooth="yes"/>
      <point x="96" y="305"/>
      <point x="46" y="341"/>
      <point x="46" y="406" type="curve" smooth="yes"/>
      <point x="46" y="482"/>
      <point x="118" y="537"/>
      <point x="290" y="541" type="curve"/>
    </contour>
  </outline>
</glyph>
<glyph name="macron" format="1">
  <advance width="341"/>
  <unicode hex="00AF"/>
  <outline>
    <contour>
      <point x="325" y="651" type="curve"/>
      <point x="57" y="651" type="line" smooth="yes"/>
      <point x="30" y="651"/>
      <point x="12" y="639"/>
      <point x="12" y="617" type="curve" smooth="yes"/>
      <point x="12" y="612"/>
      <point x="13" y="607"/>
      <point x="16" y="604" type="curve"/>
      <point x="283" y="604" type="line" smooth="yes"/>
      <point x="311" y="604"/>
      <point x="329" y="616"/>
      <point x="329" y="638" type="curve" smooth="yes"/>
      <point x="329" y="644"/>
      <point x="328" y="648"/>
    </contour>
    <contour>
      <point x="170" y="503" type="move" name="_top"/>
    </contour>
  </outline>
</glyph>
<glyph name="degree" format="1">
  <advance width="350"/>
  <unicode hex="00B0"/>
  <outline>
    <contour>
      <point x="200" y="819" type="curve" smooth="yes"/>
      <point x="121" y="819"/>
      <point x="58" y="762"/>
      <point x="58" y="682" type="curve" smooth="yes"/>
      <point x="58" y="601"/>
      <point x="118" y="546"/>
      <point x="198" y="546" type="curve" smooth="yes"/>
      <point x="279" y="546"/>
      <point x="339" y="604"/>
      <point x="339" y="685" type="curve" smooth="yes"/>
      <point x="339" y="764"/>
      <point x="281" y="819"/>
    </contour>
    <contour>
      <point x="200" y="587" type="curve" smooth="yes"/>
      <point x="146" y="587"/>
      <point x="105" y="630"/>
      <point x="105" y="685" type="curve" smooth="yes"/>
      <point x="105" y="740"/>
      <point x="143" y="778"/>
      <point x="198" y="778" type="curve" smooth="yes"/>
      <point x="253" y="778"/>
      <point x="292" y="736"/>
      <point x="292" y="682" type="curve" smooth="yes"/>
      <point x="292" y="627"/>
      <point x="255" y="587"/>
    </contour>
  </outline>
</glyph>
<glyph name="plusminus" format="1">
  <advance width="712"/>
  <unicode hex="00B1"/>
  <outline>
    <contour>
      <point x="161" y="62" type="line"/>
      <point x="145" y="62"/>
      <point x="104" y="62"/>
      <point x="104" y="23" type="curve" smooth="yes"/>
      <point x="104" y="18"/>
      <point x="107" y="13"/>
      <point x="108" y="9" type="curve"/>
      <point x="553" y="9" type="line" smooth="yes"/>
      <point x="569" y="9"/>
      <point x="610" y="9"/>
      <point x="610" y="49" type="curve" smooth="yes"/>
      <point x="610" y="53"/>
      <point x="609" y="58"/>
      <point x="607" y="62" type="curve"/>
    </contour>
    <contour>
      <point x="382" y="563" type="line"/>
      <point x="379" y="564"/>
      <point x="373" y="566"/>
      <point x="368" y="566" type="curve" smooth="yes"/>
      <point x="328" y="566"/>
      <point x="329" y="524"/>
      <point x="329" y="508" type="curve" smooth="yes"/>
      <point x="331" y="464"/>
      <point x="332" y="421"/>
      <point x="333" y="386" type="curve"/>
      <point x="282" y="386"/>
      <point x="220" y="387"/>
      <point x="159" y="390" type="curve" smooth="yes"/>
      <point x="143" y="390"/>
      <point x="100" y="390"/>
      <point x="100" y="351" type="curve" smooth="yes"/>
      <point x="100" y="345"/>
      <point x="102" y="339"/>
      <point x="104" y="337" type="curve"/>
      <point x="333" y="340" type="line"/>
      <point x="329" y="142" type="line"/>
      <point x="333" y="141"/>
      <point x="339" y="139"/>
      <point x="343" y="139" type="curve" smooth="yes"/>
      <point x="384" y="139"/>
      <point x="382" y="182"/>
      <point x="382" y="197" type="curve"/>
      <point x="381" y="248"/>
      <point x="379" y="299"/>
      <point x="379" y="340" type="curve"/>
      <point x="429" y="339"/>
      <point x="492" y="338"/>
      <point x="553" y="337" type="curve" smooth="yes"/>
      <point x="569" y="337"/>
      <point x="611" y="336"/>
      <point x="611" y="375" type="curve" smooth="yes"/>
      <point x="611" y="380"/>
      <point x="610" y="386"/>
      <point x="608" y="390" type="curve"/>
      <point x="379" y="386" type="line"/>
    </contour>
  </outline>
</glyph>
<glyph name="twosuperior" format="1">
  <advance width="360"/>
  <unicode hex="00B2"/>
  <outline>
    <contour>
      <point x="307" y="607" type="curve" smooth="yes"/>
      <point x="307" y="678"/>
      <point x="246" y="725"/>
      <point x="171" y="725" type="curve" smooth="yes"/>
      <point x="87" y="725"/>
      <point x="35" y="677"/>
      <point x="35" y="630" type="curve" smooth="yes"/>
      <point x="35" y="604"/>
      <point x="52" y="583"/>
      <point x="79" y="583" type="curve" smooth="yes"/>
      <point x="89" y="583"/>
      <point x="100" y="588"/>
      <point x="108" y="594" type="curve"/>
      <point x="96" y="604"/>
      <point x="91" y="614"/>
      <point x="91" y="629" type="curve" smooth="yes"/>
      <point x="91" y="667"/>
      <point x="124" y="688"/>
      <point x="172" y="688" type="curve" smooth="yes"/>
      <point x="219" y="688"/>
      <point x="251" y="664"/>
      <point x="251" y="612" type="curve" smooth="yes"/>
      <point x="251" y="543"/>
      <point x="199" y="473"/>
      <point x="37" y="337" type="curve"/>
      <point x="37" y="322"/>
      <point x="53" y="306"/>
      <point x="77" y="306" type="curve" smooth="yes"/>
      <point x="253" y="306" type="line" smooth="yes"/>
      <point x="284" y="306"/>
      <point x="303" y="303"/>
      <point x="318" y="298" type="curve"/>
      <point x="324" y="301"/>
      <point x="332" y="309"/>
      <point x="332" y="318" type="curve" smooth="yes"/>
      <point x="332" y="330"/>
      <point x="322" y="349"/>
      <point x="257" y="349" type="curve" smooth="yes"/>
      <point x="183" y="349"/>
      <point x="135" y="348"/>
      <point x="53" y="339" type="curve"/>
      <point x="81" y="323" type="line"/>
      <point x="223" y="453"/>
      <point x="307" y="517"/>
    </contour>
  </outline>
</glyph>
<glyph name="threesuperior" format="1">
  <advance width="396"/>
  <unicode hex="00B3"/>
  <outline>
    <contour>
      <point x="323" y="637" type="curve" smooth="yes"/>
      <point x="323" y="590"/>
      <point x="266" y="550"/>
      <point x="201" y="535" type="curve"/>
      <point x="284" y="531"/>
      <point x="347" y="484"/>
      <point x="347" y="421" type="curve" smooth="yes"/>
      <point x="347" y="346"/>
      <point x="277" y="306"/>
      <point x="192" y="306" type="curve" smooth="yes"/>
      <point x="124" y="306"/>
      <point x="50" y="338"/>
      <point x="50" y="379" type="curve" smooth="yes"/>
      <point x="50" y="391"/>
      <point x="58" y="398"/>
      <point x="75" y="402" type="curve"/>
      <point x="99" y="361"/>
      <point x="148" y="341"/>
      <point x="208" y="341" type="curve" smooth="yes"/>
      <point x="249" y="341"/>
      <point x="284" y="363"/>
      <point x="284" y="409" type="curve" smooth="yes"/>
      <point x="284" y="479"/>
      <point x="230" y="508"/>
      <point x="162" y="508" type="curve" smooth="yes"/>
      <point x="146" y="508"/>
      <point x="132" y="505"/>
      <point x="118" y="502" type="curve"/>
      <point x="113" y="504"/>
      <point x="110" y="509"/>
      <point x="110" y="513" type="curve" smooth="yes"/>
      <point x="110" y="555"/>
      <point x="271" y="562"/>
      <point x="271" y="624" type="curve" smooth="yes"/>
      <point x="271" y="663"/>
      <point x="233" y="677"/>
      <point x="196" y="677" type="curve" smooth="yes"/>
      <point x="160" y="677"/>
      <point x="128" y="664"/>
      <point x="99" y="646" type="curve"/>
      <point x="91" y="646"/>
      <point x="86" y="655"/>
      <point x="86" y="663" type="curve" smooth="yes"/>
      <point x="86" y="678"/>
      <point x="145" y="720"/>
      <point x="211" y="720" type="curve" smooth="yes"/>
      <point x="272" y="720"/>
      <point x="323" y="688"/>
    </contour>
  </outline>
</glyph>
<glyph name="acute" format="1">
  <advance width="239"/>
  <unicode hex="00B4"/>
  <outline>
    <contour>
      <point x="43" y="503" type="move" name="_top"/>
    </contour>
    <contour>
      <point x="60" y="580" type="line"/>
      <point x="32" y="557"/>
      <point x="16" y="571"/>
      <point x="13" y="582" type="curve"/>
      <point x="125" y="708" type="line" smooth="yes"/>
      <point x="151" y="735"/>
      <point x="169" y="742"/>
      <point x="190" y="739" type="curve" smooth="yes"/>
      <point x="220" y="734"/>
      <point x="236" y="711"/>
      <point x="227" y="675" type="curve"/>
      <point x="208" y="684"/>
      <point x="192" y="683"/>
      <point x="171" y="668" type="curve" smooth="yes"/>
    </contour>
  </outline>
</glyph>
<glyph name="periodcentered" format="1">
  <advance width="413"/>
  <unicode hex="00B7"/>
  <outline>
    <contour>
      <point x="263" y="341" type="curve" smooth="yes"/>
      <point x="263" y="369"/>
      <point x="244" y="389"/>
      <point x="216" y="389" type="curve" smooth="yes"/>
      <point x="183" y="389"/>
      <point x="150" y="357"/>
      <point x="150" y="323" type="curve" smooth="yes"/>
      <point x="150" y="296"/>
      <point x="169" y="276"/>
      <point x="197" y="276" type="curve" smooth="yes"/>
      <point x="231" y="276"/>
      <point x="263" y="307"/>
    </contour>
  </outline>
</glyph>
<glyph name="onesuperior" format="1">
  <advance width="162"/>
  <unicode hex="00B9"/>
  <outline>
    <contour>
      <point x="138" y="332" type="line"/>
      <point x="138" y="321"/>
      <point x="143" y="317"/>
      <point x="152" y="314" type="curve"/>
      <point x="146" y="305"/>
      <point x="136" y="298"/>
      <point x="124" y="298" type="curve" smooth="yes"/>
      <point x="107" y="298"/>
      <point x="97" y="309"/>
      <point x="97" y="331" type="curve" smooth="yes"/>
      <point x="97" y="666" type="line" smooth="yes"/>
      <point x="97" y="678"/>
      <point x="89" y="686"/>
      <point x="72" y="686" type="curve" smooth="yes"/>
      <point x="55" y="686"/>
      <point x="36" y="680"/>
      <point x="18" y="671" type="curve"/>
      <point x="15" y="671"/>
      <point x="11" y="674"/>
      <point x="11" y="680" type="curve" smooth="yes"/>
      <point x="11" y="694"/>
      <point x="48" y="720"/>
      <point x="87" y="720" type="curve" smooth="yes"/>
      <point x="120" y="720"/>
      <point x="138" y="700"/>
      <point x="138" y="671" type="curve" smooth="yes"/>
    </contour>
  </outline>
</glyph>
<glyph name="ordmasculine" format="1">
  <advance width="401"/>
  <unicode hex="00BA"/>
  <outline>
    <contour>
      <point x="39" y="513" type="curve" smooth="yes"/>
      <point x="39" y="393"/>
      <point x="103" y="305"/>
      <point x="206" y="305" type="curve" smooth="yes"/>
      <point x="309" y="305"/>
      <point x="372" y="393"/>
      <point x="372" y="513" type="curve" smooth="yes"/>
      <point x="372" y="642"/>
      <point x="309" y="720"/>
      <point x="206" y="720" type="curve" smooth="yes"/>
      <point x="103" y="720"/>
      <point x="39" y="642"/>
    </contour>
    <contour>
      <point x="201" y="688" type="curve" smooth="yes"/>
      <point x="262" y="688"/>
      <point x="316" y="649"/>
      <point x="319" y="524" type="curve" smooth="yes"/>
      <point x="324" y="399"/>
      <point x="273" y="339"/>
      <point x="210" y="339" type="curve" smooth="yes"/>
      <point x="149" y="339"/>
      <point x="97" y="377"/>
      <point x="92" y="501" type="curve" smooth="yes"/>
      <point x="87" y="626"/>
      <point x="139" y="688"/>
    </contour>
  </outline>
</glyph>
<glyph name="threequarters" format="1">
  <advance width="764"/>
  <unicode hex="00BE"/>
  <outline>
    <contour>
      <point x="673" y="398" type="curve" smooth="yes"/>
      <point x="673" y="31" type="line" smooth="yes"/>
      <point x="673" y="20"/>
      <point x="679" y="16"/>
      <point x="689" y="12" type="curve"/>
      <point x="682" y="2"/>
      <point x="671" y="-5"/>
      <point x="659" y="-5" type="curve" smooth="yes"/>
      <point x="638" y="-5"/>
      <point x="627" y="7"/>
      <point x="627" y="29" type="curve" smooth="yes"/>
      <point x="627" y="352" type="line" smooth="yes"/>
      <point x="627" y="359"/>
      <point x="625" y="362"/>
      <point x="620" y="362" type="curve" smooth="yes"/>
      <point x="596" y="362"/>
      <point x="478" y="207"/>
      <point x="478" y="145" type="curve" smooth="yes"/>
      <point x="478" y="135"/>
      <point x="483" y="131"/>
      <point x="494" y="131" type="curve" smooth="yes"/>
      <point x="687" y="131" type="line" smooth="yes"/>
      <point x="699" y="131"/>
      <point x="719" y="133"/>
      <point x="729" y="142" type="curve"/>
      <point x="734" y="137"/>
      <point x="737" y="129"/>
      <point x="737" y="123" type="curve" smooth="yes"/>
      <point x="737" y="108"/>
      <point x="721" y="96"/>
      <point x="697" y="96" type="curve" smooth="yes"/>
      <point x="489" y="96" type="line" smooth="yes"/>
      <point x="454" y="96"/>
      <point x="434" y="111"/>
      <point x="434" y="136" type="curve" smooth="yes"/>
      <point x="434" y="214"/>
      <point x="588" y="425"/>
      <point x="642" y="425" type="curve" smooth="yes"/>
      <point x="656" y="425"/>
      <point x="673" y="419"/>
    </contour>
    <contour>
      <point x="323" y="637" type="curve" smooth="yes"/>
      <point x="323" y="590"/>
      <point x="266" y="550"/>
      <point x="201" y="535" type="curve"/>
      <point x="284" y="531"/>
      <point x="347" y="484"/>
      <point x="347" y="421" type="curve" smooth="yes"/>
      <point x="347" y="346"/>
      <point x="277" y="306"/>
      <point x="192" y="306" type="curve" smooth="yes"/>
      <point x="124" y="306"/>
      <point x="50" y="338"/>
      <point x="50" y="379" type="curve" smooth="yes"/>
      <point x="50" y="391"/>
      <point x="58" y="398"/>
      <point x="75" y="402" type="curve"/>
      <point x="99" y="361"/>
      <point x="148" y="337"/>
      <point x="208" y="337" type="curve" smooth="yes"/>
      <point x="249" y="337"/>
      <point x="284" y="363"/>
      <point x="284" y="409" type="curve" smooth="yes"/>
      <point x="284" y="479"/>
      <point x="230" y="508"/>
      <point x="162" y="508" type="curve" smooth="yes"/>
      <point x="146" y="508"/>
      <point x="132" y="505"/>
      <point x="118" y="502" type="curve"/>
      <point x="113" y="504"/>
      <point x="110" y="509"/>
      <point x="110" y="513" type="curve" smooth="yes"/>
      <point x="110" y="544"/>
      <point x="271" y="551"/>
      <point x="271" y="624" type="curve" smooth="yes"/>
      <point x="271" y="663"/>
      <point x="233" y="680"/>
      <point x="196" y="680" type="curve" smooth="yes"/>
      <point x="160" y="680"/>
      <point x="128" y="667"/>
      <point x="99" y="649" type="curve"/>
      <point x="91" y="650"/>
      <point x="86" y="655"/>
      <point x="86" y="663" type="curve" smooth="yes"/>
      <point x="86" y="678"/>
      <point x="145" y="720"/>
      <point x="211" y="720" type="curve" smooth="yes"/>
      <point x="272" y="720"/>
      <point x="323" y="688"/>
    </contour>
    <contour>
      <point x="624" y="720" type="curve" smooth="yes"/>
      <point x="631" y="720"/>
      <point x="641" y="719"/>
      <point x="651" y="705" type="curve"/>
      <point x="645" y="701"/>
      <point x="639" y="687"/>
      <point x="634" y="678" type="curve" smooth="yes"/>
      <point x="255" y="19" type="line" smooth="yes"/>
      <point x="246" y="4"/>
      <point x="240" y="-8"/>
      <point x="224" y="-8" type="curve" smooth="yes"/>
      <point x="218" y="-8"/>
      <point x="208" y="-8"/>
      <point x="198" y="7" type="curve"/>
      <point x="201" y="11"/>
      <point x="210" y="25"/>
      <point x="216" y="34" type="curve" smooth="yes"/>
      <point x="594" y="694" type="line" smooth="yes"/>
      <point x="598" y="700"/>
      <point x="610" y="720"/>
    </contour>
  </outline>
</glyph>
<glyph name="AE" format="1">
  <advance width="927"/>
  <unicode hex="00C6"/>
  <outline>
    <contour>
      <point x="830" y="12" type="move" name="ogonek"/>
    </contour>
    <contour>
      <point x="582" y="0" type="move" name="bottom"/>
    </contour>
    <contour>
      <point x="579" y="712" type="move" name="top"/>
    </contour>
    <contour>
      <point x="708" y="391" type="curve"/>
      <point x="458" y="391" type="line"/>
      <point x="458" y="339" type="line"/>
      <point x="702" y="339" type="line" smooth="yes"/>
      <point x="736" y="339"/>
      <point x="759" y="335"/>
      <point x="774" y="324" type="curve"/>
      <point x="787" y="330"/>
      <point x="797" y="341"/>
      <point x="797" y="359" type="curve" smooth="yes"/>
      <point x="797" y="385"/>
      <point x="769" y="391"/>
    </contour>
    <contour>
      <point x="778" y="712" type="curve"/>
      <point x="432" y="712" type="line" smooth="yes"/>
      <point x="407" y="712"/>
      <point x="381" y="696"/>
      <point x="369" y="671" type="curve" smooth="yes"/>
      <point x="63" y="63" type="line" smooth="yes"/>
      <point x="54" y="43"/>
      <point x="38" y="27"/>
      <point x="21" y="24" type="curve"/>
      <point x="32" y="6"/>
      <point x="45" y="-5"/>
      <point x="65" y="-5" type="curve" smooth="yes"/>
      <point x="85" y="-5"/>
      <point x="95" y="6"/>
      <point x="111" y="39" type="curve" smooth="yes"/>
      <point x="439" y="698" type="line"/>
      <point x="413" y="697" type="line"/>
      <point x="413" y="123" type="line" smooth="yes"/>
      <point x="413" y="32"/>
      <point x="460" y="0"/>
      <point x="554" y="0" type="curve" smooth="yes"/>
      <point x="761" y="0" type="line" smooth="yes"/>
      <point x="839" y="0"/>
      <point x="867" y="24"/>
      <point x="867" y="58" type="curve" smooth="yes"/>
      <point x="867" y="72"/>
      <point x="855" y="89"/>
      <point x="837" y="93" type="curve"/>
      <point x="823" y="64"/>
      <point x="801" y="51"/>
      <point x="765" y="51" type="curve" smooth="yes"/>
      <point x="552" y="51" type="line" smooth="yes"/>
      <point x="497" y="51"/>
      <point x="477" y="70"/>
      <point x="477" y="120" type="curve" smooth="yes"/>
      <point x="477" y="660" type="line"/>
      <point x="765" y="660" type="line" smooth="yes"/>
      <point x="801" y="660"/>
      <point x="822" y="653"/>
      <point x="837" y="633" type="curve"/>
      <point x="855" y="637"/>
      <point x="867" y="650"/>
      <point x="867" y="668" type="curve" smooth="yes"/>
      <point x="867" y="695"/>
      <point x="839" y="712"/>
    </contour>
    <contour>
      <point x="448" y="223" type="line"/>
      <point x="167" y="223" type="line"/>
      <point x="145" y="171" type="line"/>
      <point x="448" y="171" type="line"/>
    </contour>
  </outline>
</glyph>
<glyph name="Eth" format="1">
  <advance width="729"/>
  <unicode hex="00D0"/>
  <outline>
    <contour>
      <point x="379" y="371" type="curve" smooth="yes"/>
      <point x="379" y="377"/>
      <point x="377" y="383"/>
      <point x="376" y="387" type="curve"/>
      <point x="97" y="387" type="line" smooth="yes"/>
      <point x="59" y="387"/>
      <point x="27" y="375"/>
      <point x="27" y="343" type="curve" smooth="yes"/>
      <point x="27" y="338"/>
      <point x="29" y="332"/>
      <point x="31" y="329" type="curve"/>
      <point x="309" y="329" type="line" smooth="yes"/>
      <point x="347" y="329"/>
      <point x="379" y="341"/>
    </contour>
    <component base="D"/>
  </outline>
</glyph>
<glyph name="multiply" format="1">
  <advance width="612"/>
  <unicode hex="00D7"/>
  <outline>
    <contour>
      <point x="346" y="303" type="line"/>
      <point x="514" y="496" type="line"/>
      <point x="508" y="504"/>
      <point x="499" y="508"/>
      <point x="490" y="508" type="curve" smooth="yes"/>
      <point x="471" y="508"/>
      <point x="458" y="493"/>
      <point x="441" y="474" type="curve" smooth="yes"/>
      <point x="317" y="333" type="line"/>
      <point x="210" y="451" type="line" smooth="yes"/>
      <point x="174" y="488"/>
      <point x="162" y="508"/>
      <point x="131" y="508" type="curve" smooth="yes"/>
      <point x="114" y="508"/>
      <point x="96" y="499"/>
      <point x="85" y="482" type="curve"/>
      <point x="272" y="280" type="line"/>
      <point x="101" y="82" type="line"/>
      <point x="107" y="72"/>
      <point x="114" y="70"/>
      <point x="123" y="70" type="curve" smooth="yes"/>
      <point x="144" y="70"/>
      <point x="160" y="87"/>
      <point x="173" y="102" type="curve" smooth="yes"/>
      <point x="301" y="250" type="line"/>
      <point x="408" y="136" type="line" smooth="yes"/>
      <point x="439" y="102"/>
      <point x="460" y="79"/>
      <point x="490" y="79" type="curve" smooth="yes"/>
      <point x="515" y="79"/>
      <point x="522" y="93"/>
      <point x="527" y="104" type="curve"/>
    </contour>
  </outline>
</glyph>
<glyph name="oslash" format="1">
  <advance width="555"/>
  <unicode hex="00F8"/>
  <outline>
    <contour>
      <point x="486" y="512" type="curve" smooth="yes"/>
      <point x="498" y="512"/>
      <point x="512" y="503"/>
      <point x="516" y="485" type="curve"/>
      <point x="493" y="474"/>
      <point x="470" y="451"/>
      <point x="457" y="436" type="curve" smooth="yes"/>
      <point x="134" y="24" type="line" smooth="yes"/>
      <point x="114" y="0"/>
      <point x="97" y="-8"/>
      <point x="79" y="-8" type="curve" smooth="yes"/>
      <point x="65" y="-8"/>
      <point x="51" y="0"/>
      <point x="48" y="19" type="curve"/>
      <point x="69" y="31"/>
      <point x="95" y="53"/>
      <point x="106" y="69" type="curve" smooth="yes"/>
      <point x="429" y="479" type="line" smooth="yes"/>
      <point x="449" y="503"/>
      <point x="467" y="512"/>
    </contour>
    <component base="o"/>
  </outline>
</glyph>
<glyph name="oe" format="1">
  <advance width="873"/>
  <unicode hex="0153"/>
  <outline>
    <contour>
      <point x="119" y="252" type="curve" smooth="yes"/>
      <point x="130" y="103"/>
      <point x="207" y="42"/>
      <point x="298" y="42" type="curve" smooth="yes"/>
      <point x="389" y="42"/>
      <point x="458" y="103"/>
      <point x="447" y="252" type="curve" smooth="yes"/>
      <point x="436" y="402"/>
      <point x="360" y="461"/>
      <point x="269" y="461" type="curve" smooth="yes"/>
      <point x="179" y="461"/>
      <point x="108" y="402"/>
    </contour>
    <contour>
      <point x="485" y="389" type="curve"/>
      <point x="531" y="466"/>
      <point x="605" y="512"/>
      <point x="677" y="512" type="curve" smooth="yes"/>
      <point x="778" y="512"/>
      <point x="837" y="429"/>
      <point x="837" y="349" type="curve" smooth="yes"/>
      <point x="837" y="291"/>
      <point x="806" y="261"/>
      <point x="730" y="259" type="curve" smooth="yes"/>
      <point x="507" y="252" type="line"/>
      <point x="507" y="286" type="line"/>
      <point x="725" y="302" type="line" smooth="yes"/>
      <point x="752" y="304"/>
      <point x="768" y="316"/>
      <point x="768" y="351" type="curve" smooth="yes"/>
      <point x="768" y="412"/>
      <point x="728" y="461"/>
      <point x="668" y="461" type="curve" smooth="yes"/>
      <point x="582" y="461"/>
      <point x="516" y="383"/>
      <point x="516" y="250" type="curve" smooth="yes"/>
      <point x="514" y="107"/>
      <point x="583" y="47"/>
      <point x="685" y="47" type="curve" smooth="yes"/>
      <point x="738" y="47"/>
      <point x="786" y="67"/>
      <point x="819" y="97" type="curve"/>
      <point x="827" y="92"/>
      <point x="832" y="85"/>
      <point x="832" y="74" type="curve" smooth="yes"/>
      <point x="832" y="38"/>
      <point x="764" y="-8"/>
      <point x="678" y="-8" type="curve" smooth="yes"/>
      <point x="592" y="-8"/>
      <point x="519" y="30"/>
      <point x="478" y="100" type="curve"/>
      <point x="434" y="28"/>
      <point x="360" y="-8"/>
      <point x="284" y="-8" type="curve" smooth="yes"/>
      <point x="167" y="-8"/>
      <point x="50" y="78"/>
      <point x="50" y="252" type="curve" smooth="yes"/>
      <point x="50" y="427"/>
      <point x="167" y="512"/>
      <point x="284" y="512" type="curve" smooth="yes"/>
      <point x="365" y="512"/>
      <point x="444" y="470"/>
    </contour>
  </outline>
</glyph>
<glyph name="florin" format="1">
  <advance width="519"/>
  <unicode hex="0192"/>
  <outline>
    <contour>
      <point x="406" y="460" type="line"/>
      <point x="409" y="456"/>
      <point x="409" y="453"/>
      <point x="409" y="449" type="curve" smooth="yes"/>
      <point x="409" y="425"/>
      <point x="363" y="404"/>
      <point x="221" y="404" type="curve" smooth="yes"/>
      <point x="174" y="404" type="line" smooth="yes"/>
      <point x="109" y="404"/>
      <point x="86" y="423"/>
      <point x="86" y="443" type="curve" smooth="yes"/>
      <point x="86" y="451"/>
      <point x="90" y="460"/>
      <point x="98" y="467" type="curve"/>
      <point x="114" y="461"/>
      <point x="133" y="460"/>
      <point x="166" y="460" type="curve" smooth="yes"/>
    </contour>
    <contour>
      <point x="480" y="651" type="curve" smooth="yes"/>
      <point x="480" y="640"/>
      <point x="476" y="626"/>
      <point x="466" y="618" type="curve"/>
      <point x="448" y="646"/>
      <point x="422" y="668"/>
      <point x="378" y="668" type="curve" smooth="yes"/>
      <point x="329" y="668"/>
      <point x="285" y="638"/>
      <point x="264" y="558" type="curve" smooth="yes"/>
      <point x="94" y="-140" type="line" smooth="yes"/>
      <point x="81" y="-199"/>
      <point x="48" y="-243"/>
      <point x="-8" y="-243" type="curve" smooth="yes"/>
      <point x="-33" y="-243"/>
      <point x="-54" y="-230"/>
      <point x="-63" y="-202" type="curve"/>
      <point x="-5" y="-202"/>
      <point x="20" y="-178"/>
      <point x="34" y="-120" type="curve" smooth="yes"/>
      <point x="201" y="563" type="line" smooth="yes"/>
      <point x="227" y="667"/>
      <point x="294" y="720"/>
      <point x="373" y="720" type="curve" smooth="yes"/>
      <point x="446" y="720"/>
      <point x="480" y="683"/>
    </contour>
  </outline>
</glyph>
<glyph name="breve" format="1">
  <advance width="273"/>
  <unicode hex="02D8"/>
  <outline>
    <contour>
      <point x="137" y="503" type="move" name="_top"/>
    </contour>
    <contour>
      <point x="206" y="681" type="curve"/>
      <point x="211" y="683"/>
      <point x="215" y="684"/>
      <point x="220" y="684" type="curve" smooth="yes"/>
      <point x="242" y="684"/>
      <point x="261" y="672"/>
      <point x="261" y="645" type="curve" smooth="yes"/>
      <point x="261" y="604"/>
      <point x="216" y="567"/>
      <point x="137" y="567" type="curve" smooth="yes"/>
      <point x="57" y="567"/>
      <point x="12" y="604"/>
      <point x="12" y="645" type="curve" smooth="yes"/>
      <point x="12" y="672"/>
      <point x="31" y="684"/>
      <point x="52" y="684" type="curve" smooth="yes"/>
      <point x="57" y="684"/>
      <point x="61" y="683"/>
      <point x="67" y="681" type="curve"/>
      <point x="67" y="635"/>
      <point x="88" y="602"/>
      <point x="137" y="602" type="curve" smooth="yes"/>
      <point x="185" y="602"/>
      <point x="206" y="635"/>
    </contour>
  </outline>
</glyph>
<glyph name="ring" format="1">
  <advance width="225"/>
  <unicode hex="02DA"/>
  <outline>
    <contour>
      <point x="113" y="730" type="curve" smooth="yes"/>
      <point x="60" y="730"/>
      <point x="12" y="702"/>
      <point x="12" y="644" type="curve" smooth="yes"/>
      <point x="12" y="585"/>
      <point x="60" y="555"/>
      <point x="113" y="555" type="curve" smooth="yes"/>
      <point x="165" y="555"/>
      <point x="213" y="585"/>
      <point x="213" y="644" type="curve" smooth="yes"/>
      <point x="213" y="700"/>
      <point x="165" y="730"/>
    </contour>
    <contour>
      <point x="109" y="700" type="curve" smooth="yes"/>
      <point x="131" y="700"/>
      <point x="151" y="682"/>
      <point x="153" y="644" type="curve" smooth="yes"/>
      <point x="159" y="603"/>
      <point x="141" y="586"/>
      <point x="114" y="586" type="curve" smooth="yes"/>
      <point x="94" y="586"/>
      <point x="73" y="603"/>
      <point x="72" y="644" type="curve" smooth="yes"/>
      <point x="67" y="682"/>
      <point x="87" y="700"/>
    </contour>
    <contour>
      <point x="113" y="503" type="move" name="_top"/>
    </contour>
  </outline>
</glyph>
<glyph name="tilde" format="1">
  <advance width="335"/>
  <unicode hex="02DC"/>
  <outline>
    <contour>
      <point x="159" y="503" type="move" name="_top"/>
    </contour>
    <contour>
      <point x="240" y="642" type="curve" smooth="yes"/>
      <point x="266" y="642"/>
      <point x="286" y="662"/>
      <point x="290" y="695" type="curve"/>
      <point x="300" y="690"/>
      <point x="310" y="680"/>
      <point x="310" y="657" type="curve" smooth="yes"/>
      <point x="310" y="621"/>
      <point x="274" y="584"/>
      <point x="229" y="584" type="curve" smooth="yes"/>
      <point x="172" y="584"/>
      <point x="142" y="638"/>
      <point x="100" y="638" type="curve" smooth="yes"/>
      <point x="70" y="638"/>
      <point x="49" y="617"/>
      <point x="46" y="585" type="curve"/>
      <point x="35" y="589"/>
      <point x="25" y="600"/>
      <point x="25" y="622" type="curve" smooth="yes"/>
      <point x="25" y="659"/>
      <point x="61" y="695"/>
      <point x="107" y="695" type="curve" smooth="yes"/>
      <point x="169" y="695"/>
      <point x="196" y="642"/>
    </contour>
  </outline>
</glyph>
<glyph name="hungarumlaut" format="1">
  <advance width="309"/>
  <unicode hex="02DD"/>
  <outline>
    <contour>
      <point x="78" y="503" type="move" name="_top"/>
    </contour>
    <contour>
      <point x="149" y="713" type="curve"/>
      <point x="148" y="738"/>
      <point x="135" y="755"/>
      <point x="112" y="755" type="curve" smooth="yes"/>
      <point x="82" y="755"/>
      <point x="60" y="735"/>
      <point x="44" y="684" type="curve" smooth="yes"/>
      <point x="12" y="579" type="line"/>
      <point x="15" y="575"/>
      <point x="18" y="571"/>
      <point x="26" y="571" type="curve" smooth="yes"/>
      <point x="34" y="571"/>
      <point x="39" y="575"/>
      <point x="46" y="586" type="curve" smooth="yes"/>
      <point x="107" y="682" type="line" smooth="yes"/>
      <point x="121" y="702"/>
      <point x="134" y="712"/>
    </contour>
    <contour>
      <point x="295" y="707" type="curve"/>
      <point x="304" y="732"/>
      <point x="287" y="755"/>
      <point x="259" y="755" type="curve" smooth="yes"/>
      <point x="229" y="755"/>
      <point x="206" y="737"/>
      <point x="178" y="682" type="curve" smooth="yes"/>
      <point x="128" y="582" type="line"/>
      <point x="133" y="575"/>
      <point x="133" y="571"/>
      <point x="141" y="571" type="curve" smooth="yes"/>
      <point x="151" y="571"/>
      <point x="155" y="575"/>
      <point x="163" y="584" type="curve" smooth="yes"/>
      <point x="242" y="677" type="line" smooth="yes"/>
      <point x="261" y="698"/>
      <point x="280" y="707"/>
    </contour>
  </outline>
</glyph>
<glyph name="dvAnusvara" format="1">
  <advance width="0"/>
  <unicode hex="0902"/>
  <outline>
    <contour>
      <point x="-170" y="646" type="move" name="_abvm.bindu"/>
    </contour>
    <contour>
      <point x="-131" y="761" type="curve" smooth="yes"/>
      <point x="-106" y="761"/>
      <point x="-89" y="779"/>
      <point x="-89" y="803" type="curve" smooth="yes"/>
      <point x="-89" y="833"/>
      <point x="-118" y="861"/>
      <point x="-147" y="861" type="curve" smooth="yes"/>
      <point x="-172" y="861"/>
      <point x="-189" y="843"/>
      <point x="-189" y="819" type="curve" smooth="yes"/>
      <point x="-189" y="789"/>
      <point x="-161" y="761"/>
    </contour>
  </outline>
</glyph>
<glyph name="dvVisarga" format="1">
  <advance width="254"/>
  <unicode hex="0903"/>
  <outline>
    <contour>
      <point x="136" y="419" type="curve" smooth="yes"/>
      <point x="161" y="419"/>
      <point x="178" y="437"/>
      <point x="178" y="461" type="curve" smooth="yes"/>
      <point x="178" y="491"/>
      <point x="149" y="519"/>
      <point x="120" y="519" type="curve" smooth="yes"/>
      <point x="95" y="519"/>
      <point x="78" y="501"/>
      <point x="78" y="477" type="curve" smooth="yes"/>
      <point x="78" y="447"/>
      <point x="106" y="419"/>
    </contour>
    <contour>
      <point x="136" y="105" type="curve" smooth="yes"/>
      <point x="161" y="105"/>
      <point x="178" y="123"/>
      <point x="178" y="147" type="curve" smooth="yes"/>
      <point x="178" y="177"/>
      <point x="149" y="205"/>
      <point x="120" y="205" type="curve" smooth="yes"/>
      <point x="95" y="205"/>
      <point x="78" y="187"/>
      <point x="78" y="163" type="curve" smooth="yes"/>
      <point x="78" y="133"/>
      <point x="106" y="105"/>
    </contour>
  </outline>
</glyph>
<glyph name="dvI" format="1">
  <advance width="488"/>
  <unicode hex="0907"/>
  <outline>
    <contour>
      <point x="236" y="646" type="move" name="abvm.bindu"/>
    </contour>
    <contour>
      <point x="123" y="125" type="line"/>
      <point x="166" y="-64"/>
      <point x="256" y="-120"/>
      <point x="317" y="-120" type="curve" smooth="yes"/>
      <point x="359" y="-120"/>
      <point x="379" y="-98"/>
      <point x="379" y="-76" type="curve" smooth="yes"/>
      <point x="379" y="-62"/>
      <point x="371" y="-48"/>
      <point x="355" y="-41" type="curve"/>
      <point x="340" y="-57"/>
      <point x="320" y="-62"/>
      <point x="303" y="-62" type="curve" smooth="yes"/>
      <point x="241" y="-62"/>
      <point x="187" y="11"/>
      <point x="161" y="94" type="curve"/>
    </contour>
    <contour>
      <point x="269" y="309" type="curve" smooth="yes"/>
      <point x="246" y="309"/>
      <point x="226" y="307"/>
      <point x="207" y="307" type="curve" smooth="yes"/>
      <point x="151" y="307"/>
      <point x="126" y="342"/>
      <point x="126" y="373" type="curve" smooth="yes"/>
      <point x="126" y="422"/>
      <point x="173" y="439"/>
      <point x="207" y="439" type="curve" smooth="yes"/>
      <point x="225" y="439"/>
      <point x="253" y="438"/>
      <point x="273" y="438" type="curve" smooth="yes"/>
      <point x="346" y="438"/>
      <point x="376" y="473"/>
      <point x="376" y="511" type="curve" smooth="yes"/>
      <point x="376" y="543"/>
      <point x="355" y="580"/>
      <point x="316" y="605" type="curve"/>
      <point x="270" y="605" type="line"/>
      <point x="301" y="589"/>
      <point x="324" y="554"/>
      <point x="324" y="529" type="curve" smooth="yes"/>
      <point x="324" y="508"/>
      <point x="308" y="491"/>
      <point x="270" y="491" type="curve" smooth="yes"/>
      <point x="245" y="491"/>
      <point x="225" y="492"/>
      <point x="206" y="492" type="curve" smooth="yes"/>
      <point x="126" y="492"/>
      <point x="74" y="460"/>
      <point x="74" y="395" type="curve" smooth="yes"/>
      <point x="74" y="325"/>
      <point x="164" y="256"/>
      <point x="233" y="256" type="curve" smooth="yes"/>
      <point x="254" y="256"/>
      <point x="278" y="258"/>
      <point x="299" y="258" type="curve" smooth="yes"/>
      <point x="354" y="258"/>
      <point x="384" y="228"/>
      <point x="384" y="185" type="curve" smooth="yes"/>
      <point x="384" y="115"/>
      <point x="307" y="84"/>
      <point x="246" y="84" type="curve" smooth="yes"/>
      <point x="217" y="84"/>
      <point x="178" y="91"/>
      <point x="161" y="103" type="curve"/>
      <point x="151" y="154"/>
      <point x="127" y="197"/>
      <point x="90" y="197" type="curve" smooth="yes"/>
      <point x="67" y="197"/>
      <point x="51" y="179"/>
      <point x="51" y="156" type="curve" smooth="yes"/>
      <point x="51" y="74"/>
      <point x="176" y="33"/>
      <point x="262" y="33" type="curve" smooth="yes"/>
      <point x="353" y="33"/>
      <point x="434" y="86"/>
      <point x="434" y="168" type="curve" smooth="yes"/>
      <point x="434" y="253"/>
      <point x="346" y="309"/>
    </contour>
    <contour>
      <point x="513" y="595" type="line"/>
      <point x="514" y="597"/>
      <point x="515" y="603"/>
      <point x="515" y="608" type="curve" smooth="yes"/>
      <point x="515" y="624"/>
      <point x="507" y="646"/>
      <point x="461" y="646" type="curve" smooth="yes"/>
      <point x="-37" y="646" type="line"/>
      <point x="-38" y="644"/>
      <point x="-39" y="638"/>
      <point x="-39" y="633" type="curve" smooth="yes"/>
      <point x="-39" y="617"/>
      <point x="-31" y="595"/>
      <point x="15" y="595" type="curve" smooth="yes"/>
    </contour>
  </outline>
</glyph>
<glyph name="dvU" format="1">
  <advance width="487"/>
  <unicode hex="0909"/>
  <outline>
    <contour>
      <point x="252" y="646" type="move" name="abvm.bindu"/>
    </contour>
    <contour>
      <point x="-37" y="646" type="line"/>
      <point x="-38" y="644"/>
      <point x="-39" y="638"/>
      <point x="-39" y="633" type="curve" smooth="yes"/>
      <point x="-39" y="617"/>
      <point x="-31" y="595"/>
      <point x="15" y="595" type="curve" smooth="yes"/>
      <point x="512" y="595" type="line"/>
      <point x="513" y="597"/>
      <point x="514" y="603"/>
      <point x="514" y="608" type="curve" smooth="yes"/>
      <point x="514" y="624"/>
      <point x="506" y="646"/>
      <point x="460" y="646" type="curve" smooth="yes"/>
    </contour>
    <contour>
      <point x="305" y="330" type="line"/>
      <point x="322" y="316"/>
      <point x="359" y="276"/>
      <point x="359" y="214" type="curve" smooth="yes"/>
      <point x="359" y="148"/>
      <point x="310" y="109"/>
      <point x="247" y="109" type="curve" smooth="yes"/>
      <point x="146" y="109"/>
      <point x="70" y="209"/>
      <point x="33" y="291" type="curve"/>
      <point x="23" y="289"/>
      <point x="17" y="283"/>
      <point x="17" y="273" type="curve" smooth="yes"/>
      <point x="17" y="226"/>
      <point x="119" y="56"/>
      <point x="269" y="56" type="curve" smooth="yes"/>
      <point x="352" y="56"/>
      <point x="412" y="106"/>
      <point x="412" y="189" type="curve" smooth="yes"/>
      <point x="412" y="292"/>
      <point x="307" y="404"/>
      <point x="216" y="404" type="curve" smooth="yes"/>
      <point x="184" y="404"/>
      <point x="159" y="387"/>
      <point x="159" y="358" type="curve" smooth="yes"/>
      <point x="159" y="319"/>
      <point x="200" y="303"/>
      <point x="231" y="303" type="curve" smooth="yes"/>
      <point x="321" y="303"/>
      <point x="386" y="368"/>
      <point x="386" y="452" type="curve" smooth="yes"/>
      <point x="386" y="528"/>
      <point x="337" y="595"/>
      <point x="280" y="627" type="curve"/>
      <point x="263" y="607" type="line"/>
      <point x="313" y="572"/>
      <point x="339" y="519"/>
      <point x="339" y="474" type="curve" smooth="yes"/>
      <point x="339" y="428"/>
      <point x="310" y="383"/>
      <point x="248" y="357" type="curve"/>
    </contour>
  </outline>
</glyph>
<glyph name="dvUU" format="1">
  <advance width="738"/>
  <unicode hex="090A"/>
  <outline>
    <contour>
      <point x="358" y="646" type="move" name="abvm.bindu"/>
    </contour>
    <contour>
      <point x="-37" y="646" type="line"/>
      <point x="-38" y="644"/>
      <point x="-39" y="638"/>
      <point x="-39" y="633" type="curve" smooth="yes"/>
      <point x="-39" y="617"/>
      <point x="-31" y="595"/>
      <point x="15" y="595" type="curve" smooth="yes"/>
      <point x="763" y="595" type="line"/>
      <point x="764" y="597"/>
      <point x="765" y="603"/>
      <point x="765" y="608" type="curve" smooth="yes"/>
      <point x="765" y="624"/>
      <point x="757" y="646"/>
      <point x="711" y="646" type="curve" smooth="yes"/>
    </contour>
    <contour>
      <point x="311" y="326" type="line"/>
      <point x="329" y="309"/>
      <point x="360" y="271"/>
      <point x="360" y="214" type="curve" smooth="yes"/>
      <point x="360" y="148"/>
      <point x="311" y="109"/>
      <point x="247" y="109" type="curve" smooth="yes"/>
      <point x="146" y="109"/>
      <point x="70" y="209"/>
      <point x="33" y="291" type="curve"/>
      <point x="23" y="289"/>
      <point x="17" y="283"/>
      <point x="17" y="273" type="curve" smooth="yes"/>
      <point x="17" y="226"/>
      <point x="119" y="56"/>
      <point x="269" y="56" type="curve" smooth="yes"/>
      <point x="331" y="56"/>
      <point x="374" y="86"/>
      <point x="400" y="135" type="curve" smooth="yes"/>
      <point x="441" y="209"/>
      <point x="470" y="333"/>
      <point x="572" y="333" type="curve" smooth="yes"/>
      <point x="635" y="333"/>
      <point x="666" y="280"/>
      <point x="666" y="239" type="curve" smooth="yes"/>
      <point x="666" y="166"/>
      <point x="612" y="126"/>
      <point x="552" y="126" type="curve" smooth="yes"/>
      <point x="543" y="126"/>
      <point x="534" y="127"/>
      <point x="524" y="129" type="curve"/>
      <point x="523" y="125"/>
      <point x="523" y="122"/>
      <point x="523" y="119" type="curve" smooth="yes"/>
      <point x="523" y="90"/>
      <point x="555" y="76"/>
      <point x="582" y="76" type="curve" smooth="yes"/>
      <point x="656" y="76"/>
      <point x="713" y="137"/>
      <point x="713" y="214" type="curve" smooth="yes"/>
      <point x="713" y="301"/>
      <point x="634" y="382"/>
      <point x="551" y="382" type="curve" smooth="yes"/>
      <point x="453" y="382"/>
      <point x="408" y="273"/>
      <point x="389" y="197" type="curve"/>
      <point x="407" y="192" type="line"/>
      <point x="407" y="302"/>
      <point x="305" y="404"/>
      <point x="217" y="404" type="curve" smooth="yes"/>
      <point x="185" y="404"/>
      <point x="160" y="387"/>
      <point x="160" y="358" type="curve" smooth="yes"/>
      <point x="160" y="319"/>
      <point x="201" y="303"/>
      <point x="232" y="303" type="curve" smooth="yes"/>
      <point x="322" y="303"/>
      <point x="387" y="368"/>
      <point x="387" y="452" type="curve" smooth="yes"/>
      <point x="387" y="528"/>
      <point x="338" y="595"/>
      <point x="281" y="627" type="curve"/>
      <point x="264" y="607" type="line"/>
      <point x="314" y="572"/>
      <point x="340" y="519"/>
      <point x="340" y="474" type="curve" smooth="yes"/>
      <point x="340" y="428"/>
      <point x="311" y="383"/>
      <point x="249" y="357" type="curve"/>
    </contour>
  </outline>
</glyph>
<glyph name="dvvR" format="1">
  <advance width="694"/>
  <unicode hex="090B"/>
  <outline>
    <contour>
      <point x="372" y="-1" type="move" name="blwm.virama"/>
    </contour>
    <contour>
      <point x="366" y="646" type="move" name="abvm.e"/>
    </contour>
    <contour>
      <point x="303" y="646" type="move" name="abvm.bindu"/>
    </contour>
    <contour>
      <point x="321" y="283" type="line"/>
      <point x="311" y="215"/>
      <point x="309" y="145"/>
      <point x="309" y="78" type="curve" smooth="yes"/>
      <point x="309" y="38"/>
      <point x="314" y="-5"/>
      <point x="355" y="-5" type="curve" smooth="yes"/>
      <point x="359" y="-5"/>
      <point x="366" y="-4"/>
      <point x="372" y="-1" type="curve"/>
      <point x="364" y="11"/>
      <point x="362" y="46"/>
      <point x="362" y="80" type="curve" smooth="yes"/>
      <point x="362" y="238"/>
      <point x="366" y="378"/>
      <point x="366" y="515" type="curve" smooth="yes"/>
      <point x="366" y="554"/>
      <point x="362" y="600"/>
      <point x="325" y="600" type="curve" smooth="yes"/>
      <point x="314" y="600"/>
      <point x="308" y="598"/>
      <point x="303" y="595" type="curve"/>
      <point x="311" y="583"/>
      <point x="313" y="547"/>
      <point x="313" y="513" type="curve" smooth="yes"/>
      <point x="313" y="442"/>
      <point x="312" y="373"/>
      <point x="311" y="308" type="curve"/>
      <point x="330" y="343" type="line"/>
      <point x="227" y="265"/>
      <point x="100" y="196"/>
      <point x="21" y="196" type="curve"/>
      <point x="21" y="160"/>
      <point x="47" y="149"/>
      <point x="71" y="149" type="curve" smooth="yes"/>
      <point x="148" y="149"/>
      <point x="275" y="231"/>
      <point x="345" y="283" type="curve"/>
    </contour>
    <contour>
      <point x="462" y="241" type="curve" smooth="yes"/>
      <point x="562" y="241"/>
      <point x="626" y="306"/>
      <point x="626" y="369" type="curve" smooth="yes"/>
      <point x="626" y="418"/>
      <point x="590" y="456"/>
      <point x="556" y="456" type="curve" smooth="yes"/>
      <point x="527" y="456"/>
      <point x="506" y="432"/>
      <point x="506" y="399" type="curve" smooth="yes"/>
      <point x="506" y="360"/>
      <point x="532" y="332"/>
      <point x="541" y="319" type="curve"/>
      <point x="520" y="304"/>
      <point x="479" y="292"/>
      <point x="435" y="292" type="curve" smooth="yes"/>
      <point x="282" y="292"/>
      <point x="210" y="459"/>
      <point x="93" y="459" type="curve" smooth="yes"/>
      <point x="45" y="459"/>
      <point x="13" y="433"/>
      <point x="13" y="397" type="curve" smooth="yes"/>
      <point x="13" y="376"/>
      <point x="24" y="358"/>
      <point x="43" y="353" type="curve"/>
      <point x="51" y="390"/>
      <point x="82" y="408"/>
      <point x="115" y="408" type="curve" smooth="yes"/>
      <point x="196" y="408"/>
      <point x="310" y="241"/>
    </contour>
    <contour>
      <point x="549" y="309" type="line"/>
      <point x="576" y="266"/>
      <point x="607" y="225"/>
      <point x="607" y="183" type="curve" smooth="yes"/>
      <point x="607" y="150"/>
      <point x="584" y="136"/>
      <point x="561" y="136" type="curve" smooth="yes"/>
      <point x="553" y="136"/>
      <point x="545" y="137"/>
      <point x="539" y="140" type="curve"/>
      <point x="540" y="107"/>
      <point x="563" y="88"/>
      <point x="590" y="88" type="curve" smooth="yes"/>
      <point x="633" y="88"/>
      <point x="656" y="122"/>
      <point x="656" y="162" type="curve" smooth="yes"/>
      <point x="656" y="240"/>
      <point x="588" y="289"/>
      <point x="563" y="353" type="curve"/>
    </contour>
    <contour>
      <point x="-37" y="646" type="line"/>
      <point x="-38" y="644"/>
      <point x="-39" y="638"/>
      <point x="-39" y="633" type="curve" smooth="yes"/>
      <point x="-39" y="617"/>
      <point x="-31" y="595"/>
      <point x="15" y="595" type="curve" smooth="yes"/>
      <point x="719" y="595" type="line"/>
      <point x="720" y="597"/>
      <point x="721" y="603"/>
      <point x="721" y="608" type="curve" smooth="yes"/>
      <point x="721" y="624"/>
      <point x="713" y="646"/>
      <point x="667" y="646" type="curve" smooth="yes"/>
    </contour>
  </outline>
</glyph>
<glyph name="dvvL" format="1">
  <advance width="702"/>
  <unicode hex="090C"/>
  <outline>
    <contour>
      <point x="428" y="646" type="move" name="abvm.bindu"/>
    </contour>
    <contour>
      <point x="448" y="434" type="curve" smooth="yes"/>
      <point x="398" y="434"/>
      <point x="354" y="404"/>
      <point x="322" y="363" type="curve"/>
      <point x="346" y="279" type="line"/>
      <point x="369" y="341"/>
      <point x="412" y="384"/>
      <point x="468" y="384" type="curve" smooth="yes"/>
      <point x="530" y="384"/>
      <point x="569" y="335"/>
      <point x="569" y="275" type="curve" smooth="yes"/>
      <point x="569" y="180"/>
      <point x="459" y="119"/>
      <point x="459" y="35" type="curve" smooth="yes"/>
      <point x="459" y="-51"/>
      <point x="544" y="-111"/>
      <point x="604" y="-111" type="curve" smooth="yes"/>
      <point x="671" y="-111"/>
      <point x="710" y="-66"/>
      <point x="710" y="-22" type="curve" smooth="yes"/>
      <point x="710" y="-4"/>
      <point x="702" y="17"/>
      <point x="674" y="22" type="curve"/>
      <point x="666" y="-25"/>
      <point x="634" y="-64"/>
      <point x="580" y="-64" type="curve" smooth="yes"/>
      <point x="546" y="-64"/>
      <point x="508" y="-40"/>
      <point x="508" y="7" type="curve" smooth="yes"/>
      <point x="508" y="93"/>
      <point x="621" y="156"/>
      <point x="621" y="251" type="curve" smooth="yes"/>
      <point x="621" y="342"/>
      <point x="540" y="434"/>
    </contour>
    <contour>
      <point x="490" y="404" type="line"/>
      <point x="490" y="441"/>
      <point x="491" y="478"/>
      <point x="491" y="515" type="curve" smooth="yes"/>
      <point x="491" y="554"/>
      <point x="487" y="600"/>
      <point x="450" y="600" type="curve" smooth="yes"/>
      <point x="439" y="600"/>
      <point x="433" y="598"/>
      <point x="428" y="595" type="curve"/>
      <point x="436" y="583"/>
      <point x="438" y="547"/>
      <point x="438" y="513" type="curve" smooth="yes"/>
      <point x="438" y="474"/>
      <point x="437" y="436"/>
      <point x="437" y="399" type="curve"/>
    </contour>
    <contour>
      <point x="-37" y="646" type="line"/>
      <point x="-38" y="644"/>
      <point x="-39" y="638"/>
      <point x="-39" y="633" type="curve" smooth="yes"/>
      <point x="-39" y="617"/>
      <point x="-31" y="595"/>
      <point x="15" y="595" type="curve" smooth="yes"/>
      <point x="727" y="595" type="line"/>
      <point x="728" y="597"/>
      <point x="729" y="603"/>
      <point x="729" y="608" type="curve" smooth="yes"/>
      <point x="729" y="624"/>
      <point x="721" y="646"/>
      <point x="675" y="646" type="curve" smooth="yes"/>
    </contour>
    <contour>
      <point x="208" y="385" type="curve" smooth="yes"/>
      <point x="251" y="385"/>
      <point x="284" y="361"/>
      <point x="306" y="334" type="curve"/>
      <point x="289" y="307"/>
      <point x="279" y="277"/>
      <point x="279" y="248" type="curve" smooth="yes"/>
      <point x="279" y="211"/>
      <point x="300" y="183"/>
      <point x="331" y="183" type="curve" smooth="yes"/>
      <point x="369" y="183"/>
      <point x="380" y="222"/>
      <point x="380" y="248" type="curve" smooth="yes"/>
      <point x="380" y="352"/>
      <point x="273" y="436"/>
      <point x="190" y="436" type="curve" smooth="yes"/>
      <point x="114" y="436"/>
      <point x="45" y="388"/>
      <point x="45" y="281" type="curve" smooth="yes"/>
      <point x="45" y="152"/>
      <point x="157" y="13"/>
      <point x="196" y="13" type="curve" smooth="yes"/>
      <point x="206" y="13"/>
      <point x="211" y="19"/>
      <point x="213" y="25" type="curve"/>
      <point x="147" y="88"/>
      <point x="100" y="172"/>
      <point x="100" y="259" type="curve" smooth="yes"/>
      <point x="100" y="323"/>
      <point x="133" y="385"/>
    </contour>
  </outline>
</glyph>
<glyph name="dvE" format="1">
  <advance width="557"/>
  <unicode hex="090F"/>
  <outline>
    <contour>
      <point x="413" y="-27" type="curve"/>
      <point x="413" y="-35"/>
      <point x="423" y="-63"/>
      <point x="456" y="-63" type="curve" smooth="yes"/>
      <point x="494" y="-63"/>
      <point x="510" y="-31"/>
      <point x="510" y="-4" type="curve" smooth="yes"/>
      <point x="510" y="142"/>
      <point x="150" y="173"/>
      <point x="150" y="326" type="curve" smooth="yes"/>
      <point x="150" y="391"/>
      <point x="152" y="453"/>
      <point x="152" y="515" type="curve" smooth="yes"/>
      <point x="152" y="554"/>
      <point x="148" y="600"/>
      <point x="111" y="600" type="curve" smooth="yes"/>
      <point x="100" y="600"/>
      <point x="94" y="598"/>
      <point x="89" y="595" type="curve"/>
      <point x="97" y="583"/>
      <point x="99" y="547"/>
      <point x="99" y="513" type="curve" smooth="yes"/>
      <point x="99" y="451"/>
      <point x="97" y="392"/>
      <point x="97" y="335" type="curve" smooth="yes"/>
      <point x="97" y="160"/>
      <point x="456" y="119"/>
      <point x="456" y="12" type="curve" smooth="yes"/>
      <point x="456" y="-16"/>
      <point x="431" y="-27"/>
    </contour>
    <contour>
      <point x="-37" y="646" type="line"/>
      <point x="-38" y="644"/>
      <point x="-39" y="638"/>
      <point x="-39" y="633" type="curve" smooth="yes"/>
      <point x="-39" y="617"/>
      <point x="-31" y="595"/>
      <point x="15" y="595" type="curve" smooth="yes"/>
      <point x="582" y="595" type="line"/>
      <point x="583" y="597"/>
      <point x="584" y="603"/>
      <point x="584" y="608" type="curve" smooth="yes"/>
      <point x="584" y="624"/>
      <point x="576" y="646"/>
      <point x="530" y="646" type="curve" smooth="yes"/>
    </contour>
    <contour>
      <point x="310" y="349" type="curve"/>
      <point x="310" y="313"/>
      <point x="346" y="291"/>
      <point x="385" y="291" type="curve" smooth="yes"/>
      <point x="431" y="291"/>
      <point x="482" y="323"/>
      <point x="482" y="401" type="curve" smooth="yes"/>
      <point x="482" y="467"/>
      <point x="461" y="531"/>
      <point x="429" y="596" type="curve"/>
      <point x="394" y="598" type="line"/>
      <point x="410" y="565"/>
      <point x="432" y="492"/>
      <point x="432" y="432" type="curve" smooth="yes"/>
      <point x="432" y="368"/>
      <point x="398" y="339"/>
      <point x="356" y="339" type="curve" smooth="yes"/>
      <point x="341" y="339"/>
      <point x="326" y="342"/>
    </contour>
  </outline>
</glyph>
<glyph name="dvO" format="1">
  <advance width="959"/>
  <unicode hex="0913"/>
  <outline>
    <contour>
      <point x="890" y="646" type="move" name="abvm.bindu"/>
    </contour>
    <component base="dvAA"/>
    <component base="dvmE" xOffset="960"/>
  </outline>
</glyph>
<glyph name="dvAU" format="1">
  <advance width="959"/>
  <unicode hex="0914"/>
  <outline>
    <contour>
      <point x="942" y="646" type="move" name="abvm.bindu"/>
    </contour>
    <component base="dvmAI" xOffset="960"/>
    <component base="dvAA"/>
  </outline>
</glyph>
<glyph name="dvGA" format="1">
  <advance width="555"/>
  <unicode hex="0917"/>
  <outline>
    <contour>
      <point x="-37" y="646" type="line"/>
      <point x="-38" y="644"/>
      <point x="-39" y="638"/>
      <point x="-39" y="633" type="curve" smooth="yes"/>
      <point x="-39" y="617"/>
      <point x="-31" y="595"/>
      <point x="15" y="595" type="curve" smooth="yes"/>
      <point x="580" y="595" type="line"/>
      <point x="581" y="597"/>
      <point x="582" y="603"/>
      <point x="582" y="608" type="curve" smooth="yes"/>
      <point x="582" y="624"/>
      <point x="574" y="646"/>
      <point x="528" y="646" type="curve" smooth="yes"/>
    </contour>
    <contour>
      <point x="395" y="513" type="curve" smooth="yes"/>
      <point x="395" y="355"/>
      <point x="391" y="215"/>
      <point x="391" y="78" type="curve" smooth="yes"/>
      <point x="391" y="38"/>
      <point x="396" y="-5"/>
      <point x="437" y="-5" type="curve" smooth="yes"/>
      <point x="441" y="-5"/>
      <point x="448" y="-4"/>
      <point x="454" y="-1" type="curve"/>
      <point x="446" y="11"/>
      <point x="444" y="46"/>
      <point x="444" y="80" type="curve" smooth="yes"/>
      <point x="444" y="238"/>
      <point x="448" y="378"/>
      <point x="448" y="515" type="curve" smooth="yes"/>
      <point x="448" y="554"/>
      <point x="444" y="600"/>
      <point x="407" y="600" type="curve" smooth="yes"/>
      <point x="396" y="600"/>
      <point x="390" y="598"/>
      <point x="385" y="595" type="curve"/>
      <point x="393" y="583"/>
      <point x="395" y="547"/>
    </contour>
    <contour>
      <point x="87" y="598" type="line"/>
      <point x="135" y="551"/>
      <point x="177" y="455"/>
      <point x="177" y="372" type="curve" smooth="yes"/>
      <point x="177" y="342"/>
      <point x="172" y="314"/>
      <point x="159" y="291" type="curve"/>
      <point x="150" y="323"/>
      <point x="122" y="341"/>
      <point x="99" y="341" type="curve" smooth="yes"/>
      <point x="73" y="341"/>
      <point x="56" y="323"/>
      <point x="56" y="298" type="curve" smooth="yes"/>
      <point x="56" y="254"/>
      <point x="102" y="219"/>
      <point x="142" y="219" type="curve" smooth="yes"/>
      <point x="205" y="219"/>
      <point x="229" y="270"/>
      <point x="229" y="336" type="curve" smooth="yes"/>
      <point x="229" y="430"/>
      <point x="188" y="542"/>
      <point x="124" y="609" type="curve"/>
    </contour>
  </outline>
</glyph>
<glyph name="dvJHA" format="1">
  <advance width="735"/>
  <unicode hex="091D"/>
  <outline>
    <contour>
      <point x="-37" y="646" type="line"/>
      <point x="-38" y="644"/>
      <point x="-39" y="638"/>
      <point x="-39" y="633" type="curve" smooth="yes"/>
      <point x="-39" y="617"/>
      <point x="-31" y="595"/>
      <point x="15" y="595" type="curve" smooth="yes"/>
      <point x="760" y="595" type="line"/>
      <point x="761" y="597"/>
      <point x="762" y="603"/>
      <point x="762" y="608" type="curve" smooth="yes"/>
      <point x="762" y="624"/>
      <point x="754" y="646"/>
      <point x="708" y="646" type="curve" smooth="yes"/>
    </contour>
    <contour>
      <point x="582" y="342" type="line"/>
      <point x="557" y="316"/>
      <point x="496" y="289"/>
      <point x="429" y="289" type="curve" smooth="yes"/>
      <point x="356" y="289"/>
      <point x="322" y="314"/>
      <point x="272" y="314" type="curve" smooth="yes"/>
      <point x="248" y="314"/>
      <point x="228" y="312"/>
      <point x="207" y="312" type="curve" smooth="yes"/>
      <point x="151" y="312"/>
      <point x="126" y="344"/>
      <point x="126" y="373" type="curve" smooth="yes"/>
      <point x="126" y="422"/>
      <point x="173" y="439"/>
      <point x="207" y="439" type="curve" smooth="yes"/>
      <point x="225" y="439"/>
      <point x="253" y="438"/>
      <point x="273" y="438" type="curve" smooth="yes"/>
      <point x="346" y="438"/>
      <point x="376" y="473"/>
      <point x="376" y="511" type="curve" smooth="yes"/>
      <point x="376" y="543"/>
      <point x="355" y="580"/>
      <point x="316" y="605" type="curve"/>
      <point x="270" y="605" type="line"/>
      <point x="299" y="590"/>
      <point x="325" y="556"/>
      <point x="325" y="531" type="curve" smooth="yes"/>
      <point x="325" y="498"/>
      <point x="295" y="491"/>
      <point x="270" y="491" type="curve" smooth="yes"/>
      <point x="245" y="491"/>
      <point x="225" y="492"/>
      <point x="206" y="492" type="curve" smooth="yes"/>
      <point x="126" y="492"/>
      <point x="74" y="460"/>
      <point x="74" y="395" type="curve" smooth="yes"/>
      <point x="74" y="328"/>
      <point x="164" y="261"/>
      <point x="233" y="261" type="curve" smooth="yes"/>
      <point x="254" y="261"/>
      <point x="278" y="263"/>
      <point x="299" y="263" type="curve" smooth="yes"/>
      <point x="354" y="263"/>
      <point x="384" y="231"/>
      <point x="384" y="185" type="curve" smooth="yes"/>
      <point x="384" y="115"/>
      <point x="307" y="84"/>
      <point x="246" y="84" type="curve" smooth="yes"/>
      <point x="217" y="84"/>
      <point x="178" y="91"/>
      <point x="161" y="103" type="curve"/>
      <point x="151" y="154"/>
      <point x="127" y="197"/>
      <point x="90" y="197" type="curve" smooth="yes"/>
      <point x="67" y="197"/>
      <point x="51" y="179"/>
      <point x="51" y="156" type="curve" smooth="yes"/>
      <point x="51" y="74"/>
      <point x="176" y="33"/>
      <point x="262" y="33" type="curve" smooth="yes"/>
      <point x="353" y="33"/>
      <point x="434" y="86"/>
      <point x="434" y="168" type="curve" smooth="yes"/>
      <point x="434" y="212"/>
      <point x="413" y="248"/>
      <point x="382" y="274" type="curve"/>
      <point x="329" y="273" type="line"/>
      <point x="376" y="252"/>
      <point x="426" y="244"/>
      <point x="468" y="244" type="curve" smooth="yes"/>
      <point x="515" y="244"/>
      <point x="560" y="258"/>
      <point x="585" y="274" type="curve"/>
      <point x="579" y="286" type="line"/>
      <point x="572" y="216"/>
      <point x="571" y="146"/>
      <point x="571" y="78" type="curve" smooth="yes"/>
      <point x="571" y="38"/>
      <point x="576" y="-5"/>
      <point x="617" y="-5" type="curve" smooth="yes"/>
      <point x="621" y="-5"/>
      <point x="628" y="-4"/>
      <point x="634" y="-1" type="curve"/>
      <point x="626" y="11"/>
      <point x="624" y="46"/>
      <point x="624" y="80" type="curve" smooth="yes"/>
      <point x="624" y="238"/>
      <point x="628" y="378"/>
      <point x="628" y="515" type="curve" smooth="yes"/>
      <point x="628" y="554"/>
      <point x="624" y="600"/>
      <point x="587" y="600" type="curve" smooth="yes"/>
      <point x="576" y="600"/>
      <point x="570" y="598"/>
      <point x="565" y="595" type="curve"/>
      <point x="573" y="583"/>
      <point x="575" y="547"/>
      <point x="575" y="513" type="curve" smooth="yes"/>
      <point x="575" y="437"/>
      <point x="574" y="365"/>
      <point x="573" y="296" type="curve"/>
    </contour>
    <contour>
      <point x="123" y="125" type="line"/>
      <point x="166" y="-64"/>
      <point x="256" y="-120"/>
      <point x="317" y="-120" type="curve" smooth="yes"/>
      <point x="359" y="-120"/>
      <point x="379" y="-98"/>
      <point x="379" y="-76" type="curve" smooth="yes"/>
      <point x="379" y="-62"/>
      <point x="371" y="-48"/>
      <point x="355" y="-41" type="curve"/>
      <point x="340" y="-57"/>
      <point x="320" y="-62"/>
      <point x="303" y="-62" type="curve" smooth="yes"/>
      <point x="241" y="-62"/>
      <point x="187" y="11"/>
      <point x="161" y="94" type="curve"/>
    </contour>
  </outline>
</glyph>
<glyph name="dvTTA" format="1">
  <advance width="434"/>
  <unicode hex="091F"/>
  <outline>
    <contour>
      <point x="285" y="11" type="move" name="blwm.r"/>
    </contour>
    <contour>
      <point x="222" y="646" type="move" name="abvm.bindu"/>
    </contour>
    <contour>
      <point x="247" y="71" type="move" name="blwm.virama"/>
    </contour>
    <contour>
      <point x="296" y="646" type="move" name="abvm.e"/>
    </contour>
    <contour>
      <point x="285" y="36" type="move" name="blwm.u"/>
    </contour>
    <contour>
      <point x="258" y="36" type="move" name="blwm.uu"/>
    </contour>
    <contour>
      <point x="242" y="596" type="line"/>
      <point x="259" y="586"/>
      <point x="275" y="565"/>
      <point x="275" y="542" type="curve" smooth="yes"/>
      <point x="275" y="445"/>
      <point x="25" y="442"/>
      <point x="25" y="266" type="curve" smooth="yes"/>
      <point x="25" y="160"/>
      <point x="145" y="81"/>
      <point x="244" y="81" type="curve" smooth="yes"/>
      <point x="337" y="81"/>
      <point x="413" y="140"/>
      <point x="413" y="200" type="curve" smooth="yes"/>
      <point x="413" y="227"/>
      <point x="393" y="242"/>
      <point x="372" y="242" type="curve"/>
      <point x="359" y="166"/>
      <point x="289" y="125"/>
      <point x="218" y="125" type="curve" smooth="yes"/>
      <point x="145" y="125"/>
      <point x="76" y="176"/>
      <point x="76" y="249" type="curve" smooth="yes"/>
      <point x="76" y="401"/>
      <point x="321" y="393"/>
      <point x="321" y="521" type="curve" smooth="yes"/>
      <point x="321" y="564"/>
      <point x="298" y="596"/>
      <point x="264" y="616" type="curve"/>
    </contour>
    <contour>
      <point x="-37" y="646" type="line"/>
      <point x="-38" y="644"/>
      <point x="-39" y="638"/>
      <point x="-39" y="633" type="curve" smooth="yes"/>
      <point x="-39" y="617"/>
      <point x="-31" y="595"/>
      <point x="15" y="595" type="curve" smooth="yes"/>
      <point x="459" y="595" type="line"/>
      <point x="460" y="597"/>
      <point x="461" y="603"/>
      <point x="461" y="608" type="curve" smooth="yes"/>
      <point x="461" y="624"/>
      <point x="453" y="646"/>
      <point x="407" y="646" type="curve" smooth="yes"/>
    </contour>
  </outline>
</glyph>
<glyph name="dvNNA" format="1">
  <advance width="722"/>
  <unicode hex="0923"/>
  <outline>
    <contour>
      <point x="-37" y="646" type="line"/>
      <point x="-38" y="644"/>
      <point x="-39" y="638"/>
      <point x="-39" y="633" type="curve" smooth="yes"/>
      <point x="-39" y="617"/>
      <point x="-31" y="595"/>
      <point x="15" y="595" type="curve" smooth="yes"/>
      <point x="747" y="595" type="line"/>
      <point x="748" y="597"/>
      <point x="749" y="603"/>
      <point x="749" y="608" type="curve" smooth="yes"/>
      <point x="749" y="624"/>
      <point x="741" y="646"/>
      <point x="695" y="646" type="curve" smooth="yes"/>
    </contour>
    <contour>
      <point x="562" y="513" type="curve" smooth="yes"/>
      <point x="562" y="355"/>
      <point x="558" y="215"/>
      <point x="558" y="78" type="curve" smooth="yes"/>
      <point x="558" y="38"/>
      <point x="563" y="-5"/>
      <point x="604" y="-5" type="curve" smooth="yes"/>
      <point x="608" y="-5"/>
      <point x="615" y="-4"/>
      <point x="621" y="-1" type="curve"/>
      <point x="613" y="11"/>
      <point x="611" y="46"/>
      <point x="611" y="80" type="curve" smooth="yes"/>
      <point x="611" y="238"/>
      <point x="615" y="378"/>
      <point x="615" y="515" type="curve" smooth="yes"/>
      <point x="615" y="554"/>
      <point x="611" y="600"/>
      <point x="574" y="600" type="curve" smooth="yes"/>
      <point x="563" y="600"/>
      <point x="557" y="598"/>
      <point x="552" y="595" type="curve"/>
      <point x="560" y="583"/>
      <point x="562" y="547"/>
    </contour>
    <contour>
      <point x="298" y="596" type="line"/>
      <point x="321" y="537"/>
      <point x="321" y="445"/>
      <point x="321" y="414" type="curve" smooth="yes"/>
      <point x="321" y="276"/>
      <point x="281" y="232"/>
      <point x="221" y="232" type="curve" smooth="yes"/>
      <point x="150" y="232"/>
      <point x="123" y="298"/>
      <point x="123" y="375" type="curve" smooth="yes"/>
      <point x="123" y="426"/>
      <point x="125" y="471"/>
      <point x="125" y="515" type="curve" smooth="yes"/>
      <point x="125" y="554"/>
      <point x="121" y="600"/>
      <point x="84" y="600" type="curve" smooth="yes"/>
      <point x="73" y="600"/>
      <point x="67" y="598"/>
      <point x="62" y="595" type="curve"/>
      <point x="70" y="583"/>
      <point x="72" y="547"/>
      <point x="72" y="513" type="curve" smooth="yes"/>
      <point x="72" y="462"/>
      <point x="70" y="417"/>
      <point x="70" y="373" type="curve" smooth="yes"/>
      <point x="70" y="271"/>
      <point x="159" y="188"/>
      <point x="244" y="188" type="curve" smooth="yes"/>
      <point x="310" y="188"/>
      <point x="373" y="226"/>
      <point x="373" y="379" type="curve" smooth="yes"/>
      <point x="373" y="445"/>
      <point x="362" y="552"/>
      <point x="322" y="608" type="curve"/>
    </contour>
  </outline>
</glyph>
<glyph name="dvTA" format="1">
  <advance width="527"/>
  <unicode hex="0924"/>
  <outline>
    <contour>
      <point x="-37" y="646" type="line"/>
      <point x="-38" y="644"/>
      <point x="-39" y="638"/>
      <point x="-39" y="633" type="curve" smooth="yes"/>
      <point x="-39" y="617"/>
      <point x="-31" y="595"/>
      <point x="15" y="595" type="curve" smooth="yes"/>
      <point x="552" y="595" type="line"/>
      <point x="553" y="597"/>
      <point x="554" y="603"/>
      <point x="554" y="608" type="curve" smooth="yes"/>
      <point x="554" y="624"/>
      <point x="546" y="646"/>
      <point x="500" y="646" type="curve" smooth="yes"/>
    </contour>
    <contour>
      <point x="367" y="513" type="curve" smooth="yes"/>
      <point x="367" y="355"/>
      <point x="363" y="215"/>
      <point x="363" y="78" type="curve" smooth="yes"/>
      <point x="363" y="38"/>
      <point x="368" y="-5"/>
      <point x="409" y="-5" type="curve" smooth="yes"/>
      <point x="413" y="-5"/>
      <point x="420" y="-4"/>
      <point x="426" y="-1" type="curve"/>
      <point x="418" y="11"/>
      <point x="416" y="46"/>
      <point x="416" y="80" type="curve" smooth="yes"/>
      <point x="416" y="238"/>
      <point x="420" y="378"/>
      <point x="420" y="515" type="curve" smooth="yes"/>
      <point x="420" y="554"/>
      <point x="416" y="600"/>
      <point x="379" y="600" type="curve" smooth="yes"/>
      <point x="368" y="600"/>
      <point x="362" y="598"/>
      <point x="357" y="595" type="curve"/>
      <point x="365" y="583"/>
      <point x="367" y="547"/>
    </contour>
    <contour>
      <point x="55" y="287" type="curve" smooth="yes"/>
      <point x="55" y="155"/>
      <point x="167" y="13"/>
      <point x="206" y="13" type="curve" smooth="yes"/>
      <point x="216" y="13"/>
      <point x="221" y="19"/>
      <point x="223" y="25" type="curve"/>
      <point x="154" y="87"/>
      <point x="110" y="183"/>
      <point x="110" y="266" type="curve" smooth="yes"/>
      <point x="110" y="346"/>
      <point x="158" y="379"/>
      <point x="243" y="379" type="curve" smooth="yes"/>
      <point x="369" y="379" type="line"/>
      <point x="369" y="419" type="line"/>
      <point x="313" y="426"/>
      <point x="262" y="430"/>
      <point x="215" y="430" type="curve" smooth="yes"/>
      <point x="119" y="430"/>
      <point x="55" y="375"/>
    </contour>
  </outline>
</glyph>
<glyph name="dvTHA" format="1">
  <advance width="614"/>
  <unicode hex="0925"/>
  <outline>
    <contour>
      <point x="397" y="646" type="line"/>
      <point x="396" y="644"/>
      <point x="395" y="638"/>
      <point x="395" y="633" type="curve" smooth="yes"/>
      <point x="395" y="611"/>
      <point x="409" y="603"/>
      <point x="423" y="596" type="curve" smooth="yes"/>
      <point x="445" y="585"/>
      <point x="454" y="571"/>
      <point x="454" y="513" type="curve" smooth="yes"/>
      <point x="454" y="427"/>
      <point x="452" y="346"/>
      <point x="451" y="269" type="curve"/>
      <point x="461" y="298" type="line"/>
      <point x="407" y="222"/>
      <point x="323" y="196"/>
      <point x="255" y="196" type="curve" smooth="yes"/>
      <point x="174" y="196"/>
      <point x="102" y="247"/>
      <point x="102" y="288" type="curve" smooth="yes"/>
      <point x="102" y="343"/>
      <point x="329" y="367"/>
      <point x="329" y="497" type="curve" smooth="yes"/>
      <point x="329" y="571"/>
      <point x="259" y="646"/>
      <point x="181" y="646" type="curve" smooth="yes"/>
      <point x="128" y="646"/>
      <point x="76" y="608"/>
      <point x="76" y="542" type="curve" smooth="yes"/>
      <point x="76" y="494"/>
      <point x="109" y="448"/>
      <point x="146" y="448" type="curve" smooth="yes"/>
      <point x="151" y="448"/>
      <point x="156" y="450"/>
      <point x="158" y="452" type="curve"/>
      <point x="140" y="468"/>
      <point x="128" y="492"/>
      <point x="128" y="522" type="curve" smooth="yes"/>
      <point x="128" y="566"/>
      <point x="162" y="599"/>
      <point x="207" y="599" type="curve" smooth="yes"/>
      <point x="250" y="599"/>
      <point x="279" y="566"/>
      <point x="279" y="526" type="curve" smooth="yes"/>
      <point x="279" y="401"/>
      <point x="49" y="394"/>
      <point x="49" y="316" type="curve" smooth="yes"/>
      <point x="49" y="249"/>
      <point x="155" y="148"/>
      <point x="285" y="148" type="curve" smooth="yes"/>
      <point x="359" y="148"/>
      <point x="446" y="175"/>
      <point x="493" y="252" type="curve"/>
      <point x="459" y="228" type="line"/>
      <point x="451" y="172"/>
      <point x="450" y="110"/>
      <point x="450" y="78" type="curve" smooth="yes"/>
      <point x="450" y="38"/>
      <point x="455" y="-5"/>
      <point x="496" y="-5" type="curve" smooth="yes"/>
      <point x="500" y="-5"/>
      <point x="507" y="-4"/>
      <point x="513" y="-1" type="curve"/>
      <point x="505" y="11"/>
      <point x="503" y="46"/>
      <point x="503" y="80" type="curve" smooth="yes"/>
      <point x="503" y="238"/>
      <point x="507" y="378"/>
      <point x="507" y="515" type="curve" smooth="yes"/>
      <point x="507" y="554"/>
      <point x="504" y="594"/>
      <point x="466" y="600" type="curve"/>
      <point x="472" y="595" type="line"/>
      <point x="639" y="595" type="line"/>
      <point x="640" y="597"/>
      <point x="641" y="603"/>
      <point x="641" y="608" type="curve" smooth="yes"/>
      <point x="641" y="624"/>
      <point x="633" y="646"/>
      <point x="587" y="646" type="curve" smooth="yes"/>
    </contour>
  </outline>
</glyph>
<glyph name="dvDA" format="1">
  <advance width="470"/>
  <unicode hex="0926"/>
  <outline>
    <contour>
      <point x="353" y="646" type="move" name="abvm.e"/>
    </contour>
    <contour>
      <point x="265" y="646" type="move" name="abvm.bindu"/>
    </contour>
    <contour>
      <point x="341" y="-19" type="move" name="blwm.virama"/>
    </contour>
    <contour>
      <point x="383" y="-13" type="move" name="blwm.u"/>
    </contour>
    <contour>
      <point x="383" y="-8" type="move" name="blwm.uu"/>
    </contour>
    <contour>
      <point x="356" y="184" type="line"/>
      <point x="328" y="164"/>
      <point x="289" y="154"/>
      <point x="251" y="154" type="curve" smooth="yes"/>
      <point x="172" y="154"/>
      <point x="92" y="196"/>
      <point x="92" y="281" type="curve" smooth="yes"/>
      <point x="92" y="449"/>
      <point x="375" y="409"/>
      <point x="375" y="535" type="curve" smooth="yes"/>
      <point x="375" y="585"/>
      <point x="336" y="616"/>
      <point x="318" y="620" type="curve"/>
      <point x="306" y="597" type="line"/>
      <point x="323" y="586"/>
      <point x="331" y="571"/>
      <point x="331" y="555" type="curve" smooth="yes"/>
      <point x="331" y="471"/>
      <point x="40" y="493"/>
      <point x="40" y="299" type="curve" smooth="yes"/>
      <point x="40" y="202"/>
      <point x="154" y="105"/>
      <point x="283" y="105" type="curve" smooth="yes"/>
      <point x="358" y="105"/>
      <point x="423" y="136"/>
      <point x="423" y="207" type="curve" smooth="yes"/>
      <point x="423" y="239"/>
      <point x="399" y="278"/>
      <point x="362" y="278" type="curve" smooth="yes"/>
      <point x="334" y="278"/>
      <point x="317" y="254"/>
      <point x="317" y="231" type="curve" smooth="yes"/>
      <point x="317" y="201"/>
      <point x="335" y="180"/>
      <point x="356" y="158" type="curve"/>
    </contour>
    <contour>
      <point x="369" y="132" type="line"/>
      <point x="389" y="103"/>
      <point x="397" y="73"/>
      <point x="397" y="44" type="curve" smooth="yes"/>
      <point x="397" y="19"/>
      <point x="381" y="-3"/>
      <point x="350" y="-4" type="curve"/>
      <point x="354" y="-29"/>
      <point x="376" y="-40"/>
      <point x="395" y="-40" type="curve" smooth="yes"/>
      <point x="421" y="-40"/>
      <point x="448" y="-19"/>
      <point x="448" y="23" type="curve" smooth="yes"/>
      <point x="448" y="68"/>
      <point x="424" y="111"/>
      <point x="399" y="148" type="curve"/>
    </contour>
    <contour>
      <point x="-37" y="646" type="line"/>
      <point x="-38" y="644"/>
      <point x="-39" y="638"/>
      <point x="-39" y="633" type="curve" smooth="yes"/>
      <point x="-39" y="617"/>
      <point x="-31" y="595"/>
      <point x="15" y="595" type="curve" smooth="yes"/>
      <point x="490" y="595" type="line"/>
      <point x="491" y="597"/>
      <point x="492" y="603"/>
      <point x="492" y="608" type="curve" smooth="yes"/>
      <point x="492" y="624"/>
      <point x="484" y="646"/>
      <point x="438" y="646" type="curve" smooth="yes"/>
    </contour>
  </outline>
</glyph>
<glyph name="dvNA" format="1">
  <advance width="542"/>
  <unicode hex="0928"/>
  <outline>
    <contour>
      <point x="382" y="513" type="curve" smooth="yes"/>
      <point x="382" y="355"/>
      <point x="378" y="215"/>
      <point x="378" y="78" type="curve" smooth="yes"/>
      <point x="378" y="38"/>
      <point x="383" y="-5"/>
      <point x="424" y="-5" type="curve" smooth="yes"/>
      <point x="428" y="-5"/>
      <point x="435" y="-4"/>
      <point x="441" y="-1" type="curve"/>
      <point x="433" y="11"/>
      <point x="431" y="46"/>
      <point x="431" y="80" type="curve" smooth="yes"/>
      <point x="431" y="238"/>
      <point x="435" y="378"/>
      <point x="435" y="515" type="curve" smooth="yes"/>
      <point x="435" y="554"/>
      <point x="431" y="600"/>
      <point x="394" y="600" type="curve" smooth="yes"/>
      <point x="383" y="600"/>
      <point x="377" y="598"/>
      <point x="372" y="595" type="curve"/>
      <point x="380" y="583"/>
      <point x="382" y="547"/>
    </contour>
    <contour>
      <point x="-37" y="646" type="line"/>
      <point x="-38" y="644"/>
      <point x="-39" y="638"/>
      <point x="-39" y="633" type="curve" smooth="yes"/>
      <point x="-39" y="617"/>
      <point x="-31" y="595"/>
      <point x="15" y="595" type="curve" smooth="yes"/>
      <point x="567" y="595" type="line"/>
      <point x="568" y="597"/>
      <point x="569" y="603"/>
      <point x="569" y="608" type="curve" smooth="yes"/>
      <point x="569" y="624"/>
      <point x="561" y="646"/>
      <point x="515" y="646" type="curve" smooth="yes"/>
    </contour>
    <contour>
      <point x="84" y="307" type="curve" smooth="yes"/>
      <point x="84" y="360"/>
      <point x="132" y="379"/>
      <point x="174" y="379" type="curve" smooth="yes"/>
      <point x="219" y="379"/>
      <point x="384" y="379"/>
      <point x="384" y="379" type="curve"/>
      <point x="391" y="418" type="line"/>
      <point x="324" y="425"/>
      <point x="230" y="430"/>
      <point x="156" y="430" type="curve" smooth="yes"/>
      <point x="82" y="430"/>
      <point x="32" y="392"/>
      <point x="32" y="332" type="curve" smooth="yes"/>
      <point x="32" y="257"/>
      <point x="121" y="180"/>
      <point x="192" y="180" type="curve" smooth="yes"/>
      <point x="252" y="180"/>
      <point x="285" y="218"/>
      <point x="285" y="258" type="curve" smooth="yes"/>
      <point x="285" y="291"/>
      <point x="266" y="312"/>
      <point x="235" y="312" type="curve"/>
      <point x="237" y="305"/>
      <point x="238" y="298"/>
      <point x="238" y="291" type="curve" smooth="yes"/>
      <point x="238" y="254"/>
      <point x="209" y="228"/>
      <point x="168" y="228" type="curve" smooth="yes"/>
      <point x="127" y="228"/>
      <point x="84" y="259"/>
    </contour>
  </outline>
</glyph>
<glyph name="dvBHA" format="1">
  <advance width="599"/>
  <unicode hex="092D"/>
  <outline>
    <contour>
      <point x="293" y="646" type="line"/>
      <point x="292" y="644"/>
      <point x="291" y="638"/>
      <point x="291" y="633" type="curve" smooth="yes"/>
      <point x="291" y="617"/>
      <point x="299" y="595"/>
      <point x="345" y="595" type="curve" smooth="yes"/>
      <point x="624" y="595" type="line"/>
      <point x="625" y="597"/>
      <point x="626" y="603"/>
      <point x="626" y="608" type="curve" smooth="yes"/>
      <point x="626" y="624"/>
      <point x="618" y="646"/>
      <point x="572" y="646" type="curve" smooth="yes"/>
    </contour>
    <contour>
      <point x="439" y="513" type="curve" smooth="yes"/>
      <point x="439" y="355"/>
      <point x="435" y="215"/>
      <point x="435" y="78" type="curve" smooth="yes"/>
      <point x="435" y="38"/>
      <point x="440" y="-5"/>
      <point x="481" y="-5" type="curve" smooth="yes"/>
      <point x="485" y="-5"/>
      <point x="492" y="-4"/>
      <point x="498" y="-1" type="curve"/>
      <point x="490" y="11"/>
      <point x="488" y="46"/>
      <point x="488" y="80" type="curve" smooth="yes"/>
      <point x="488" y="238"/>
      <point x="492" y="378"/>
      <point x="492" y="515" type="curve" smooth="yes"/>
      <point x="492" y="554"/>
      <point x="488" y="600"/>
      <point x="451" y="600" type="curve" smooth="yes"/>
      <point x="440" y="600"/>
      <point x="434" y="598"/>
      <point x="429" y="595" type="curve"/>
      <point x="437" y="583"/>
      <point x="439" y="547"/>
    </contour>
    <contour>
      <point x="167" y="417" type="curve" smooth="yes"/>
      <point x="167" y="376"/>
      <point x="163" y="336"/>
      <point x="160" y="299" type="curve"/>
      <point x="461" y="299" type="line"/>
      <point x="470" y="338" type="line"/>
      <point x="384" y="348"/>
      <point x="252" y="350"/>
      <point x="172" y="350" type="curve" smooth="yes"/>
      <point x="128" y="350"/>
      <point x="80" y="345"/>
      <point x="80" y="299" type="curve" smooth="yes"/>
      <point x="80" y="261"/>
      <point x="125" y="209"/>
      <point x="168" y="209" type="curve" smooth="yes"/>
      <point x="218" y="209"/>
      <point x="220" y="303"/>
      <point x="220" y="340" type="curve" smooth="yes"/>
      <point x="220" y="521"/>
      <point x="166" y="648"/>
      <point x="74" y="648" type="curve" smooth="yes"/>
      <point x="27" y="648"/>
      <point x="0" y="611"/>
      <point x="0" y="566" type="curve" smooth="yes"/>
      <point x="0" y="516"/>
      <point x="27" y="465"/>
      <point x="61" y="465" type="curve" smooth="yes"/>
      <point x="67" y="465"/>
      <point x="72" y="467"/>
      <point x="75" y="469" type="curve"/>
      <point x="56" y="491"/>
      <point x="49" y="518"/>
      <point x="49" y="545" type="curve" smooth="yes"/>
      <point x="49" y="574"/>
      <point x="65" y="602"/>
      <point x="96" y="602" type="curve" smooth="yes"/>
      <point x="156" y="602"/>
      <point x="167" y="495"/>
    </contour>
  </outline>
</glyph>
<glyph name="dvRA" format="1">
  <advance width="390"/>
  <unicode hex="0930"/>
  <outline>
    <contour>
      <point x="342" y="-74" type="move" name="blwm.r"/>
    </contour>
    <contour>
      <point x="266" y="646" type="move" name="abvm.e"/>
    </contour>
    <contour>
      <point x="280" y="-14" type="move" name="blwm.virama"/>
    </contour>
    <contour>
      <point x="175" y="646" type="move" name="abvm.bindu"/>
    </contour>
    <contour>
      <point x="150" y="279" type="line"/>
      <point x="141" y="335"/>
      <point x="128" y="413"/>
      <point x="71" y="413" type="curve" smooth="yes"/>
      <point x="45" y="413"/>
      <point x="25" y="390"/>
      <point x="25" y="363" type="curve" smooth="yes"/>
      <point x="25" y="293"/>
      <point x="100" y="253"/>
      <point x="169" y="253" type="curve" smooth="yes"/>
      <point x="248" y="253"/>
      <point x="332" y="312"/>
      <point x="332" y="413" type="curve" smooth="yes"/>
      <point x="332" y="498"/>
      <point x="285" y="580"/>
      <point x="217" y="631" type="curve"/>
      <point x="192" y="607" type="line"/>
      <point x="246" y="575"/>
      <point x="281" y="508"/>
      <point x="281" y="431" type="curve" smooth="yes"/>
      <point x="281" y="366"/>
      <point x="235" y="309"/>
      <point x="152" y="307" type="curve" smooth="yes"/>
      <point x="143" y="307"/>
      <point x="135" y="307"/>
      <point x="130" y="309" type="curve"/>
    </contour>
    <contour>
      <point x="114" y="273" type="line"/>
      <point x="134" y="171"/>
      <point x="190" y="-4"/>
      <point x="290" y="-4" type="curve" smooth="yes"/>
      <point x="322" y="-4"/>
      <point x="341" y="16"/>
      <point x="341" y="40" type="curve" smooth="yes"/>
      <point x="341" y="48"/>
      <point x="339" y="57"/>
      <point x="334" y="66" type="curve"/>
      <point x="324" y="61"/>
      <point x="312" y="59"/>
      <point x="300" y="59" type="curve" smooth="yes"/>
      <point x="203" y="59"/>
      <point x="171" y="164"/>
      <point x="151" y="261" type="curve"/>
    </contour>
    <contour>
      <point x="-37" y="646" type="line"/>
      <point x="-38" y="644"/>
      <point x="-39" y="638"/>
      <point x="-39" y="633" type="curve" smooth="yes"/>
      <point x="-39" y="617"/>
      <point x="-31" y="595"/>
      <point x="15" y="595" type="curve" smooth="yes"/>
      <point x="415" y="595" type="line"/>
      <point x="416" y="597"/>
      <point x="417" y="603"/>
      <point x="417" y="608" type="curve" smooth="yes"/>
      <point x="417" y="624"/>
      <point x="409" y="646"/>
      <point x="363" y="646" type="curve" smooth="yes"/>
    </contour>
  </outline>
</glyph>
<glyph name="dvLA" format="1">
  <advance width="717"/>
  <unicode hex="0932"/>
  <outline>
    <contour>
      <point x="-37" y="646" type="line"/>
      <point x="-38" y="644"/>
      <point x="-39" y="638"/>
      <point x="-39" y="633" type="curve" smooth="yes"/>
      <point x="-39" y="617"/>
      <point x="-31" y="595"/>
      <point x="15" y="595" type="curve" smooth="yes"/>
      <point x="742" y="595" type="line"/>
      <point x="743" y="597"/>
      <point x="744" y="603"/>
      <point x="744" y="608" type="curve" smooth="yes"/>
      <point x="744" y="624"/>
      <point x="736" y="646"/>
      <point x="690" y="646" type="curve" smooth="yes"/>
    </contour>
    <contour>
      <point x="557" y="513" type="curve" smooth="yes"/>
      <point x="557" y="355"/>
      <point x="553" y="215"/>
      <point x="553" y="78" type="curve" smooth="yes"/>
      <point x="553" y="38"/>
      <point x="558" y="-5"/>
      <point x="599" y="-5" type="curve" smooth="yes"/>
      <point x="603" y="-5"/>
      <point x="610" y="-4"/>
      <point x="616" y="-1" type="curve"/>
      <point x="608" y="11"/>
      <point x="606" y="46"/>
      <point x="606" y="80" type="curve" smooth="yes"/>
      <point x="606" y="238"/>
      <point x="610" y="378"/>
      <point x="610" y="515" type="curve" smooth="yes"/>
      <point x="610" y="554"/>
      <point x="606" y="600"/>
      <point x="569" y="600" type="curve" smooth="yes"/>
      <point x="558" y="600"/>
      <point x="552" y="598"/>
      <point x="547" y="595" type="curve"/>
      <point x="555" y="583"/>
      <point x="557" y="547"/>
    </contour>
    <contour>
      <point x="595" y="347" type="line"/>
      <point x="562" y="398"/>
      <point x="522" y="430"/>
      <point x="458" y="430" type="curve" smooth="yes"/>
      <point x="397" y="430"/>
      <point x="350" y="389"/>
      <point x="324" y="344" type="curve"/>
      <point x="363" y="290" type="line"/>
      <point x="382" y="347"/>
      <point x="427" y="380"/>
      <point x="476" y="380" type="curve" smooth="yes"/>
      <point x="517" y="380"/>
      <point x="550" y="365"/>
      <point x="574" y="337" type="curve"/>
    </contour>
    <contour>
      <point x="218" y="385" type="curve" smooth="yes"/>
      <point x="261" y="385"/>
      <point x="294" y="361"/>
      <point x="316" y="334" type="curve"/>
      <point x="299" y="307"/>
      <point x="289" y="277"/>
      <point x="289" y="248" type="curve" smooth="yes"/>
      <point x="289" y="211"/>
      <point x="310" y="183"/>
      <point x="341" y="183" type="curve" smooth="yes"/>
      <point x="379" y="183"/>
      <point x="390" y="222"/>
      <point x="390" y="248" type="curve" smooth="yes"/>
      <point x="390" y="352"/>
      <point x="283" y="436"/>
      <point x="200" y="436" type="curve" smooth="yes"/>
      <point x="124" y="436"/>
      <point x="55" y="388"/>
      <point x="55" y="281" type="curve" smooth="yes"/>
      <point x="55" y="148"/>
      <point x="185" y="13"/>
      <point x="231" y="13" type="curve" smooth="yes"/>
      <point x="241" y="13"/>
      <point x="246" y="19"/>
      <point x="248" y="25" type="curve"/>
      <point x="167" y="88"/>
      <point x="110" y="172"/>
      <point x="110" y="259" type="curve" smooth="yes"/>
      <point x="110" y="323"/>
      <point x="143" y="385"/>
    </contour>
  </outline>
</glyph>
<glyph name="dvLLA" format="1">
  <advance width="714"/>
  <unicode hex="0933"/>
  <outline>
    <contour>
      <point x="527" y="36" type="move" name="blwm.u"/>
    </contour>
    <contour>
      <point x="552" y="6" type="move" name="blwm.r"/>
    </contour>
    <contour>
      <point x="526" y="646" type="move" name="abvm.e"/>
    </contour>
    <contour>
      <point x="508" y="36" type="move" name="blwm.uu"/>
    </contour>
    <contour>
      <point x="462" y="646" type="move" name="abvm.bindu"/>
    </contour>
    <contour>
      <point x="508" y="76" type="move" name="blwm.virama"/>
    </contour>
    <contour>
      <point x="526" y="438" type="line"/>
      <point x="526" y="548"/>
      <point x="525" y="600"/>
      <point x="484" y="600" type="curve" smooth="yes"/>
      <point x="473" y="600"/>
      <point x="467" y="598"/>
      <point x="462" y="595" type="curve"/>
      <point x="472" y="575"/>
      <point x="473" y="545"/>
      <point x="473" y="441" type="curve"/>
    </contour>
    <contour>
      <point x="386" y="368" type="line"/>
      <point x="359" y="424"/>
      <point x="292" y="463"/>
      <point x="217" y="463" type="curve" smooth="yes"/>
      <point x="119" y="463"/>
      <point x="44" y="390"/>
      <point x="44" y="302" type="curve" smooth="yes"/>
      <point x="44" y="209"/>
      <point x="132" y="122"/>
      <point x="220" y="122" type="curve" smooth="yes"/>
      <point x="393" y="122"/>
      <point x="365" y="416"/>
      <point x="510" y="416" type="curve" smooth="yes"/>
      <point x="574" y="416"/>
      <point x="614" y="368"/>
      <point x="614" y="310" type="curve" smooth="yes"/>
      <point x="614" y="226"/>
      <point x="546" y="170"/>
      <point x="471" y="170" type="curve" smooth="yes"/>
      <point x="425" y="170"/>
      <point x="378" y="188"/>
      <point x="343" y="217" type="curve"/>
      <point x="323" y="217" type="line"/>
      <point x="350" y="161"/>
      <point x="417" y="122"/>
      <point x="492" y="122" type="curve" smooth="yes"/>
      <point x="590" y="122"/>
      <point x="665" y="195"/>
      <point x="665" y="283" type="curve" smooth="yes"/>
      <point x="665" y="376"/>
      <point x="577" y="463"/>
      <point x="489" y="463" type="curve" smooth="yes"/>
      <point x="316" y="463"/>
      <point x="343" y="169"/>
      <point x="199" y="169" type="curve" smooth="yes"/>
      <point x="135" y="169"/>
      <point x="95" y="217"/>
      <point x="95" y="275" type="curve" smooth="yes"/>
      <point x="95" y="359"/>
      <point x="163" y="415"/>
      <point x="238" y="415" type="curve" smooth="yes"/>
      <point x="284" y="415"/>
      <point x="331" y="397"/>
      <point x="366" y="368" type="curve"/>
    </contour>
    <contour>
      <point x="-33" y="646" type="line"/>
      <point x="-34" y="644"/>
      <point x="-35" y="638"/>
      <point x="-35" y="633" type="curve" smooth="yes"/>
      <point x="-35" y="617"/>
      <point x="-27" y="595"/>
      <point x="19" y="595" type="curve" smooth="yes"/>
      <point x="742" y="595" type="line"/>
      <point x="743" y="597"/>
      <point x="744" y="603"/>
      <point x="744" y="608" type="curve" smooth="yes"/>
      <point x="744" y="624"/>
      <point x="736" y="646"/>
      <point x="690" y="646" type="curve" smooth="yes"/>
    </contour>
  </outline>
</glyph>
<glyph name="dvVA" format="1">
  <advance width="530"/>
  <unicode hex="0935"/>
  <outline>
    <contour>
      <point x="-33" y="646" type="line"/>
      <point x="-34" y="644"/>
      <point x="-35" y="638"/>
      <point x="-35" y="633" type="curve" smooth="yes"/>
      <point x="-35" y="617"/>
      <point x="-27" y="595"/>
      <point x="19" y="595" type="curve" smooth="yes"/>
      <point x="555" y="595" type="line"/>
      <point x="556" y="597"/>
      <point x="557" y="603"/>
      <point x="557" y="608" type="curve" smooth="yes"/>
      <point x="557" y="624"/>
      <point x="549" y="646"/>
      <point x="503" y="646" type="curve" smooth="yes"/>
    </contour>
    <contour>
      <point x="385" y="355" type="line"/>
      <point x="364" y="251"/>
      <point x="289" y="200"/>
      <point x="220" y="200" type="curve" smooth="yes"/>
      <point x="157" y="200"/>
      <point x="100" y="243"/>
      <point x="100" y="318" type="curve" smooth="yes"/>
      <point x="100" y="377"/>
      <point x="143" y="440"/>
      <point x="228" y="440" type="curve" smooth="yes"/>
      <point x="247" y="440"/>
      <point x="268" y="436"/>
      <point x="287" y="429" type="curve"/>
      <point x="289" y="433"/>
      <point x="290" y="438"/>
      <point x="290" y="443" type="curve" smooth="yes"/>
      <point x="290" y="473"/>
      <point x="258" y="492"/>
      <point x="203" y="492" type="curve" smooth="yes"/>
      <point x="138" y="492"/>
      <point x="53" y="443"/>
      <point x="53" y="347" type="curve" smooth="yes"/>
      <point x="53" y="232"/>
      <point x="151" y="153"/>
      <point x="246" y="153" type="curve" smooth="yes"/>
      <point x="301" y="153"/>
      <point x="361" y="181"/>
      <point x="387" y="238" type="curve"/>
      <point x="375" y="228" type="line"/>
      <point x="368" y="177"/>
      <point x="366" y="127"/>
      <point x="366" y="78" type="curve" smooth="yes"/>
      <point x="366" y="38"/>
      <point x="371" y="-5"/>
      <point x="412" y="-5" type="curve" smooth="yes"/>
      <point x="412" y="-5"/>
      <point x="429" y="-4"/>
      <point x="429" y="-1" type="curve"/>
      <point x="421" y="11"/>
      <point x="419" y="46"/>
      <point x="419" y="80" type="curve" smooth="yes"/>
      <point x="419" y="238"/>
      <point x="423" y="378"/>
      <point x="423" y="515" type="curve" smooth="yes"/>
      <point x="423" y="554"/>
      <point x="419" y="600"/>
      <point x="382" y="600" type="curve" smooth="yes"/>
      <point x="371" y="600"/>
      <point x="365" y="598"/>
      <point x="360" y="595" type="curve"/>
      <point x="367" y="583"/>
      <point x="370" y="547"/>
      <point x="370" y="513" type="curve" smooth="yes"/>
      <point x="370" y="421"/>
      <point x="368" y="335"/>
      <point x="367" y="252" type="curve"/>
    </contour>
  </outline>
</glyph>
<glyph name="dvSHA" format="1">
  <advance width="701"/>
  <unicode hex="0936"/>
  <outline>
    <contour>
      <point x="126" y="255" type="line"/>
      <point x="154" y="161"/>
      <point x="217" y="-4"/>
      <point x="335" y="-4" type="curve" smooth="yes"/>
      <point x="367" y="-4"/>
      <point x="386" y="16"/>
      <point x="386" y="40" type="curve" smooth="yes"/>
      <point x="386" y="48"/>
      <point x="384" y="57"/>
      <point x="379" y="66" type="curve"/>
      <point x="365" y="61"/>
      <point x="350" y="58"/>
      <point x="333" y="58" type="curve" smooth="yes"/>
      <point x="254" y="58"/>
      <point x="196" y="134"/>
      <point x="157" y="268" type="curve"/>
    </contour>
    <contour>
      <point x="238" y="601" type="curve" smooth="yes"/>
      <point x="301" y="601"/>
      <point x="338" y="532"/>
      <point x="338" y="457" type="curve" smooth="yes"/>
      <point x="338" y="345"/>
      <point x="262" y="286"/>
      <point x="154" y="283" type="curve"/>
      <point x="143" y="329"/>
      <point x="116" y="379"/>
      <point x="78" y="379" type="curve" smooth="yes"/>
      <point x="51" y="379"/>
      <point x="34" y="358"/>
      <point x="34" y="333" type="curve" smooth="yes"/>
      <point x="34" y="276"/>
      <point x="105" y="231"/>
      <point x="177" y="231" type="curve" smooth="yes"/>
      <point x="297" y="231"/>
      <point x="390" y="318"/>
      <point x="390" y="436" type="curve" smooth="yes"/>
      <point x="390" y="536"/>
      <point x="308" y="649"/>
      <point x="217" y="649" type="curve" smooth="yes"/>
      <point x="154" y="649"/>
      <point x="115" y="596"/>
      <point x="115" y="543" type="curve" smooth="yes"/>
      <point x="115" y="463"/>
      <point x="187" y="400"/>
      <point x="234" y="400" type="curve" smooth="yes"/>
      <point x="243" y="400"/>
      <point x="252" y="405"/>
      <point x="256" y="415" type="curve"/>
      <point x="208" y="435"/>
      <point x="169" y="478"/>
      <point x="169" y="524" type="curve" smooth="yes"/>
      <point x="169" y="567"/>
      <point x="195" y="601"/>
    </contour>
    <contour>
      <point x="541" y="513" type="curve" smooth="yes"/>
      <point x="541" y="355"/>
      <point x="537" y="215"/>
      <point x="537" y="78" type="curve" smooth="yes"/>
      <point x="537" y="38"/>
      <point x="542" y="-5"/>
      <point x="583" y="-5" type="curve" smooth="yes"/>
      <point x="587" y="-5"/>
      <point x="594" y="-4"/>
      <point x="600" y="-1" type="curve"/>
      <point x="592" y="11"/>
      <point x="590" y="46"/>
      <point x="590" y="80" type="curve" smooth="yes"/>
      <point x="590" y="238"/>
      <point x="594" y="378"/>
      <point x="594" y="515" type="curve" smooth="yes"/>
      <point x="594" y="554"/>
      <point x="591" y="594"/>
      <point x="553" y="600" type="curve"/>
      <point x="559" y="595" type="line"/>
      <point x="726" y="595" type="line"/>
      <point x="727" y="597"/>
      <point x="728" y="603"/>
      <point x="728" y="608" type="curve" smooth="yes"/>
      <point x="728" y="624"/>
      <point x="720" y="646"/>
      <point x="674" y="646" type="curve" smooth="yes"/>
      <point x="484" y="646" type="line"/>
      <point x="483" y="644"/>
      <point x="482" y="638"/>
      <point x="482" y="633" type="curve" smooth="yes"/>
      <point x="482" y="611"/>
      <point x="496" y="603"/>
      <point x="510" y="596" type="curve" smooth="yes"/>
      <point x="532" y="585"/>
      <point x="541" y="571"/>
    </contour>
  </outline>
</glyph>
<glyph name="dvNukta" format="1">
  <advance width="0"/>
  <unicode hex="093C"/>
  <outline>
    <contour>
      <point x="-358" y="-98" type="curve" smooth="yes"/>
      <point x="-358" y="-124"/>
      <point x="-335" y="-147"/>
      <point x="-309" y="-147" type="curve" smooth="yes"/>
      <point x="-287" y="-147"/>
      <point x="-273" y="-131"/>
      <point x="-273" y="-111" type="curve" smooth="yes"/>
      <point x="-273" y="-85"/>
      <point x="-298" y="-62"/>
      <point x="-322" y="-62" type="curve" smooth="yes"/>
      <point x="-344" y="-62"/>
      <point x="-358" y="-77"/>
    </contour>
  </outline>
</glyph>
<glyph name="dvmI" format="1">
  <advance width="269"/>
  <unicode hex="093F"/>
  <outline>
    <contour>
      <point x="-37" y="646" type="line"/>
      <point x="-38" y="644"/>
      <point x="-39" y="638"/>
      <point x="-39" y="633" type="curve" smooth="yes"/>
      <point x="-39" y="617"/>
      <point x="-31" y="595"/>
      <point x="15" y="595" type="curve" smooth="yes"/>
      <point x="294" y="595" type="line"/>
      <point x="295" y="597"/>
      <point x="296" y="603"/>
      <point x="296" y="608" type="curve" smooth="yes"/>
      <point x="296" y="624"/>
      <point x="288" y="646"/>
      <point x="242" y="646" type="curve" smooth="yes"/>
    </contour>
    <contour>
      <point x="109" y="513" type="curve" smooth="yes"/>
      <point x="109" y="355"/>
      <point x="105" y="215"/>
      <point x="105" y="78" type="curve" smooth="yes"/>
      <point x="105" y="38"/>
      <point x="110" y="-5"/>
      <point x="151" y="-5" type="curve" smooth="yes"/>
      <point x="155" y="-5"/>
      <point x="162" y="-4"/>
      <point x="168" y="-1" type="curve"/>
      <point x="160" y="11"/>
      <point x="158" y="46"/>
      <point x="158" y="80" type="curve" smooth="yes"/>
      <point x="158" y="238"/>
      <point x="162" y="378"/>
      <point x="162" y="515" type="curve" smooth="yes"/>
      <point x="162" y="613"/>
      <point x="120" y="656"/>
      <point x="120" y="730" type="curve" smooth="yes"/>
      <point x="120" y="821"/>
      <point x="198" y="854"/>
      <point x="270" y="854" type="curve" smooth="yes"/>
      <point x="404" y="854"/>
      <point x="539" y="781"/>
      <point x="625" y="716" type="curve"/>
      <point x="630" y="719"/>
      <point x="634" y="725"/>
      <point x="634" y="730" type="curve" smooth="yes"/>
      <point x="634" y="768"/>
      <point x="429" y="902"/>
      <point x="248" y="902" type="curve" smooth="yes"/>
      <point x="145" y="902"/>
      <point x="69" y="848"/>
      <point x="69" y="758" type="curve" smooth="yes"/>
      <point x="69" y="666"/>
      <point x="109" y="663"/>
    </contour>
  </outline>
</glyph>
